%TF.GenerationSoftware,KiCad,Pcbnew,(6.0.0)*%
%TF.CreationDate,2022-09-29T22:13:06+02:00*%
%TF.ProjectId,bobbycar-lora-can-ethernet,626f6262-7963-4617-922d-6c6f72612d63,rev?*%
%TF.SameCoordinates,Original*%
%TF.FileFunction,Paste,Top*%
%TF.FilePolarity,Positive*%
%FSLAX46Y46*%
G04 Gerber Fmt 4.6, Leading zero omitted, Abs format (unit mm)*
G04 Created by KiCad (PCBNEW (6.0.0)) date 2022-09-29 22:13:06*
%MOMM*%
%LPD*%
G01*
G04 APERTURE LIST*
G04 Aperture macros list*
%AMRoundRect*
0 Rectangle with rounded corners*
0 $1 Rounding radius*
0 $2 $3 $4 $5 $6 $7 $8 $9 X,Y pos of 4 corners*
0 Add a 4 corners polygon primitive as box body*
4,1,4,$2,$3,$4,$5,$6,$7,$8,$9,$2,$3,0*
0 Add four circle primitives for the rounded corners*
1,1,$1+$1,$2,$3*
1,1,$1+$1,$4,$5*
1,1,$1+$1,$6,$7*
1,1,$1+$1,$8,$9*
0 Add four rect primitives between the rounded corners*
20,1,$1+$1,$2,$3,$4,$5,0*
20,1,$1+$1,$4,$5,$6,$7,0*
20,1,$1+$1,$6,$7,$8,$9,0*
20,1,$1+$1,$8,$9,$2,$3,0*%
G04 Aperture macros list end*
%ADD10R,1.900000X1.600000*%
%ADD11RoundRect,0.250000X0.475000X-0.250000X0.475000X0.250000X-0.475000X0.250000X-0.475000X-0.250000X0*%
%ADD12R,0.400000X0.650000*%
%ADD13RoundRect,0.225000X-0.250000X0.225000X-0.250000X-0.225000X0.250000X-0.225000X0.250000X0.225000X0*%
%ADD14R,0.600000X0.450000*%
%ADD15RoundRect,0.135000X-0.185000X0.135000X-0.185000X-0.135000X0.185000X-0.135000X0.185000X0.135000X0*%
%ADD16RoundRect,0.135000X0.135000X0.185000X-0.135000X0.185000X-0.135000X-0.185000X0.135000X-0.185000X0*%
%ADD17RoundRect,0.150000X-0.825000X-0.150000X0.825000X-0.150000X0.825000X0.150000X-0.825000X0.150000X0*%
%ADD18R,1.500000X2.000000*%
%ADD19R,1.200000X0.900000*%
%ADD20RoundRect,0.250000X-0.475000X0.250000X-0.475000X-0.250000X0.475000X-0.250000X0.475000X0.250000X0*%
%ADD21RoundRect,0.218750X0.218750X0.381250X-0.218750X0.381250X-0.218750X-0.381250X0.218750X-0.381250X0*%
%ADD22RoundRect,0.135000X-0.135000X-0.185000X0.135000X-0.185000X0.135000X0.185000X-0.135000X0.185000X0*%
%ADD23R,2.000000X0.900000*%
%ADD24R,0.900000X2.000000*%
%ADD25R,5.000000X5.000000*%
%ADD26RoundRect,0.150000X0.150000X-0.825000X0.150000X0.825000X-0.150000X0.825000X-0.150000X-0.825000X0*%
%ADD27RoundRect,0.135000X0.185000X-0.135000X0.185000X0.135000X-0.185000X0.135000X-0.185000X-0.135000X0*%
%ADD28R,1.800000X0.900000*%
%ADD29RoundRect,0.150000X-0.512500X-0.150000X0.512500X-0.150000X0.512500X0.150000X-0.512500X0.150000X0*%
%ADD30R,1.050000X1.000000*%
%ADD31R,2.200000X1.050000*%
%ADD32R,1.800000X2.500000*%
%ADD33RoundRect,0.225000X0.250000X-0.225000X0.250000X0.225000X-0.250000X0.225000X-0.250000X-0.225000X0*%
%ADD34R,1.200000X0.700000*%
%ADD35R,0.800000X1.000000*%
%ADD36R,2.800000X1.000000*%
%ADD37R,1.900000X1.300000*%
%ADD38R,1.200000X1.000000*%
%ADD39RoundRect,0.150000X-0.587500X-0.150000X0.587500X-0.150000X0.587500X0.150000X-0.587500X0.150000X0*%
%ADD40RoundRect,0.218750X-0.256250X0.218750X-0.256250X-0.218750X0.256250X-0.218750X0.256250X0.218750X0*%
%ADD41RoundRect,0.250000X-0.250000X-0.475000X0.250000X-0.475000X0.250000X0.475000X-0.250000X0.475000X0*%
%ADD42O,2.100000X1.000000*%
%ADD43O,1.800000X1.000000*%
%ADD44R,1.150000X0.600000*%
%ADD45R,1.150000X0.300000*%
%ADD46RoundRect,0.100000X-0.100000X0.712500X-0.100000X-0.712500X0.100000X-0.712500X0.100000X0.712500X0*%
%ADD47RoundRect,0.225000X-0.225000X-0.250000X0.225000X-0.250000X0.225000X0.250000X-0.225000X0.250000X0*%
G04 APERTURE END LIST*
D10*
%TO.C,L3*%
X5450000Y-16500000D03*
X1350000Y-16500000D03*
%TD*%
D11*
%TO.C,C10*%
X14600000Y-9550000D03*
X14600000Y-7650000D03*
%TD*%
D12*
%TO.C,D6*%
X14650000Y-14150000D03*
X15950000Y-14150000D03*
X15300000Y-12250000D03*
X15300000Y-14150000D03*
X15950000Y-12250000D03*
X14650000Y-12250000D03*
%TD*%
D13*
%TO.C,C11*%
X7500000Y-17225000D03*
X7500000Y-18775000D03*
%TD*%
D14*
%TO.C,D1*%
X2850000Y-46300000D03*
X750000Y-46300000D03*
%TD*%
D15*
%TO.C,R14*%
X41600000Y-24490000D03*
X41600000Y-25510000D03*
%TD*%
D16*
%TO.C,R9*%
X47300000Y-7600000D03*
X46280000Y-7600000D03*
%TD*%
D17*
%TO.C,U5*%
X43725000Y-19555000D03*
X43725000Y-20825000D03*
X43725000Y-22095000D03*
X43725000Y-23365000D03*
X43725000Y-24635000D03*
X43725000Y-25905000D03*
X43725000Y-27175000D03*
X43725000Y-28445000D03*
X48675000Y-28445000D03*
X48675000Y-27175000D03*
X48675000Y-25905000D03*
X48675000Y-24635000D03*
X48675000Y-23365000D03*
X48675000Y-22095000D03*
X48675000Y-20825000D03*
X48675000Y-19555000D03*
%TD*%
D11*
%TO.C,C9*%
X1100000Y-22100000D03*
X1100000Y-20200000D03*
%TD*%
D18*
%TO.C,U2*%
X35300000Y-32500000D03*
X33300000Y-32500000D03*
X31300000Y-32500000D03*
X29300000Y-32500000D03*
X27300000Y-32500000D03*
X25300000Y-32500000D03*
X23300000Y-32500000D03*
X21300000Y-32500000D03*
X21300000Y-48500000D03*
X23300000Y-48500000D03*
X25300000Y-48500000D03*
X27300000Y-48500000D03*
X29300000Y-48500000D03*
X31300000Y-48500000D03*
X33300000Y-48500000D03*
X35300000Y-48500000D03*
%TD*%
D15*
%TO.C,R21*%
X18500000Y-24400000D03*
X18500000Y-25420000D03*
%TD*%
D19*
%TO.C,D3*%
X14800000Y-5550000D03*
X14800000Y-2250000D03*
%TD*%
D20*
%TO.C,C4*%
X18200000Y-7550000D03*
X18200000Y-9450000D03*
%TD*%
D21*
%TO.C,L2*%
X21862500Y-30000000D03*
X19737500Y-30000000D03*
%TD*%
D22*
%TO.C,R10*%
X48280000Y-7600000D03*
X49300000Y-7600000D03*
%TD*%
D23*
%TO.C,U1*%
X21500000Y-8045000D03*
X21500000Y-9315000D03*
X21500000Y-10585000D03*
X21500000Y-11855000D03*
X21500000Y-13125000D03*
X21500000Y-14395000D03*
X21500000Y-15665000D03*
X21500000Y-16935000D03*
X21500000Y-18205000D03*
X21500000Y-19475000D03*
X21500000Y-20745000D03*
X21500000Y-22015000D03*
X21500000Y-23285000D03*
X21500000Y-24555000D03*
D24*
X24285000Y-25555000D03*
X25555000Y-25555000D03*
X26825000Y-25555000D03*
X28095000Y-25555000D03*
X29365000Y-25555000D03*
X30635000Y-25555000D03*
X31905000Y-25555000D03*
X33175000Y-25555000D03*
X34445000Y-25555000D03*
X35715000Y-25555000D03*
D23*
X38500000Y-24555000D03*
X38500000Y-23285000D03*
X38500000Y-22015000D03*
X38500000Y-20745000D03*
X38500000Y-19475000D03*
X38500000Y-18205000D03*
X38500000Y-16935000D03*
X38500000Y-15665000D03*
X38500000Y-14395000D03*
X38500000Y-13125000D03*
X38500000Y-11855000D03*
X38500000Y-10585000D03*
X38500000Y-9315000D03*
X38500000Y-8045000D03*
D25*
X29000000Y-15545000D03*
%TD*%
D26*
%TO.C,U6*%
X13495000Y-21375000D03*
X14765000Y-21375000D03*
X16035000Y-21375000D03*
X17305000Y-21375000D03*
X17305000Y-16425000D03*
X16035000Y-16425000D03*
X14765000Y-16425000D03*
X13495000Y-16425000D03*
%TD*%
D13*
%TO.C,C5*%
X16400000Y-7925000D03*
X16400000Y-9475000D03*
%TD*%
D22*
%TO.C,R25*%
X7190000Y-20100000D03*
X8210000Y-20100000D03*
%TD*%
D15*
%TO.C,R16*%
X18500000Y-33890000D03*
X18500000Y-34910000D03*
%TD*%
%TO.C,R8*%
X42000000Y-15090000D03*
X42000000Y-16110000D03*
%TD*%
%TO.C,R13*%
X41600000Y-26490000D03*
X41600000Y-27510000D03*
%TD*%
D20*
%TO.C,C1*%
X18100000Y-40550000D03*
X18100000Y-42450000D03*
%TD*%
D27*
%TO.C,R15*%
X7200000Y-22110000D03*
X7200000Y-21090000D03*
%TD*%
D14*
%TO.C,D2*%
X43050000Y-7700000D03*
X45150000Y-7700000D03*
%TD*%
D15*
%TO.C,R12*%
X42200000Y-10490000D03*
X42200000Y-11510000D03*
%TD*%
D28*
%TO.C,J3*%
X15750000Y-48400000D03*
X15750000Y-47300000D03*
X15750000Y-46200000D03*
X15750000Y-45100000D03*
X15750000Y-44000000D03*
X15750000Y-42900000D03*
X15750000Y-41800000D03*
X15750000Y-40700000D03*
X15750000Y-39600000D03*
X6050000Y-39600000D03*
X6050000Y-40700000D03*
X6050000Y-41800000D03*
X6050000Y-42900000D03*
X6050000Y-44000000D03*
X6050000Y-45100000D03*
X6050000Y-46200000D03*
X6050000Y-47300000D03*
X6050000Y-48400000D03*
%TD*%
D15*
%TO.C,R18*%
X18500000Y-30090000D03*
X18500000Y-31110000D03*
%TD*%
D29*
%TO.C,U7*%
X3462500Y-20150000D03*
X3462500Y-21100000D03*
X3462500Y-22050000D03*
X5737500Y-22050000D03*
X5737500Y-21100000D03*
X5737500Y-20150000D03*
%TD*%
D13*
%TO.C,C3*%
X41700000Y-21600000D03*
X41700000Y-23150000D03*
%TD*%
D30*
%TO.C,AE1*%
X2950000Y-41300000D03*
D31*
X1425000Y-39825000D03*
X1425000Y-42775000D03*
%TD*%
D15*
%TO.C,R19*%
X18500000Y-28190000D03*
X18500000Y-29210000D03*
%TD*%
D32*
%TO.C,D4*%
X10600000Y-21200000D03*
X10600000Y-17200000D03*
%TD*%
D33*
%TO.C,C13*%
X18700000Y-12575000D03*
X18700000Y-11025000D03*
%TD*%
D34*
%TO.C,J4*%
X16790000Y-33645000D03*
X16790000Y-32545000D03*
X16790000Y-31445000D03*
X16790000Y-30345000D03*
X16790000Y-29245000D03*
X16790000Y-28145000D03*
X16790000Y-27045000D03*
X16790000Y-25945000D03*
X16790000Y-24995000D03*
D35*
X6290000Y-24045000D03*
D36*
X2140000Y-24045000D03*
D37*
X1690000Y-37545000D03*
D38*
X12490000Y-24045000D03*
X16790000Y-35195000D03*
%TD*%
D27*
%TO.C,R17*%
X18500000Y-33010000D03*
X18500000Y-31990000D03*
%TD*%
D33*
%TO.C,C6*%
X23400000Y-29975000D03*
X23400000Y-28425000D03*
%TD*%
D15*
%TO.C,R1*%
X4000000Y-45790000D03*
X4000000Y-46810000D03*
%TD*%
D39*
%TO.C,Q2*%
X47062500Y-4250000D03*
X47062500Y-6150000D03*
X48937500Y-5200000D03*
%TD*%
D40*
%TO.C,L1*%
X3900000Y-43012500D03*
X3900000Y-44587500D03*
%TD*%
D39*
%TO.C,Q1*%
X47062500Y-850000D03*
X47062500Y-2750000D03*
X48937500Y-1800000D03*
%TD*%
D41*
%TO.C,C12*%
X7650000Y-14600000D03*
X9550000Y-14600000D03*
%TD*%
D15*
%TO.C,R24*%
X8200000Y-21090000D03*
X8200000Y-22110000D03*
%TD*%
%TO.C,R20*%
X18500000Y-26290000D03*
X18500000Y-27310000D03*
%TD*%
D42*
%TO.C,USBC1*%
X44092500Y-18015000D03*
D43*
X48272500Y-18015000D03*
X48272500Y-9375000D03*
D42*
X44092500Y-9375000D03*
D44*
X43532500Y-16895000D03*
X43532500Y-16095000D03*
D45*
X43532500Y-14945000D03*
X43532500Y-13945000D03*
X43532500Y-13445000D03*
X43532500Y-12445000D03*
D44*
X43532500Y-10495000D03*
X43532500Y-11295000D03*
D45*
X43532500Y-11945000D03*
X43532500Y-12945000D03*
X43532500Y-14445000D03*
X43532500Y-15445000D03*
%TD*%
D46*
%TO.C,U3*%
X45175000Y-1487500D03*
X44525000Y-1487500D03*
X43875000Y-1487500D03*
X43225000Y-1487500D03*
X43225000Y-5712500D03*
X43875000Y-5712500D03*
X44525000Y-5712500D03*
X45175000Y-5712500D03*
%TD*%
D47*
%TO.C,C8*%
X11225000Y-14400000D03*
X12775000Y-14400000D03*
%TD*%
D41*
%TO.C,C7*%
X19950000Y-27900000D03*
X21850000Y-27900000D03*
%TD*%
M02*
