M48
; DRILL file {KiCad (6.0.0)} date Thu Sep 29 22:13:08 2022
; FORMAT={-:-/ absolute / inch / decimal}
; #@! TF.CreationDate,2022-09-29T22:13:08+02:00
; #@! TF.GenerationSoftware,Kicad,Pcbnew,(6.0.0)
; #@! TF.FileFunction,Plated,1,2,PTH
FMAT,2
INCH
; #@! TA.AperFunction,Plated,PTH,ViaDrill
T1C0.0157
; #@! TA.AperFunction,Plated,PTH,ComponentDrill
T2C0.0157
; #@! TA.AperFunction,Plated,PTH,ComponentDrill
T3C0.0236
; #@! TA.AperFunction,Plated,PTH,ComponentDrill
T4C0.0256
; #@! TA.AperFunction,Plated,PTH,ComponentDrill
T5C0.0315
; #@! TA.AperFunction,Plated,PTH,ComponentDrill
T6C0.0374
%
G90
G05
T1
X0.0453Y-0.3504
X0.0472Y-0.7205
X0.0531Y-1.6299
X0.061Y-0.5669
X0.0669Y-1.748
X0.0669Y-1.8642
X0.0709Y-1.0157
X0.0709Y-1.811
X0.0748Y-1.1457
X0.0787Y-1.3898
X0.1122Y-0.0374
X0.1161Y-0.2028
X0.1299Y-0.7559
X0.1417Y-1.2244
X0.1516Y-1.5571
X0.1693Y-1.6417
X0.1969Y-0.7224
X0.1969Y-1.4803
X0.2303Y-0.5748
X0.2323Y-1.2126
X0.2421Y-0.4724
X0.2559Y-0.7559
X0.2598Y-1.0906
X0.2756Y-1.311
X0.3228Y-1.7638
X0.3228Y-1.8937
X0.3346Y-0.6339
X0.3346Y-1.5669
X0.3386Y-1.4449
X0.3406Y-0.748
X0.3425Y-0.8976
X0.3543Y-1.1732
X0.3967Y-0.9734
X0.4075Y-0.4626
X0.4232Y-0.75
X0.4291Y-1.378
X0.4783Y-0.1791
X0.4823Y-0.0413
X0.4843Y-0.8583
X0.4897Y-0.4736
X0.5118Y-0.2953
X0.5118Y-1.0
X0.5118Y-1.1654
X0.5197Y-0.2205
X0.5276Y-1.5512
X0.5276Y-1.9016
X0.5354Y-0.7717
X0.5394Y-1.7717
X0.5472Y-1.6969
X0.5512Y-1.3661
X0.5512Y-1.6063
X0.5579Y-0.4122
X0.5748Y-1.1575
X0.5879Y-0.6967
X0.6015Y-1.1173
X0.6024Y-1.0591
X0.6024Y-1.2362
X0.6063Y-1.1929
X0.6339Y-0.7087
X0.6339Y-0.9016
X0.6378Y-1.4646
X0.6614Y-0.5748
X0.6654Y-0.4783
X0.6845Y-0.7396
X0.6936Y-0.9493
X0.7205Y-1.7598
X0.7323Y-0.5433
X0.7362Y-1.9134
X0.7618Y-0.6043
X0.7638Y-0.9134
X0.7657Y-0.7185
X0.7717Y-1.0197
X0.7756Y-1.2992
X0.818Y-1.1572
X0.8187Y-1.2085
X0.8189Y-1.7953
X0.8256Y-1.0578
X0.8327Y-1.374
X0.8642Y-1.5591
X0.8696Y-1.0085
X0.8898Y-1.6811
X0.9086Y-0.4487
X0.9331Y-0.3799
X0.937Y-0.8314
X0.937Y-0.87
X0.937Y-0.9085
X0.9449Y-0.7028
X0.9488Y-1.8189
X0.9508Y-0.5276
X0.9646Y-1.7441
X0.9685Y-1.3661
X0.9862Y-1.1791
X0.9961Y-1.0925
X1.0039Y-0.9272
X1.0039Y-1.8189
X1.0118Y-0.8524
X1.0315Y-1.7126
X1.0591Y-1.4764
X1.0705Y-1.6603
X1.0787Y-1.3622
X1.1104Y-1.6758
X1.148Y-1.7078
X1.1503Y-1.3563
X1.1535Y-1.5709
X1.1654Y-1.8228
X1.169Y-1.6564
X1.1811Y-0.3898
X1.1988Y-0.8543
X1.2283Y-1.7913
X1.2303Y-1.187
X1.252Y-0.7362
X1.2559Y-0.9075
X1.2559Y-1.8268
X1.2827Y-1.3819
X1.2827Y-1.4685
X1.2827Y-1.5672
X1.2992Y-0.6811
X1.3024Y-0.762
X1.315Y-1.811
X1.3189Y-0.5295
X1.3248Y-1.0906
X1.3503Y-0.937
X1.3524Y-0.813
X1.3761Y-0.8836
X1.378Y-0.3898
X1.3858Y-1.3622
X1.3858Y-1.4449
X1.3858Y-1.5354
X1.3858Y-1.6378
X1.3858Y-1.7323
X1.3874Y-0.9472
X1.3898Y-1.815
X1.421Y-0.7578
X1.4252Y-0.5197
X1.4291Y-0.45
X1.4291Y-0.8622
X1.4369Y-0.8193
X1.4449Y-0.7165
X1.4501Y-0.783
X1.4528Y-0.6693
X1.5248Y-1.119
X1.5315Y-1.0118
X1.553Y-1.0831
X1.5866Y-1.1181
X1.5906Y-0.3228
X1.6024Y-1.0276
X1.6031Y-0.9668
X1.626Y-0.8012
X1.6417Y-0.498
X1.6594Y-1.1398
X1.6634Y-0.6988
X1.6977Y-0.153
X1.7008Y-0.1134
X1.7463Y-0.2824
X1.752Y-0.1654
X1.7576Y-0.5046
X1.7598Y-0.5709
X1.7703Y-0.608
X1.7835Y-0.4685
X1.7835Y-1.0748
X1.8036Y-0.1415
X1.8123Y-0.5118
X1.815Y-0.3346
X1.8177Y-0.4421
X1.8307Y-0.3701
X1.8307Y-1.1201
X1.8363Y-0.7769
X1.8458Y-1.0737
X1.8504Y-1.0354
X1.8543Y-0.2047
X1.8583Y-0.0709
X1.9004Y-0.2638
X1.9035Y-0.4291
X1.9055Y-0.6535
X1.9134Y-0.0354
X1.9252Y-0.1102
T2
X1.7402Y-1.2717
X1.7402Y-1.3504
X1.7402Y-1.4291
X1.7402Y-1.5079
X1.7402Y-1.5866
X1.7402Y-1.6654
X1.7402Y-1.7441
X1.7402Y-1.8228
X1.7402Y-1.9016
X1.937Y-1.1929
X1.937Y-1.2717
X1.937Y-1.3504
X1.937Y-1.4291
X1.937Y-1.5079
X1.937Y-1.5866
X1.937Y-1.6654
X1.937Y-1.7441
X1.937Y-1.8228
X1.937Y-1.9016
T4
X1.7556Y-0.4254
X1.7556Y-0.653
T5
X0.0669Y-1.9213
X0.1457Y-1.9213
T6
X0.122Y-0.1132
X0.122Y-0.3819
X0.2205Y-0.1132
X0.2205Y-0.3819
X0.3189Y-0.1132
X0.3189Y-0.3819
X0.4173Y-0.1132
X0.4173Y-0.3819
T3
G00X1.7143Y-0.3691
M15
G01X1.7576Y-0.3691
M16
G05
G00X1.7143Y-0.7093
M15
G01X1.7576Y-0.7093
M16
G05
G00X1.8847Y-0.3691
M15
G01X1.9162Y-0.3691
M16
G05
G00X1.8847Y-0.7093
M15
G01X1.9162Y-0.7093
M16
G05
T0
M30
