%TF.GenerationSoftware,KiCad,Pcbnew,(6.0.0)*%
%TF.CreationDate,2022-09-29T22:13:06+02:00*%
%TF.ProjectId,bobbycar-lora-can-ethernet,626f6262-7963-4617-922d-6c6f72612d63,rev?*%
%TF.SameCoordinates,Original*%
%TF.FileFunction,Copper,L2,Bot*%
%TF.FilePolarity,Positive*%
%FSLAX46Y46*%
G04 Gerber Fmt 4.6, Leading zero omitted, Abs format (unit mm)*
G04 Created by KiCad (PCBNEW (6.0.0)) date 2022-09-29 22:13:06*
%MOMM*%
%LPD*%
G01*
G04 APERTURE LIST*
G04 Aperture macros list*
%AMRoundRect*
0 Rectangle with rounded corners*
0 $1 Rounding radius*
0 $2 $3 $4 $5 $6 $7 $8 $9 X,Y pos of 4 corners*
0 Add a 4 corners polygon primitive as box body*
4,1,4,$2,$3,$4,$5,$6,$7,$8,$9,$2,$3,0*
0 Add four circle primitives for the rounded corners*
1,1,$1+$1,$2,$3*
1,1,$1+$1,$4,$5*
1,1,$1+$1,$6,$7*
1,1,$1+$1,$8,$9*
0 Add four rect primitives between the rounded corners*
20,1,$1+$1,$2,$3,$4,$5,0*
20,1,$1+$1,$4,$5,$6,$7,0*
20,1,$1+$1,$6,$7,$8,$9,0*
20,1,$1+$1,$8,$9,$2,$3,0*%
G04 Aperture macros list end*
%TA.AperFunction,EtchedComponent*%
%ADD10C,1.000000*%
%TD*%
%TA.AperFunction,ComponentPad*%
%ADD11R,1.350000X1.350000*%
%TD*%
%TA.AperFunction,ComponentPad*%
%ADD12O,1.350000X1.350000*%
%TD*%
%TA.AperFunction,ComponentPad*%
%ADD13RoundRect,0.250000X-0.600000X-0.725000X0.600000X-0.725000X0.600000X0.725000X-0.600000X0.725000X0*%
%TD*%
%TA.AperFunction,ComponentPad*%
%ADD14O,1.700000X1.950000*%
%TD*%
%TA.AperFunction,ComponentPad*%
%ADD15C,1.000000*%
%TD*%
%TA.AperFunction,ComponentPad*%
%ADD16C,0.650000*%
%TD*%
%TA.AperFunction,ComponentPad*%
%ADD17O,2.100000X1.000000*%
%TD*%
%TA.AperFunction,ComponentPad*%
%ADD18O,1.800000X1.000000*%
%TD*%
%TA.AperFunction,ViaPad*%
%ADD19C,0.800000*%
%TD*%
%TA.AperFunction,Conductor*%
%ADD20C,0.500000*%
%TD*%
%TA.AperFunction,Conductor*%
%ADD21C,0.200000*%
%TD*%
%TA.AperFunction,Conductor*%
%ADD22C,0.250000*%
%TD*%
G04 APERTURE END LIST*
D10*
%TO.C,AE2*%
X49200000Y-44300000D02*
X48200000Y-45300000D01*
X49200000Y-38300000D02*
X48200000Y-39300000D01*
X48200000Y-33300000D02*
X45200000Y-33300000D01*
X48200000Y-39300000D02*
X45200000Y-39300000D01*
X45200000Y-31300000D02*
X44200000Y-32300000D01*
X48200000Y-35300000D02*
X45200000Y-35300000D01*
X49200000Y-34300000D02*
X48200000Y-35300000D01*
X48200000Y-45300000D02*
X45200000Y-45300000D01*
X45200000Y-45300000D02*
X44200000Y-46300000D01*
X48200000Y-37300000D02*
X45200000Y-37300000D01*
X45200000Y-41300000D02*
X44200000Y-42300000D01*
X48200000Y-43300000D02*
X45200000Y-43300000D01*
X49200000Y-30300000D02*
X48200000Y-31300000D01*
X45200000Y-39300000D02*
X44200000Y-40300000D01*
X49200000Y-32300000D02*
X48200000Y-33300000D01*
X45200000Y-47300000D02*
X44200000Y-48300000D01*
X48200000Y-47300000D02*
X45200000Y-47300000D01*
X45200000Y-37300000D02*
X44200000Y-38300000D01*
X48200000Y-41300000D02*
X45200000Y-41300000D01*
X45200000Y-35300000D02*
X44200000Y-36300000D01*
X49200000Y-36300000D02*
X48200000Y-37300000D01*
X49200000Y-42300000D02*
X48200000Y-43300000D01*
X48200000Y-31300000D02*
X45200000Y-31300000D01*
X45200000Y-33300000D02*
X44200000Y-34300000D01*
X49200000Y-46300000D02*
X48200000Y-47300000D01*
X45200000Y-43300000D02*
X44200000Y-44300000D01*
X49200000Y-40300000D02*
X48200000Y-41300000D01*
%TD*%
D11*
%TO.P,BT1,1,+*%
%TO.N,VBAT_3V*%
X3700000Y-48800000D03*
D12*
%TO.P,BT1,2,-*%
%TO.N,GND*%
X1700000Y-48800000D03*
%TD*%
D13*
%TO.P,J2,1,Pin_1*%
%TO.N,GND*%
X3100000Y-2875000D03*
D14*
%TO.P,J2,2,Pin_2*%
%TO.N,CANL*%
X5600000Y-2875000D03*
%TO.P,J2,3,Pin_3*%
%TO.N,CANH*%
X8100000Y-2875000D03*
%TO.P,J2,4,Pin_4*%
%TO.N,Net-(D3-Pad2)*%
X10600000Y-2875000D03*
%TD*%
D13*
%TO.P,J1,1,Pin_1*%
%TO.N,GND*%
X3100000Y-9700000D03*
D14*
%TO.P,J1,2,Pin_2*%
%TO.N,CANL*%
X5600000Y-9700000D03*
%TO.P,J1,3,Pin_3*%
%TO.N,CANH*%
X8100000Y-9700000D03*
%TO.P,J1,4,Pin_4*%
%TO.N,Net-(D3-Pad2)*%
X10600000Y-9700000D03*
%TD*%
D15*
%TO.P,AE2,*%
%TO.N,*%
X44200000Y-42300000D03*
X49200000Y-42300000D03*
X44200000Y-46300000D03*
X44200000Y-48300000D03*
X44200000Y-34300000D03*
X49200000Y-40300000D03*
X44200000Y-44300000D03*
X49200000Y-44300000D03*
X44200000Y-32300000D03*
X49200000Y-38300000D03*
X49200000Y-36300000D03*
X49200000Y-46300000D03*
X44200000Y-38300000D03*
X49200000Y-32300000D03*
X49200000Y-48300000D03*
X44200000Y-36300000D03*
X49200000Y-34300000D03*
X44200000Y-40300000D03*
X49200000Y-30300000D03*
%TD*%
D16*
%TO.P,USBC1,*%
%TO.N,*%
X44592500Y-10805000D03*
X44592500Y-16585000D03*
D17*
%TO.P,USBC1,1,SHIELD*%
%TO.N,GND*%
X44092500Y-18015000D03*
D18*
%TO.P,USBC1,2,SHIELD*%
X48272500Y-18015000D03*
%TO.P,USBC1,3,SHIELD*%
X48272500Y-9375000D03*
D17*
%TO.P,USBC1,4,SHIELD*%
X44092500Y-9375000D03*
%TD*%
D19*
%TO.N,+3V3*%
X16100000Y-22900000D03*
X8700000Y-22800000D03*
X8500000Y-16100000D03*
%TO.N,GND*%
X24150000Y-13400000D03*
X35200000Y-34600000D03*
X21150000Y-34900000D03*
X32579500Y-35100000D03*
X46033260Y-13000028D03*
X19450000Y-18250000D03*
X12250000Y-1050000D03*
X5850000Y-14600000D03*
X2850000Y-950000D03*
X16900000Y-12150000D03*
X10750000Y-19050000D03*
X26200000Y-43500000D03*
X4300000Y-41700000D03*
X1550000Y-14400000D03*
X3600000Y-31100000D03*
X6150000Y-12000000D03*
X1800000Y-25800000D03*
X48600000Y-900000D03*
X1700000Y-44400000D03*
X13000000Y-7500000D03*
X35200000Y-41600000D03*
X18600000Y-13800000D03*
X31250000Y-30150000D03*
X6600000Y-27700000D03*
X25050000Y-29950000D03*
X13400000Y-48300000D03*
X44500000Y-4200000D03*
X35300000Y-46100000D03*
X29600000Y-46300000D03*
X35200000Y-36700000D03*
X14000000Y-34700000D03*
X24500000Y-44300000D03*
X8500000Y-39800000D03*
X41700000Y-12650000D03*
X19350000Y-15350000D03*
X29300000Y-39900000D03*
X25300000Y-27750000D03*
X14600000Y-29400000D03*
X2950000Y-5150000D03*
X8650000Y-19000000D03*
X25700000Y-21650000D03*
X35200000Y-44000000D03*
X19700000Y-33000000D03*
X8600000Y-36700000D03*
X5900000Y-30800000D03*
X7000000Y-33300000D03*
X30000000Y-9900000D03*
X41300000Y-20350000D03*
X18300000Y-44700000D03*
X31200000Y-45500000D03*
X21950000Y-39600000D03*
X25500000Y-23550000D03*
X33000000Y-17300000D03*
X8200000Y-48100000D03*
X13400000Y-39400000D03*
X18700000Y-48600000D03*
X1150000Y-8900000D03*
X20800000Y-45600000D03*
X38730135Y-28423863D03*
X32579500Y-39807727D03*
X42250000Y-17750000D03*
X31900000Y-23050000D03*
X9000000Y-29800000D03*
X8200000Y-44800000D03*
X12150000Y-4550000D03*
X33650000Y-27700000D03*
X10075332Y-24724500D03*
X40300000Y-28400000D03*
X1700000Y-47350000D03*
X16200000Y-37200000D03*
X24600000Y-34700000D03*
X19400000Y-23200000D03*
X2000000Y-35300000D03*
X5000000Y-37600000D03*
X26900000Y-37500000D03*
X13000000Y-25400000D03*
X48400000Y-16600000D03*
X31900000Y-46400000D03*
X3850000Y-39550000D03*
X23700000Y-9650000D03*
X13700000Y-45000000D03*
X22600000Y-42700000D03*
X38900000Y-25700000D03*
X16800000Y-14600000D03*
X12300000Y-21800000D03*
X30450000Y-21700000D03*
X32579500Y-37300000D03*
X48350000Y-10900000D03*
X1350000Y-41400000D03*
X36200000Y-13200000D03*
X1900000Y-29100000D03*
X34350000Y-20650000D03*
X1200000Y-18300000D03*
X10350000Y-11750000D03*
X46500000Y-28450000D03*
X33500000Y-13450000D03*
X35200000Y-39000000D03*
X42150000Y-28950000D03*
X10900000Y-35000000D03*
X29159011Y-43378394D03*
X35000000Y-9900000D03*
X24000000Y-17850000D03*
X12438427Y-12029500D03*
X13000000Y-29600000D03*
X14171665Y-10470500D03*
%TO.N,+3V3*%
X40700000Y-26100000D03*
X14000000Y-40800000D03*
X19600000Y-25900000D03*
X20795489Y-30695489D03*
X1800000Y-46000000D03*
X44355522Y-7172819D03*
%TO.N,15V*%
X40400000Y-8200000D03*
X5000000Y-18349011D03*
X13200000Y-5600000D03*
%TO.N,Net-(C11-Pad2)*%
X6500000Y-19200000D03*
X3300000Y-19200000D03*
%TO.N,CANH*%
X14931630Y-17695500D03*
%TO.N,CANL*%
X16100000Y-18000000D03*
%TO.N,DTR*%
X46100000Y-8500000D03*
X46882283Y-27272403D03*
%TO.N,RTS*%
X46500000Y-9400000D03*
X47000000Y-26300000D03*
X46169520Y-11230480D03*
X48900000Y-2800000D03*
%TO.N,Net-(Q2-Pad1)*%
X48270500Y-6700000D03*
X45810387Y-3594417D03*
%TO.N,EN*%
X23079456Y-11397757D03*
X34951978Y-22442199D03*
X47200000Y-1800000D03*
X39445978Y-27510000D03*
%TO.N,IO0*%
X40718033Y-24557825D03*
X47100000Y-5200000D03*
%TO.N,GPIO15_SD_CMD*%
X34296607Y-23799066D03*
X15300000Y-31400000D03*
%TO.N,Net-(J4-Pad4)*%
X15400000Y-30300000D03*
X20777936Y-29393510D03*
%TO.N,GPIO2_SD_DAT0*%
X35240989Y-24058996D03*
X15300000Y-26900000D03*
%TO.N,LORA_CLK*%
X27189947Y-42171743D03*
X23800000Y-21118033D03*
%TO.N,LORA_MISO*%
X28204596Y-42565240D03*
X23800000Y-22097536D03*
%TO.N,LORA_MOSI*%
X23800000Y-23077039D03*
X29693106Y-42072606D03*
%TO.N,GPS_RX*%
X36496707Y-20809008D03*
X24100000Y-46200000D03*
%TO.N,GPS_TX*%
X25500000Y-46200000D03*
X36833013Y-19889050D03*
%TO.N,I2S_SDA*%
X36700000Y-18200000D03*
X43120500Y-3885820D03*
%TO.N,I2S_SCL*%
X43200000Y-2879500D03*
X36900000Y-17000000D03*
%TO.N,CAN_TX*%
X33082185Y-19354622D03*
X13600000Y-19600000D03*
%TO.N,CAN_RX*%
X31800000Y-18700000D03*
X17386696Y-18786696D03*
%TO.N,LORA_RESET*%
X29216940Y-34448944D03*
X36300000Y-11429500D03*
%TO.N,USB_DP*%
X44700000Y-14500000D03*
X44642505Y-12817692D03*
%TO.N,+5V*%
X45300000Y-11900000D03*
X45300000Y-27300000D03*
X46640989Y-19732204D03*
X44966626Y-15442516D03*
%TO.N,Net-(C6-Pad2)*%
X15279151Y-28379500D03*
X20970500Y-26867558D03*
%TO.N,SD_DETECT*%
X17617105Y-24111853D03*
X22088529Y-25615438D03*
%TO.N,VBAT_3V*%
X13900000Y-43100000D03*
%TO.N,LORA_TX_EN*%
X36300000Y-21900000D03*
X27400000Y-34600000D03*
%TO.N,LORA_NSS*%
X33400000Y-46000000D03*
X36092694Y-19247683D03*
%TD*%
D20*
%TO.N,+3V3*%
X21800000Y-29690978D02*
X20795489Y-30695489D01*
X21800000Y-26500000D02*
X21800000Y-29690978D01*
D21*
%TO.N,Net-(C6-Pad2)*%
X15279151Y-28379500D02*
X19458558Y-28379500D01*
D20*
%TO.N,+3V3*%
X19600000Y-25900000D02*
X21200000Y-25900000D01*
D21*
%TO.N,LORA_CLK*%
X22640979Y-37622775D02*
X27189947Y-42171743D01*
D20*
%TO.N,+3V3*%
X21200000Y-25900000D02*
X21800000Y-26500000D01*
D21*
%TO.N,LORA_CLK*%
X22640979Y-26023949D02*
X22640979Y-37622775D01*
X22690328Y-25256276D02*
X22768030Y-25333978D01*
X23800000Y-21118033D02*
X22690328Y-22227705D01*
%TO.N,SD_DETECT*%
X21673091Y-25200000D02*
X22088529Y-25615438D01*
X18705252Y-25200000D02*
X21673091Y-25200000D01*
X17617105Y-24111853D02*
X18705252Y-25200000D01*
%TO.N,LORA_CLK*%
X22690328Y-22227705D02*
X22690328Y-25256276D01*
X22768030Y-25896898D02*
X22640979Y-26023949D01*
%TO.N,LORA_MOSI*%
X23400001Y-26338346D02*
X23400001Y-35779501D01*
%TO.N,LORA_MISO*%
X23147538Y-26054100D02*
X23020490Y-26181147D01*
X23147538Y-25176783D02*
X23147538Y-26054100D01*
X23069839Y-25099083D02*
X23147538Y-25176783D01*
%TO.N,LORA_MOSI*%
X23800000Y-25938347D02*
X23400001Y-26338346D01*
X23400001Y-35779501D02*
X29693106Y-42072606D01*
%TO.N,LORA_MISO*%
X28204596Y-42141306D02*
X28204596Y-42565240D01*
X23800000Y-22097536D02*
X23069839Y-22827697D01*
%TO.N,Net-(C6-Pad2)*%
X19458558Y-28379500D02*
X20970500Y-26867558D01*
%TO.N,LORA_MISO*%
X23069839Y-22827697D02*
X23069839Y-25099083D01*
X23020490Y-26181147D02*
X23020490Y-36957200D01*
X23020490Y-36957200D02*
X28204596Y-42141306D01*
%TO.N,LORA_MOSI*%
X23800000Y-23077039D02*
X23800000Y-25938347D01*
%TO.N,LORA_CLK*%
X22768030Y-25333978D02*
X22768030Y-25896898D01*
D20*
%TO.N,+3V3*%
X16000000Y-22900000D02*
X16100000Y-22900000D01*
X8800000Y-22900000D02*
X16000000Y-22900000D01*
X8700000Y-22800000D02*
X8800000Y-22900000D01*
X7700000Y-17500000D02*
X7700000Y-21800000D01*
X7700000Y-21800000D02*
X8700000Y-22800000D01*
X8500000Y-16700000D02*
X7700000Y-17500000D01*
X8500000Y-16100000D02*
X8500000Y-16700000D01*
D21*
X40038533Y-25438533D02*
X40700000Y-26100000D01*
X44355522Y-7172819D02*
X44105566Y-7172819D01*
X9363290Y-46000000D02*
X14000000Y-41363290D01*
X40038533Y-11239852D02*
X40038533Y-25438533D01*
X14000000Y-41363290D02*
X14000000Y-40800000D01*
X44105566Y-7172819D02*
X40038533Y-11239852D01*
X1800000Y-46000000D02*
X9363290Y-46000000D01*
%TO.N,15V*%
X39900000Y-8700000D02*
X40400000Y-8200000D01*
D22*
X13200000Y-5600000D02*
X5300000Y-5600000D01*
X4400000Y-6500000D02*
X4400000Y-17749011D01*
X5300000Y-5600000D02*
X4400000Y-6500000D01*
X4400000Y-17749011D02*
X5000000Y-18349011D01*
D21*
X13200000Y-5600000D02*
X16300000Y-8700000D01*
X16300000Y-8700000D02*
X39900000Y-8700000D01*
D22*
%TO.N,Net-(C11-Pad2)*%
X3300000Y-19200000D02*
X6500000Y-19200000D01*
%TO.N,CANH*%
X8100000Y-9700000D02*
X8100000Y-11600000D01*
X8100000Y-11600000D02*
X14195500Y-17695500D01*
X14195500Y-17695500D02*
X14931630Y-17695500D01*
%TO.N,CANL*%
X5600000Y-9707420D02*
X14292580Y-18400000D01*
X14292580Y-18400000D02*
X15700000Y-18400000D01*
X5600000Y-9700000D02*
X5600000Y-9707420D01*
X15700000Y-18400000D02*
X16100000Y-18000000D01*
D21*
%TO.N,DTR*%
X47092272Y-18337179D02*
X47092272Y-10953233D01*
X47443571Y-18673192D02*
X47428285Y-18673192D01*
X45820499Y-8779501D02*
X46100000Y-8500000D01*
X47188558Y-27272403D02*
X47700000Y-26760961D01*
X47700000Y-26760961D02*
X47700000Y-18929621D01*
X47428285Y-18673192D02*
X47092272Y-18337179D01*
X47700000Y-18929621D02*
X47443571Y-18673192D01*
X47092272Y-10953233D02*
X45820499Y-9681460D01*
X46882283Y-27272403D02*
X47188558Y-27272403D01*
X45820499Y-9681460D02*
X45820499Y-8779501D01*
%TO.N,RTS*%
X49500000Y-7300000D02*
X48204520Y-8595480D01*
X47320489Y-19102106D02*
X46700000Y-18481617D01*
X46712761Y-13281488D02*
X46712761Y-12718568D01*
X48900000Y-2800000D02*
X49500000Y-3400000D01*
X47304520Y-8595480D02*
X46500000Y-9400000D01*
X46700000Y-18481617D02*
X46700000Y-13294249D01*
X47320489Y-25979511D02*
X47320489Y-19102106D01*
X49500000Y-3400000D02*
X49500000Y-7300000D01*
X47000000Y-26300000D02*
X47320489Y-25979511D01*
X46700000Y-11760960D02*
X46169520Y-11230480D01*
X46700000Y-12705807D02*
X46700000Y-11760960D01*
X48204520Y-8595480D02*
X47304520Y-8595480D01*
X46700000Y-13294249D02*
X46712761Y-13281488D01*
X46712761Y-12718568D02*
X46700000Y-12705807D01*
%TO.N,Net-(Q2-Pad1)*%
X48400000Y-6570500D02*
X48270500Y-6700000D01*
X47494417Y-3594417D02*
X48400000Y-4500000D01*
X45810387Y-3594417D02*
X47494417Y-3594417D01*
X48400000Y-4500000D02*
X48400000Y-6570500D01*
%TO.N,EN*%
X34450000Y-11150000D02*
X34450000Y-19126708D01*
X39659022Y-27296956D02*
X39445978Y-27510000D01*
X43420489Y-7321185D02*
X39659022Y-11082654D01*
X23327213Y-11150000D02*
X34450000Y-11150000D01*
X23079456Y-11397757D02*
X23327213Y-11150000D01*
X43800000Y-6767380D02*
X43420489Y-7146891D01*
X34450000Y-19126708D02*
X35120489Y-19797197D01*
X35120489Y-19797197D02*
X35120489Y-22273688D01*
X43800000Y-3600000D02*
X43800000Y-6767380D01*
X35120489Y-22273688D02*
X34951978Y-22442199D01*
X43420489Y-7146891D02*
X43420489Y-7321185D01*
X47200000Y-1800000D02*
X45600000Y-1800000D01*
X39659022Y-11082654D02*
X39659022Y-27296956D01*
X45600000Y-1800000D02*
X43800000Y-3600000D01*
%TO.N,IO0*%
X40418044Y-11397051D02*
X40418044Y-24257836D01*
X46966460Y-5227420D02*
X47072580Y-5227420D01*
X46966460Y-5591572D02*
X44658032Y-7900000D01*
X44658032Y-7900000D02*
X43915093Y-7900000D01*
X47072580Y-5227420D02*
X47100000Y-5200000D01*
X43915093Y-7900000D02*
X40418044Y-11397051D01*
X40418044Y-24257836D02*
X40718033Y-24557825D01*
X46966460Y-5227420D02*
X46966460Y-5591572D01*
%TO.N,GPIO15_SD_CMD*%
X30936074Y-20438533D02*
X34296607Y-23799066D01*
X14900000Y-27700000D02*
X15500000Y-27700000D01*
X16200000Y-24567997D02*
X20329464Y-20438533D01*
X13900000Y-30000000D02*
X13900000Y-28700000D01*
X15300000Y-31400000D02*
X13900000Y-30000000D01*
X15500000Y-27700000D02*
X16200000Y-27000000D01*
X20329464Y-20438533D02*
X30936074Y-20438533D01*
X13900000Y-28700000D02*
X14900000Y-27700000D01*
X16200000Y-27000000D02*
X16200000Y-24567997D01*
%TO.N,Net-(J4-Pad4)*%
X20777936Y-29393510D02*
X19871446Y-30300000D01*
X15400000Y-30300000D02*
X18190989Y-30300000D01*
X19871446Y-30300000D02*
X18190989Y-30300000D01*
%TO.N,GPIO2_SD_DAT0*%
X20172266Y-20059022D02*
X31607840Y-20059022D01*
X35240989Y-23404279D02*
X35240989Y-24058996D01*
X34670518Y-23121700D02*
X34958410Y-23121700D01*
X31607840Y-20059022D02*
X34670518Y-23121700D01*
X15820489Y-26379511D02*
X15820489Y-24410798D01*
X15820489Y-24410798D02*
X20172266Y-20059022D01*
X15300000Y-26900000D02*
X15820489Y-26379511D01*
X34958410Y-23121700D02*
X35240989Y-23404279D01*
%TO.N,GPS_RX*%
X36496707Y-20809008D02*
X37279511Y-21591812D01*
X29529511Y-44770489D02*
X25529511Y-44770489D01*
X31100000Y-43200000D02*
X29529511Y-44770489D01*
X25529511Y-44770489D02*
X24100000Y-46200000D01*
X31100000Y-33626580D02*
X31100000Y-43200000D01*
X37279511Y-27447069D02*
X31100000Y-33626580D01*
X37279511Y-21591812D02*
X37279511Y-27447069D01*
%TO.N,GPS_TX*%
X25500000Y-46200000D02*
X25500000Y-45700000D01*
X31479511Y-43357198D02*
X31479511Y-33783779D01*
X37659022Y-27604268D02*
X37659022Y-20715059D01*
X26050000Y-45150000D02*
X29686710Y-45150000D01*
X37659022Y-20715059D02*
X36833013Y-19889050D01*
X31479511Y-33783779D02*
X37659022Y-27604268D01*
X29686710Y-45150000D02*
X31479511Y-43357198D01*
X25500000Y-45700000D02*
X26050000Y-45150000D01*
%TO.N,I2S_SDA*%
X36700000Y-18200000D02*
X36736709Y-18200000D01*
X43040978Y-3965342D02*
X43120500Y-3885820D01*
X39279511Y-15657198D02*
X39279511Y-10925454D01*
X43040978Y-7163986D02*
X43040978Y-3965342D01*
X39279511Y-10925454D02*
X43040978Y-7163986D01*
X36736709Y-18200000D02*
X39279511Y-15657198D01*
%TO.N,I2S_SCL*%
X42440999Y-3604360D02*
X43165859Y-2879500D01*
X42640999Y-4367280D02*
X42440999Y-4167280D01*
X37400000Y-17000000D02*
X38900000Y-15500000D01*
X38900000Y-15500000D02*
X38900000Y-10768255D01*
X42440999Y-4167280D02*
X42440999Y-3604360D01*
X36900000Y-17000000D02*
X37400000Y-17000000D01*
X38900000Y-10768255D02*
X42640999Y-7027256D01*
X43165859Y-2879500D02*
X43200000Y-2879500D01*
X42640999Y-7027256D02*
X42640999Y-4367280D01*
%TO.N,CAN_TX*%
X13600000Y-19600000D02*
X17663291Y-19600000D01*
X17663291Y-19600000D02*
X17742802Y-19679511D01*
X32757296Y-19679511D02*
X33082185Y-19354622D01*
X17742802Y-19679511D02*
X32757296Y-19679511D01*
%TO.N,CAN_RX*%
X31200000Y-19300000D02*
X17900000Y-19300000D01*
X31800000Y-18700000D02*
X31200000Y-19300000D01*
X17900000Y-19300000D02*
X17386696Y-18786696D01*
%TO.N,LORA_RESET*%
X35620499Y-22257209D02*
X36520489Y-23157199D01*
X36520489Y-27132671D02*
X29520489Y-34132672D01*
X29520489Y-34145395D02*
X29216940Y-34448944D01*
X35413194Y-19553305D02*
X35620499Y-19760610D01*
X35413194Y-12316306D02*
X35413194Y-19553305D01*
X35620499Y-19760610D02*
X35620499Y-22257209D01*
X36300000Y-11429500D02*
X35413194Y-12316306D01*
X36520489Y-23157199D02*
X36520489Y-27132671D01*
X29520489Y-34132672D02*
X29520489Y-34145395D01*
%TO.N,USB_DP*%
X44642505Y-14442505D02*
X44700000Y-14500000D01*
X44642505Y-12817692D02*
X44642505Y-14442505D01*
%TO.N,+5V*%
X45300000Y-27300000D02*
X45300000Y-26600000D01*
X45322006Y-14838955D02*
X45322006Y-15087136D01*
X45300000Y-26600000D02*
X46940978Y-24959022D01*
X45379501Y-14118540D02*
X45379501Y-14781460D01*
X45300000Y-11900000D02*
X45322006Y-11922006D01*
X45322006Y-11922006D02*
X45322006Y-14061045D01*
X46940978Y-20032193D02*
X46640989Y-19732204D01*
X45322006Y-15087136D02*
X44966626Y-15442516D01*
X46640989Y-19732204D02*
X46640989Y-18959316D01*
X45379501Y-14781460D02*
X45322006Y-14838955D01*
X46320489Y-18638816D02*
X46320489Y-16796379D01*
X46640989Y-18959316D02*
X46320489Y-18638816D01*
X46320489Y-16796379D02*
X44966626Y-15442516D01*
X45322006Y-14061045D02*
X45379501Y-14118540D01*
X46940978Y-24959022D02*
X46940978Y-20032193D01*
%TO.N,VBAT_3V*%
X9500000Y-46400000D02*
X12800000Y-43100000D01*
X6100000Y-46400000D02*
X9500000Y-46400000D01*
X12800000Y-43100000D02*
X13900000Y-43100000D01*
X3700000Y-48800000D02*
X6100000Y-46400000D01*
%TO.N,LORA_TX_EN*%
X36900000Y-27289870D02*
X29900000Y-34289870D01*
X36400000Y-22000000D02*
X36400000Y-22500000D01*
X36900000Y-23000001D02*
X36900000Y-27289870D01*
X36300000Y-21900000D02*
X36400000Y-22000000D01*
X29200000Y-35500000D02*
X28300000Y-35500000D01*
X28300000Y-35500000D02*
X27400000Y-34600000D01*
X36400000Y-22500000D02*
X36900000Y-23000001D01*
X29900000Y-34800000D02*
X29200000Y-35500000D01*
X29900000Y-34289870D02*
X29900000Y-34800000D01*
%TO.N,LORA_NSS*%
X31900000Y-33900000D02*
X31900000Y-45000000D01*
X32900000Y-46000000D02*
X33400000Y-46000000D01*
X38038533Y-20133611D02*
X38038533Y-27761467D01*
X36146576Y-19193801D02*
X37098723Y-19193801D01*
X36092694Y-19247683D02*
X36146576Y-19193801D01*
X38038533Y-27761467D02*
X31900000Y-33900000D01*
X31900000Y-45000000D02*
X32900000Y-46000000D01*
X37098723Y-19193801D02*
X38038533Y-20133611D01*
%TD*%
%TA.AperFunction,Conductor*%
%TO.N,GND*%
G36*
X15759191Y-268907D02*
G01*
X15795155Y-318407D01*
X15800000Y-349000D01*
X15800000Y-7000000D01*
X41933565Y-7000000D01*
X41991756Y-7018907D01*
X42027720Y-7068407D01*
X42027720Y-7129593D01*
X42003569Y-7169004D01*
X41170151Y-8002422D01*
X41115634Y-8030199D01*
X41055202Y-8020628D01*
X41011937Y-7977363D01*
X41007538Y-7967411D01*
X40982821Y-7901999D01*
X40980710Y-7896412D01*
X40891531Y-7766657D01*
X40887078Y-7762690D01*
X40887075Y-7762686D01*
X40802024Y-7686909D01*
X40773976Y-7661919D01*
X40761462Y-7655293D01*
X40640105Y-7591037D01*
X40640102Y-7591036D01*
X40634831Y-7588245D01*
X40533629Y-7562825D01*
X40487918Y-7551343D01*
X40487915Y-7551343D01*
X40482128Y-7549889D01*
X40402564Y-7549473D01*
X40330650Y-7549096D01*
X40330648Y-7549096D01*
X40324684Y-7549065D01*
X40171588Y-7585820D01*
X40099035Y-7623267D01*
X40036985Y-7655293D01*
X40036983Y-7655295D01*
X40031679Y-7658032D01*
X39913034Y-7761533D01*
X39822501Y-7890348D01*
X39765309Y-8037039D01*
X39764531Y-8042950D01*
X39764530Y-8042953D01*
X39760762Y-8071576D01*
X39744758Y-8193138D01*
X39745413Y-8199071D01*
X39745413Y-8199075D01*
X39749891Y-8239637D01*
X39737483Y-8299551D01*
X39692228Y-8340729D01*
X39651489Y-8349500D01*
X16486190Y-8349500D01*
X16427999Y-8330593D01*
X16416186Y-8320504D01*
X13871956Y-5776274D01*
X13844179Y-5721757D01*
X13843948Y-5692321D01*
X13854678Y-5616929D01*
X13854678Y-5616925D01*
X13855134Y-5613723D01*
X13855278Y-5600000D01*
X13836363Y-5443694D01*
X13780710Y-5296412D01*
X13714447Y-5200000D01*
X13694912Y-5171576D01*
X13694911Y-5171575D01*
X13691531Y-5166657D01*
X13687078Y-5162690D01*
X13687075Y-5162686D01*
X13619557Y-5102531D01*
X13573976Y-5061919D01*
X13550740Y-5049616D01*
X13440105Y-4991037D01*
X13440102Y-4991036D01*
X13434831Y-4988245D01*
X13358480Y-4969067D01*
X13287918Y-4951343D01*
X13287915Y-4951343D01*
X13282128Y-4949889D01*
X13202564Y-4949473D01*
X13130650Y-4949096D01*
X13130648Y-4949096D01*
X13124684Y-4949065D01*
X12971588Y-4985820D01*
X12899035Y-5023267D01*
X12836985Y-5055293D01*
X12836983Y-5055295D01*
X12831679Y-5058032D01*
X12713034Y-5161533D01*
X12709605Y-5166412D01*
X12698350Y-5182426D01*
X12649420Y-5219163D01*
X12617353Y-5224500D01*
X5350619Y-5224500D01*
X5329782Y-5222282D01*
X5325934Y-5221453D01*
X5325931Y-5221453D01*
X5317933Y-5219731D01*
X5284842Y-5223647D01*
X5283435Y-5223814D01*
X5275616Y-5224275D01*
X5272892Y-5224500D01*
X5268807Y-5224500D01*
X5264781Y-5225170D01*
X5264770Y-5225171D01*
X5249367Y-5227735D01*
X5244755Y-5228392D01*
X5226540Y-5230548D01*
X5201916Y-5233462D01*
X5201915Y-5233462D01*
X5193790Y-5234424D01*
X5186895Y-5237735D01*
X5184230Y-5238578D01*
X5176687Y-5239833D01*
X5131493Y-5264219D01*
X5127384Y-5266312D01*
X5081100Y-5288537D01*
X5076869Y-5292094D01*
X5075360Y-5293603D01*
X5074466Y-5294423D01*
X5072608Y-5295991D01*
X5066671Y-5299194D01*
X5030130Y-5338724D01*
X5027436Y-5341527D01*
X4170275Y-6198688D01*
X4153975Y-6211852D01*
X4143790Y-6218428D01*
X4122281Y-6245711D01*
X4117036Y-6251615D01*
X4115305Y-6253658D01*
X4112425Y-6256538D01*
X4110055Y-6259854D01*
X4110052Y-6259858D01*
X4100976Y-6272559D01*
X4098179Y-6276285D01*
X4066397Y-6316600D01*
X4063862Y-6323818D01*
X4062576Y-6326295D01*
X4058128Y-6332519D01*
X4055783Y-6340360D01*
X4055782Y-6340362D01*
X4043425Y-6381682D01*
X4041984Y-6386118D01*
X4024977Y-6434548D01*
X4024500Y-6440055D01*
X4024500Y-6442193D01*
X4024448Y-6443399D01*
X4024242Y-6445825D01*
X4022310Y-6452287D01*
X4022631Y-6460459D01*
X4022631Y-6460460D01*
X4024424Y-6506090D01*
X4024500Y-6509977D01*
X4024500Y-8419786D01*
X4005593Y-8477977D01*
X3956093Y-8513941D01*
X3890748Y-8512486D01*
X3814287Y-8483822D01*
X3802298Y-8480971D01*
X3749991Y-8475289D01*
X3744657Y-8475000D01*
X3240680Y-8475000D01*
X3227995Y-8479122D01*
X3225000Y-8483243D01*
X3225000Y-10909320D01*
X3229122Y-10922005D01*
X3233243Y-10925000D01*
X3744657Y-10925000D01*
X3749991Y-10924711D01*
X3802298Y-10919029D01*
X3814287Y-10916178D01*
X3890748Y-10887514D01*
X3951873Y-10884791D01*
X4002924Y-10918517D01*
X4024500Y-10980214D01*
X4024500Y-17698387D01*
X4022283Y-17719223D01*
X4019731Y-17731077D01*
X4020692Y-17739198D01*
X4020692Y-17739201D01*
X4023814Y-17765575D01*
X4024275Y-17773398D01*
X4024500Y-17776121D01*
X4024500Y-17780204D01*
X4025170Y-17784230D01*
X4025171Y-17784241D01*
X4027735Y-17799644D01*
X4028391Y-17804251D01*
X4034424Y-17855221D01*
X4037735Y-17862116D01*
X4038578Y-17864781D01*
X4039833Y-17872324D01*
X4064219Y-17917518D01*
X4066312Y-17921627D01*
X4088537Y-17967911D01*
X4092094Y-17972142D01*
X4093603Y-17973651D01*
X4094423Y-17974545D01*
X4095991Y-17976403D01*
X4099194Y-17982340D01*
X4114824Y-17996788D01*
X4138724Y-18018881D01*
X4141527Y-18021575D01*
X4323888Y-18203936D01*
X4351665Y-18258453D01*
X4352037Y-18286859D01*
X4344758Y-18342149D01*
X4345413Y-18348082D01*
X4345413Y-18348086D01*
X4359650Y-18477044D01*
X4362035Y-18498644D01*
X4368270Y-18515683D01*
X4413577Y-18639488D01*
X4416143Y-18646501D01*
X4430544Y-18667931D01*
X4432124Y-18670283D01*
X4448887Y-18729127D01*
X4427860Y-18786586D01*
X4377075Y-18820712D01*
X4349953Y-18824500D01*
X3883372Y-18824500D01*
X3825181Y-18805593D01*
X3801784Y-18781575D01*
X3794912Y-18771576D01*
X3794911Y-18771575D01*
X3791531Y-18766657D01*
X3787078Y-18762690D01*
X3787075Y-18762686D01*
X3706115Y-18690554D01*
X3673976Y-18661919D01*
X3661462Y-18655293D01*
X3540105Y-18591037D01*
X3540102Y-18591036D01*
X3534831Y-18588245D01*
X3458480Y-18569067D01*
X3387918Y-18551343D01*
X3387915Y-18551343D01*
X3382128Y-18549889D01*
X3302564Y-18549473D01*
X3230650Y-18549096D01*
X3230648Y-18549096D01*
X3224684Y-18549065D01*
X3071588Y-18585820D01*
X3017267Y-18613857D01*
X2936985Y-18655293D01*
X2936983Y-18655295D01*
X2931679Y-18658032D01*
X2813034Y-18761533D01*
X2722501Y-18890348D01*
X2720334Y-18895906D01*
X2718541Y-18900506D01*
X2665309Y-19037039D01*
X2664531Y-19042950D01*
X2664530Y-19042953D01*
X2659840Y-19078580D01*
X2644758Y-19193138D01*
X2645413Y-19199071D01*
X2645413Y-19199075D01*
X2656352Y-19298156D01*
X2662035Y-19349633D01*
X2664087Y-19355240D01*
X2690754Y-19428110D01*
X2716143Y-19497490D01*
X2719472Y-19502444D01*
X2800629Y-19623219D01*
X2800631Y-19623221D01*
X2803958Y-19628172D01*
X2808369Y-19632186D01*
X2808371Y-19632188D01*
X2915995Y-19730118D01*
X2920410Y-19734135D01*
X2989593Y-19771699D01*
X3053530Y-19806414D01*
X3053532Y-19806415D01*
X3058776Y-19809262D01*
X3138534Y-19830186D01*
X3205300Y-19847702D01*
X3205304Y-19847702D01*
X3211069Y-19849215D01*
X3217030Y-19849309D01*
X3217033Y-19849309D01*
X3289782Y-19850451D01*
X3368495Y-19851688D01*
X3385899Y-19847702D01*
X3516149Y-19817871D01*
X3516151Y-19817870D01*
X3521968Y-19816538D01*
X3527299Y-19813857D01*
X3657299Y-19748474D01*
X3657301Y-19748473D01*
X3662625Y-19745795D01*
X3782348Y-19643542D01*
X3801616Y-19616728D01*
X3850924Y-19580507D01*
X3882010Y-19575500D01*
X5915814Y-19575500D01*
X5974005Y-19594407D01*
X5997984Y-19619282D01*
X6003958Y-19628172D01*
X6008369Y-19632186D01*
X6008371Y-19632188D01*
X6115995Y-19730118D01*
X6120410Y-19734135D01*
X6189593Y-19771699D01*
X6253530Y-19806414D01*
X6253532Y-19806415D01*
X6258776Y-19809262D01*
X6338534Y-19830186D01*
X6405300Y-19847702D01*
X6405304Y-19847702D01*
X6411069Y-19849215D01*
X6417030Y-19849309D01*
X6417033Y-19849309D01*
X6489782Y-19850451D01*
X6568495Y-19851688D01*
X6585899Y-19847702D01*
X6716149Y-19817871D01*
X6716151Y-19817870D01*
X6721968Y-19816538D01*
X6727299Y-19813857D01*
X6857299Y-19748474D01*
X6857301Y-19748473D01*
X6862625Y-19745795D01*
X6879621Y-19731279D01*
X6977810Y-19647418D01*
X6977811Y-19647417D01*
X6982348Y-19643542D01*
X7020104Y-19590999D01*
X7069415Y-19554777D01*
X7130599Y-19554457D01*
X7180287Y-19590161D01*
X7199500Y-19648770D01*
X7199500Y-21732834D01*
X7198081Y-21745535D01*
X7198103Y-21745537D01*
X7197537Y-21752569D01*
X7195981Y-21759447D01*
X7198122Y-21793948D01*
X7199310Y-21813102D01*
X7199500Y-21819233D01*
X7199500Y-21835940D01*
X7199999Y-21839427D01*
X7200000Y-21839435D01*
X7201101Y-21847121D01*
X7201911Y-21855024D01*
X7204859Y-21902538D01*
X7207252Y-21909167D01*
X7207253Y-21909171D01*
X7208342Y-21912187D01*
X7213223Y-21931763D01*
X7214677Y-21941918D01*
X7217596Y-21948337D01*
X7217597Y-21948342D01*
X7234381Y-21985257D01*
X7237377Y-21992615D01*
X7253540Y-22037387D01*
X7259592Y-22045672D01*
X7269768Y-22063086D01*
X7274016Y-22072428D01*
X7280021Y-22079397D01*
X7305093Y-22108495D01*
X7310033Y-22114716D01*
X7318522Y-22126336D01*
X7329986Y-22137800D01*
X7334981Y-22143181D01*
X7355170Y-22166611D01*
X7367600Y-22181037D01*
X7373520Y-22184874D01*
X7374811Y-22185711D01*
X7390968Y-22198782D01*
X8027551Y-22835365D01*
X8055949Y-22894505D01*
X8058845Y-22920733D01*
X8062035Y-22949633D01*
X8064085Y-22955235D01*
X8064086Y-22955239D01*
X8114091Y-23091884D01*
X8116143Y-23097490D01*
X8119472Y-23102444D01*
X8200629Y-23223219D01*
X8200632Y-23223223D01*
X8203958Y-23228172D01*
X8208369Y-23232186D01*
X8208371Y-23232188D01*
X8313560Y-23327902D01*
X8320410Y-23334135D01*
X8358586Y-23354863D01*
X8453530Y-23406414D01*
X8453532Y-23406415D01*
X8458776Y-23409262D01*
X8503588Y-23421018D01*
X8605300Y-23447702D01*
X8605304Y-23447702D01*
X8611069Y-23449215D01*
X8617030Y-23449309D01*
X8617033Y-23449309D01*
X8689782Y-23450452D01*
X8768495Y-23451688D01*
X8812140Y-23441692D01*
X8916149Y-23417871D01*
X8916151Y-23417870D01*
X8921968Y-23416538D01*
X8927303Y-23413855D01*
X8932869Y-23411056D01*
X8977351Y-23400500D01*
X15645145Y-23400500D01*
X15703336Y-23419407D01*
X15711773Y-23426276D01*
X15714789Y-23429020D01*
X15720410Y-23434135D01*
X15725654Y-23436982D01*
X15725655Y-23436983D01*
X15853530Y-23506414D01*
X15853532Y-23506415D01*
X15858776Y-23509262D01*
X15956868Y-23534996D01*
X15983086Y-23541874D01*
X16034574Y-23574929D01*
X16056800Y-23631935D01*
X16041274Y-23691118D01*
X16027967Y-23707638D01*
X15606551Y-24129053D01*
X15590249Y-24142218D01*
X15588215Y-24143531D01*
X15588211Y-24143534D01*
X15581337Y-24147973D01*
X15561504Y-24173130D01*
X15557590Y-24177535D01*
X15557591Y-24177536D01*
X15554938Y-24180667D01*
X15552061Y-24183544D01*
X15541445Y-24198399D01*
X15538659Y-24202110D01*
X15509097Y-24239609D01*
X15506531Y-24246916D01*
X15505884Y-24248161D01*
X15501378Y-24254467D01*
X15499034Y-24262306D01*
X15487697Y-24300213D01*
X15486256Y-24304649D01*
X15470434Y-24349704D01*
X15469989Y-24354842D01*
X15469989Y-24356980D01*
X15469915Y-24358699D01*
X15469800Y-24360060D01*
X15467945Y-24366262D01*
X15468266Y-24374433D01*
X15469913Y-24416352D01*
X15469989Y-24420239D01*
X15469989Y-26150829D01*
X15451082Y-26209020D01*
X15401582Y-26244984D01*
X15370471Y-26249828D01*
X15365553Y-26249802D01*
X15230650Y-26249096D01*
X15230648Y-26249096D01*
X15224684Y-26249065D01*
X15071588Y-26285820D01*
X15057410Y-26293138D01*
X14936985Y-26355293D01*
X14936983Y-26355295D01*
X14931679Y-26358032D01*
X14813034Y-26461533D01*
X14722501Y-26590348D01*
X14665309Y-26737039D01*
X14664531Y-26742950D01*
X14664530Y-26742953D01*
X14656373Y-26804914D01*
X14644758Y-26893138D01*
X14645413Y-26899071D01*
X14645413Y-26899075D01*
X14659181Y-27023786D01*
X14662035Y-27049633D01*
X14664087Y-27055240D01*
X14705359Y-27168020D01*
X14716143Y-27197490D01*
X14719472Y-27202444D01*
X14719474Y-27202448D01*
X14754943Y-27255232D01*
X14771705Y-27314076D01*
X14750678Y-27371535D01*
X14715628Y-27399691D01*
X14695674Y-27409273D01*
X14691726Y-27412592D01*
X14690221Y-27414097D01*
X14688930Y-27415281D01*
X14687902Y-27416148D01*
X14682206Y-27419222D01*
X14676655Y-27425227D01*
X14676650Y-27425231D01*
X14648191Y-27456018D01*
X14645497Y-27458821D01*
X13686063Y-28418255D01*
X13669760Y-28431420D01*
X13667726Y-28432733D01*
X13667722Y-28432736D01*
X13660848Y-28437175D01*
X13641015Y-28462332D01*
X13637101Y-28466737D01*
X13637102Y-28466738D01*
X13634449Y-28469869D01*
X13631572Y-28472746D01*
X13620956Y-28487601D01*
X13618170Y-28491312D01*
X13588608Y-28528811D01*
X13586042Y-28536118D01*
X13585395Y-28537363D01*
X13580889Y-28543669D01*
X13578545Y-28551508D01*
X13567208Y-28589415D01*
X13565767Y-28593851D01*
X13549945Y-28638906D01*
X13549500Y-28644044D01*
X13549500Y-28646182D01*
X13549426Y-28647901D01*
X13549311Y-28649262D01*
X13547456Y-28655464D01*
X13547777Y-28663635D01*
X13549424Y-28705554D01*
X13549500Y-28709441D01*
X13549500Y-29952052D01*
X13547282Y-29972888D01*
X13545049Y-29983261D01*
X13546011Y-29991386D01*
X13548814Y-30015071D01*
X13549161Y-30020963D01*
X13549164Y-30020963D01*
X13549500Y-30025030D01*
X13549500Y-30029115D01*
X13550170Y-30033141D01*
X13550171Y-30033152D01*
X13552496Y-30047119D01*
X13553154Y-30051738D01*
X13557020Y-30084400D01*
X13558764Y-30099138D01*
X13562118Y-30106122D01*
X13562539Y-30107454D01*
X13563812Y-30115103D01*
X13586505Y-30157160D01*
X13588605Y-30161283D01*
X13606580Y-30198717D01*
X13606582Y-30198721D01*
X13609274Y-30204326D01*
X13612592Y-30208274D01*
X13614100Y-30209782D01*
X13615282Y-30211071D01*
X13616148Y-30212097D01*
X13619222Y-30217794D01*
X13625227Y-30223345D01*
X13625231Y-30223350D01*
X13656018Y-30251809D01*
X13658821Y-30254503D01*
X14628001Y-31223683D01*
X14655778Y-31278200D01*
X14656150Y-31306606D01*
X14644758Y-31393138D01*
X14645413Y-31399071D01*
X14645413Y-31399075D01*
X14661330Y-31543251D01*
X14662035Y-31549633D01*
X14716143Y-31697490D01*
X14719472Y-31702444D01*
X14800629Y-31823219D01*
X14800632Y-31823223D01*
X14803958Y-31828172D01*
X14808369Y-31832186D01*
X14808371Y-31832188D01*
X14820849Y-31843542D01*
X14920410Y-31934135D01*
X14941885Y-31945795D01*
X15053530Y-32006414D01*
X15053532Y-32006415D01*
X15058776Y-32009262D01*
X15138534Y-32030186D01*
X15205300Y-32047702D01*
X15205304Y-32047702D01*
X15211069Y-32049215D01*
X15217030Y-32049309D01*
X15217033Y-32049309D01*
X15289782Y-32050452D01*
X15368495Y-32051688D01*
X15385899Y-32047702D01*
X15516149Y-32017871D01*
X15516151Y-32017870D01*
X15521968Y-32016538D01*
X15527299Y-32013857D01*
X15657299Y-31948474D01*
X15657301Y-31948473D01*
X15662625Y-31945795D01*
X15676277Y-31934135D01*
X15777810Y-31847418D01*
X15777811Y-31847417D01*
X15782348Y-31843542D01*
X15874224Y-31715683D01*
X15932950Y-31569598D01*
X15934994Y-31555240D01*
X15954678Y-31416929D01*
X15954678Y-31416925D01*
X15955134Y-31413723D01*
X15955278Y-31400000D01*
X15946725Y-31329322D01*
X15937080Y-31249616D01*
X15937079Y-31249613D01*
X15936363Y-31243694D01*
X15933989Y-31237410D01*
X15882820Y-31101996D01*
X15880710Y-31096412D01*
X15791531Y-30966657D01*
X15787075Y-30962687D01*
X15784291Y-30959529D01*
X15759991Y-30903376D01*
X15773339Y-30843664D01*
X15794257Y-30818779D01*
X15869362Y-30754633D01*
X15882348Y-30743542D01*
X15919580Y-30691728D01*
X15968888Y-30655507D01*
X15999974Y-30650500D01*
X19823498Y-30650500D01*
X19844334Y-30652718D01*
X19845616Y-30652994D01*
X19854707Y-30654951D01*
X19886517Y-30651186D01*
X19892409Y-30650839D01*
X19892409Y-30650836D01*
X19896476Y-30650500D01*
X19900561Y-30650500D01*
X19904587Y-30649830D01*
X19904598Y-30649829D01*
X19918565Y-30647504D01*
X19923172Y-30646848D01*
X19946135Y-30644130D01*
X19962458Y-30642198D01*
X19962459Y-30642198D01*
X19970584Y-30641236D01*
X19977568Y-30637882D01*
X19978900Y-30637461D01*
X19986549Y-30636188D01*
X19996852Y-30630629D01*
X20000680Y-30629930D01*
X20001491Y-30629652D01*
X20001533Y-30629774D01*
X20057041Y-30619637D01*
X20112197Y-30646123D01*
X20141250Y-30699970D01*
X20142263Y-30706892D01*
X20147534Y-30754633D01*
X20157524Y-30845122D01*
X20164830Y-30865087D01*
X20202000Y-30966657D01*
X20211632Y-30992979D01*
X20214961Y-30997933D01*
X20296118Y-31118708D01*
X20296121Y-31118712D01*
X20299447Y-31123661D01*
X20303858Y-31127675D01*
X20303860Y-31127677D01*
X20316338Y-31139031D01*
X20415899Y-31229624D01*
X20468537Y-31258204D01*
X20549019Y-31301903D01*
X20549021Y-31301904D01*
X20554265Y-31304751D01*
X20634023Y-31325675D01*
X20700789Y-31343191D01*
X20700793Y-31343191D01*
X20706558Y-31344704D01*
X20712519Y-31344798D01*
X20712522Y-31344798D01*
X20785271Y-31345941D01*
X20863984Y-31347177D01*
X20881388Y-31343191D01*
X21011638Y-31313360D01*
X21011640Y-31313359D01*
X21017457Y-31312027D01*
X21028230Y-31306609D01*
X21152788Y-31243963D01*
X21152790Y-31243962D01*
X21158114Y-31241284D01*
X21171766Y-31229624D01*
X21273299Y-31142907D01*
X21273300Y-31142906D01*
X21277837Y-31139031D01*
X21369713Y-31011172D01*
X21390474Y-30959529D01*
X21426215Y-30870620D01*
X21426216Y-30870618D01*
X21428439Y-30865087D01*
X21430483Y-30850729D01*
X21439505Y-30787334D01*
X21467513Y-30731279D01*
X22106419Y-30092373D01*
X22116398Y-30084400D01*
X22116383Y-30084383D01*
X22121752Y-30079813D01*
X22127720Y-30076048D01*
X22129297Y-30074262D01*
X22183883Y-30051763D01*
X22243353Y-30066150D01*
X22283009Y-30112744D01*
X22290479Y-30150471D01*
X22290479Y-37574827D01*
X22288261Y-37595663D01*
X22286028Y-37606036D01*
X22286990Y-37614161D01*
X22289793Y-37637846D01*
X22290140Y-37643738D01*
X22290143Y-37643738D01*
X22290479Y-37647805D01*
X22290479Y-37651890D01*
X22291149Y-37655916D01*
X22291150Y-37655927D01*
X22293475Y-37669894D01*
X22294131Y-37674501D01*
X22299743Y-37721913D01*
X22303097Y-37728897D01*
X22303518Y-37730229D01*
X22304791Y-37737878D01*
X22327484Y-37779935D01*
X22329584Y-37784058D01*
X22347559Y-37821492D01*
X22347561Y-37821496D01*
X22350253Y-37827101D01*
X22353571Y-37831049D01*
X22355079Y-37832557D01*
X22356261Y-37833846D01*
X22357127Y-37834872D01*
X22360201Y-37840569D01*
X22366206Y-37846120D01*
X22366210Y-37846125D01*
X22396997Y-37874584D01*
X22399800Y-37877278D01*
X26517948Y-41995426D01*
X26545725Y-42049943D01*
X26546097Y-42078349D01*
X26534705Y-42164881D01*
X26551982Y-42321376D01*
X26554034Y-42326983D01*
X26599000Y-42449858D01*
X26606090Y-42469233D01*
X26609419Y-42474187D01*
X26690576Y-42594962D01*
X26690579Y-42594966D01*
X26693905Y-42599915D01*
X26698316Y-42603929D01*
X26698318Y-42603931D01*
X26793431Y-42690477D01*
X26810357Y-42705878D01*
X26873885Y-42740371D01*
X26943477Y-42778157D01*
X26943479Y-42778158D01*
X26948723Y-42781005D01*
X27028481Y-42801929D01*
X27095247Y-42819445D01*
X27095251Y-42819445D01*
X27101016Y-42820958D01*
X27106977Y-42821052D01*
X27106980Y-42821052D01*
X27179729Y-42822194D01*
X27258442Y-42823431D01*
X27293075Y-42815499D01*
X27406096Y-42789614D01*
X27406098Y-42789613D01*
X27411915Y-42788281D01*
X27423372Y-42782519D01*
X27466002Y-42761078D01*
X27526484Y-42751823D01*
X27580854Y-42779886D01*
X27603455Y-42815499D01*
X27620739Y-42862730D01*
X27624068Y-42867684D01*
X27705225Y-42988459D01*
X27705228Y-42988463D01*
X27708554Y-42993412D01*
X27712965Y-42997426D01*
X27712967Y-42997428D01*
X27820591Y-43095358D01*
X27825006Y-43099375D01*
X27894189Y-43136938D01*
X27958126Y-43171654D01*
X27958128Y-43171655D01*
X27963372Y-43174502D01*
X28043130Y-43195426D01*
X28109896Y-43212942D01*
X28109900Y-43212942D01*
X28115665Y-43214455D01*
X28121626Y-43214549D01*
X28121629Y-43214549D01*
X28194378Y-43215692D01*
X28273091Y-43216928D01*
X28290495Y-43212942D01*
X28420745Y-43183111D01*
X28420747Y-43183110D01*
X28426564Y-43181778D01*
X28431895Y-43179097D01*
X28561895Y-43113714D01*
X28561897Y-43113713D01*
X28567221Y-43111035D01*
X28583902Y-43096788D01*
X28682406Y-43012658D01*
X28682407Y-43012657D01*
X28686944Y-43008782D01*
X28778820Y-42880923D01*
X28788387Y-42857126D01*
X28835322Y-42740371D01*
X28835323Y-42740369D01*
X28837546Y-42734838D01*
X28839237Y-42722962D01*
X28859274Y-42582169D01*
X28859274Y-42582165D01*
X28859730Y-42578963D01*
X28859874Y-42565240D01*
X28851321Y-42494562D01*
X28841676Y-42414856D01*
X28841675Y-42414853D01*
X28840959Y-42408934D01*
X28785306Y-42261652D01*
X28722877Y-42170818D01*
X28699508Y-42136816D01*
X28699507Y-42136815D01*
X28696127Y-42131897D01*
X28691674Y-42127930D01*
X28691671Y-42127926D01*
X28604144Y-42049943D01*
X28578572Y-42027159D01*
X28573301Y-42024368D01*
X28573298Y-42024366D01*
X28553813Y-42014049D01*
X28510895Y-41969411D01*
X28498018Y-41942594D01*
X28498017Y-41942593D01*
X28495322Y-41936980D01*
X28492004Y-41933032D01*
X28490494Y-41931522D01*
X28489314Y-41930235D01*
X28488448Y-41929209D01*
X28485374Y-41923512D01*
X28479369Y-41917961D01*
X28479365Y-41917956D01*
X28448578Y-41889497D01*
X28445775Y-41886803D01*
X23399986Y-36841014D01*
X23372209Y-36786497D01*
X23370990Y-36771010D01*
X23370990Y-36485180D01*
X23389897Y-36426989D01*
X23439397Y-36391025D01*
X23500583Y-36391025D01*
X23539994Y-36415176D01*
X29021107Y-41896289D01*
X29048884Y-41950806D01*
X29049256Y-41979212D01*
X29037864Y-42065744D01*
X29038519Y-42071677D01*
X29038519Y-42071681D01*
X29044729Y-42127926D01*
X29055141Y-42222239D01*
X29062447Y-42242204D01*
X29103565Y-42354563D01*
X29109249Y-42370096D01*
X29112578Y-42375050D01*
X29193735Y-42495825D01*
X29193738Y-42495829D01*
X29197064Y-42500778D01*
X29201475Y-42504792D01*
X29201477Y-42504794D01*
X29300571Y-42594962D01*
X29313516Y-42606741D01*
X29334991Y-42618401D01*
X29446636Y-42679020D01*
X29446638Y-42679021D01*
X29451882Y-42681868D01*
X29528091Y-42701861D01*
X29598406Y-42720308D01*
X29598410Y-42720308D01*
X29604175Y-42721821D01*
X29610136Y-42721915D01*
X29610139Y-42721915D01*
X29682888Y-42723058D01*
X29761601Y-42724294D01*
X29779005Y-42720308D01*
X29909255Y-42690477D01*
X29909257Y-42690476D01*
X29915074Y-42689144D01*
X29920405Y-42686463D01*
X30050405Y-42621080D01*
X30050407Y-42621079D01*
X30055731Y-42618401D01*
X30072673Y-42603931D01*
X30170916Y-42520024D01*
X30170917Y-42520023D01*
X30175454Y-42516148D01*
X30267330Y-42388289D01*
X30270629Y-42380084D01*
X30323832Y-42247737D01*
X30323833Y-42247735D01*
X30326056Y-42242204D01*
X30328100Y-42227846D01*
X30347784Y-42089535D01*
X30347784Y-42089531D01*
X30348240Y-42086329D01*
X30348384Y-42072606D01*
X30339044Y-41995426D01*
X30330186Y-41922222D01*
X30330185Y-41922219D01*
X30329469Y-41916300D01*
X30273816Y-41769018D01*
X30184637Y-41639263D01*
X30180184Y-41635296D01*
X30180181Y-41635292D01*
X30109110Y-41571971D01*
X30067082Y-41534525D01*
X30061010Y-41531310D01*
X29933211Y-41463643D01*
X29933208Y-41463642D01*
X29927937Y-41460851D01*
X29833567Y-41437147D01*
X29781024Y-41423949D01*
X29781021Y-41423949D01*
X29775234Y-41422495D01*
X29695670Y-41422079D01*
X29623756Y-41421702D01*
X29623754Y-41421702D01*
X29617790Y-41421671D01*
X29611989Y-41423064D01*
X29611986Y-41423064D01*
X29607238Y-41424204D01*
X29546242Y-41419403D01*
X29514124Y-41397943D01*
X23779497Y-35663315D01*
X23751720Y-35608798D01*
X23750501Y-35593311D01*
X23750501Y-26524536D01*
X23769408Y-26466345D01*
X23779497Y-26454532D01*
X24013937Y-26220092D01*
X24030240Y-26206927D01*
X24032274Y-26205614D01*
X24032278Y-26205611D01*
X24039152Y-26201172D01*
X24058985Y-26176015D01*
X24062899Y-26171610D01*
X24062898Y-26171609D01*
X24065551Y-26168478D01*
X24068428Y-26165601D01*
X24079044Y-26150746D01*
X24081835Y-26147028D01*
X24106327Y-26115961D01*
X24106327Y-26115960D01*
X24111392Y-26109536D01*
X24113958Y-26102229D01*
X24114605Y-26100984D01*
X24119111Y-26094678D01*
X24132792Y-26048932D01*
X24134233Y-26044496D01*
X24147993Y-26005314D01*
X24147994Y-26005311D01*
X24150055Y-25999441D01*
X24150500Y-25994303D01*
X24150500Y-25992165D01*
X24150574Y-25990446D01*
X24150689Y-25989085D01*
X24152544Y-25982883D01*
X24150576Y-25932793D01*
X24150500Y-25928906D01*
X24150500Y-23678829D01*
X24169407Y-23620638D01*
X24185205Y-23603549D01*
X24277810Y-23524457D01*
X24277811Y-23524456D01*
X24282348Y-23520581D01*
X24334717Y-23447702D01*
X24370740Y-23397571D01*
X24370741Y-23397569D01*
X24374224Y-23392722D01*
X24378006Y-23383316D01*
X24430726Y-23252170D01*
X24430727Y-23252168D01*
X24432950Y-23246637D01*
X24435007Y-23232188D01*
X24454678Y-23093968D01*
X24454678Y-23093964D01*
X24455134Y-23090762D01*
X24455278Y-23077039D01*
X24440539Y-22955239D01*
X24437080Y-22926655D01*
X24437079Y-22926652D01*
X24436363Y-22920733D01*
X24380710Y-22773451D01*
X24291531Y-22643696D01*
X24293544Y-22642313D01*
X24273286Y-22595484D01*
X24286640Y-22535774D01*
X24291452Y-22528408D01*
X24370740Y-22418068D01*
X24370741Y-22418066D01*
X24374224Y-22413219D01*
X24393252Y-22365887D01*
X24430726Y-22272667D01*
X24430727Y-22272665D01*
X24432950Y-22267134D01*
X24434090Y-22259128D01*
X24454678Y-22114465D01*
X24454678Y-22114461D01*
X24455134Y-22111259D01*
X24455278Y-22097536D01*
X24443927Y-22003732D01*
X24437080Y-21947152D01*
X24437079Y-21947149D01*
X24436363Y-21941230D01*
X24380710Y-21793948D01*
X24291531Y-21664193D01*
X24293544Y-21662810D01*
X24273286Y-21615981D01*
X24286640Y-21556271D01*
X24291452Y-21548905D01*
X24370740Y-21438565D01*
X24370741Y-21438563D01*
X24374224Y-21433716D01*
X24432950Y-21287631D01*
X24434932Y-21273709D01*
X24454678Y-21134962D01*
X24454678Y-21134958D01*
X24455134Y-21131756D01*
X24455278Y-21118033D01*
X24436363Y-20961727D01*
X24434255Y-20956149D01*
X24434254Y-20956144D01*
X24421740Y-20923026D01*
X24418858Y-20861908D01*
X24452451Y-20810770D01*
X24514349Y-20789033D01*
X30749884Y-20789033D01*
X30808075Y-20807940D01*
X30819888Y-20818029D01*
X33624608Y-23622749D01*
X33652385Y-23677266D01*
X33652757Y-23705672D01*
X33641365Y-23792204D01*
X33642020Y-23798137D01*
X33642020Y-23798141D01*
X33654099Y-23907549D01*
X33658642Y-23948699D01*
X33660694Y-23954306D01*
X33704027Y-24072719D01*
X33712750Y-24096556D01*
X33716079Y-24101510D01*
X33797236Y-24222285D01*
X33797239Y-24222289D01*
X33800565Y-24227238D01*
X33804976Y-24231252D01*
X33804978Y-24231254D01*
X33912602Y-24329184D01*
X33917017Y-24333201D01*
X33978961Y-24366834D01*
X34050137Y-24405480D01*
X34050139Y-24405481D01*
X34055383Y-24408328D01*
X34103801Y-24421030D01*
X34201907Y-24446768D01*
X34201911Y-24446768D01*
X34207676Y-24448281D01*
X34213637Y-24448375D01*
X34213640Y-24448375D01*
X34286389Y-24449517D01*
X34365102Y-24450754D01*
X34382506Y-24446768D01*
X34512752Y-24416938D01*
X34512755Y-24416937D01*
X34518575Y-24415604D01*
X34573852Y-24387803D01*
X34634332Y-24378548D01*
X34688702Y-24406611D01*
X34700504Y-24421030D01*
X34741618Y-24482215D01*
X34741621Y-24482219D01*
X34744947Y-24487168D01*
X34749358Y-24491182D01*
X34749360Y-24491184D01*
X34841203Y-24574754D01*
X34861399Y-24593131D01*
X34882874Y-24604791D01*
X34994519Y-24665410D01*
X34994521Y-24665411D01*
X34999765Y-24668258D01*
X35060468Y-24684183D01*
X35146289Y-24706698D01*
X35146293Y-24706698D01*
X35152058Y-24708211D01*
X35158019Y-24708305D01*
X35158022Y-24708305D01*
X35230771Y-24709448D01*
X35309484Y-24710684D01*
X35326888Y-24706698D01*
X35457138Y-24676867D01*
X35457140Y-24676866D01*
X35462957Y-24675534D01*
X35468288Y-24672853D01*
X35598288Y-24607470D01*
X35598290Y-24607469D01*
X35603614Y-24604791D01*
X35617266Y-24593131D01*
X35718799Y-24506414D01*
X35718800Y-24506413D01*
X35723337Y-24502538D01*
X35785268Y-24416352D01*
X35811729Y-24379528D01*
X35811730Y-24379526D01*
X35815213Y-24374679D01*
X35817724Y-24368434D01*
X35871715Y-24234127D01*
X35871716Y-24234125D01*
X35873939Y-24228594D01*
X35877415Y-24204174D01*
X35895667Y-24075925D01*
X35895667Y-24075921D01*
X35896123Y-24072719D01*
X35896267Y-24058996D01*
X35884465Y-23961469D01*
X35878069Y-23908612D01*
X35878068Y-23908609D01*
X35877352Y-23902690D01*
X35821699Y-23755408D01*
X35732520Y-23625653D01*
X35728067Y-23621686D01*
X35728064Y-23621682D01*
X35624631Y-23529527D01*
X35593761Y-23476700D01*
X35591489Y-23455610D01*
X35591489Y-23452227D01*
X35593707Y-23431391D01*
X35594217Y-23429020D01*
X35595940Y-23421018D01*
X35592175Y-23389208D01*
X35591828Y-23383316D01*
X35591825Y-23383316D01*
X35591489Y-23379249D01*
X35591489Y-23375164D01*
X35590819Y-23371138D01*
X35590818Y-23371127D01*
X35588493Y-23357160D01*
X35587835Y-23352541D01*
X35585994Y-23336983D01*
X35582225Y-23305140D01*
X35578872Y-23298157D01*
X35578450Y-23296823D01*
X35577177Y-23289176D01*
X35554495Y-23247140D01*
X35552377Y-23242982D01*
X35534411Y-23205567D01*
X35534410Y-23205566D01*
X35531715Y-23199953D01*
X35528397Y-23196005D01*
X35526887Y-23194495D01*
X35525707Y-23193208D01*
X35524841Y-23192182D01*
X35521767Y-23186485D01*
X35515762Y-23180934D01*
X35515758Y-23180929D01*
X35484971Y-23152470D01*
X35482168Y-23149776D01*
X35393451Y-23061059D01*
X35365674Y-23006542D01*
X35375245Y-22946110D01*
X35399156Y-22915779D01*
X35434326Y-22885741D01*
X35499716Y-22794741D01*
X35549027Y-22758519D01*
X35610211Y-22758198D01*
X35650116Y-22782508D01*
X36140993Y-23273385D01*
X36168770Y-23327902D01*
X36169989Y-23343389D01*
X36169989Y-26946481D01*
X36151082Y-27004672D01*
X36140993Y-27016485D01*
X29385617Y-33771863D01*
X29331100Y-33799640D01*
X29303976Y-33800066D01*
X29299068Y-33798833D01*
X29220346Y-33798421D01*
X29147590Y-33798040D01*
X29147588Y-33798040D01*
X29141624Y-33798009D01*
X28988528Y-33834764D01*
X28915975Y-33872211D01*
X28853925Y-33904237D01*
X28853923Y-33904239D01*
X28848619Y-33906976D01*
X28729974Y-34010477D01*
X28639441Y-34139292D01*
X28582249Y-34285983D01*
X28581471Y-34291894D01*
X28581470Y-34291897D01*
X28572821Y-34357595D01*
X28561698Y-34442082D01*
X28562353Y-34448015D01*
X28562353Y-34448019D01*
X28565449Y-34476060D01*
X28578975Y-34598577D01*
X28633083Y-34746434D01*
X28636412Y-34751388D01*
X28717569Y-34872163D01*
X28717572Y-34872167D01*
X28720898Y-34877116D01*
X28725309Y-34881130D01*
X28725311Y-34881132D01*
X28748733Y-34902444D01*
X28820801Y-34968020D01*
X28830973Y-34977276D01*
X28861288Y-35030424D01*
X28854574Y-35091240D01*
X28813396Y-35136494D01*
X28764345Y-35149500D01*
X28486190Y-35149500D01*
X28427999Y-35130593D01*
X28416186Y-35120504D01*
X28071956Y-34776274D01*
X28044179Y-34721757D01*
X28043948Y-34692321D01*
X28054678Y-34616929D01*
X28054678Y-34616925D01*
X28055134Y-34613723D01*
X28055278Y-34600000D01*
X28036363Y-34443694D01*
X28033098Y-34435052D01*
X27982820Y-34301996D01*
X27980710Y-34296412D01*
X27891531Y-34166657D01*
X27887078Y-34162690D01*
X27887075Y-34162686D01*
X27801217Y-34086190D01*
X27773976Y-34061919D01*
X27709913Y-34027999D01*
X27640105Y-33991037D01*
X27640102Y-33991036D01*
X27634831Y-33988245D01*
X27558479Y-33969067D01*
X27487918Y-33951343D01*
X27487915Y-33951343D01*
X27482128Y-33949889D01*
X27402564Y-33949473D01*
X27330650Y-33949096D01*
X27330648Y-33949096D01*
X27324684Y-33949065D01*
X27171588Y-33985820D01*
X27131413Y-34006556D01*
X27036985Y-34055293D01*
X27036983Y-34055295D01*
X27031679Y-34058032D01*
X26913034Y-34161533D01*
X26822501Y-34290348D01*
X26765309Y-34437039D01*
X26764531Y-34442950D01*
X26764530Y-34442953D01*
X26763863Y-34448019D01*
X26744758Y-34593138D01*
X26745413Y-34599071D01*
X26745413Y-34599075D01*
X26755708Y-34692321D01*
X26762035Y-34749633D01*
X26764087Y-34755240D01*
X26810157Y-34881132D01*
X26816143Y-34897490D01*
X26819472Y-34902444D01*
X26900629Y-35023219D01*
X26900632Y-35023223D01*
X26903958Y-35028172D01*
X26908369Y-35032186D01*
X26908371Y-35032188D01*
X27015995Y-35130118D01*
X27020410Y-35134135D01*
X27048709Y-35149500D01*
X27153530Y-35206414D01*
X27153532Y-35206415D01*
X27158776Y-35209262D01*
X27238534Y-35230186D01*
X27305300Y-35247702D01*
X27305304Y-35247702D01*
X27311069Y-35249215D01*
X27317030Y-35249309D01*
X27317033Y-35249309D01*
X27389782Y-35250451D01*
X27468495Y-35251688D01*
X27486316Y-35247606D01*
X27547255Y-35253043D01*
X27578421Y-35274103D01*
X28018255Y-35713937D01*
X28031420Y-35730240D01*
X28032733Y-35732274D01*
X28032736Y-35732278D01*
X28037175Y-35739152D01*
X28062332Y-35758985D01*
X28066737Y-35762899D01*
X28066738Y-35762898D01*
X28069869Y-35765551D01*
X28072746Y-35768428D01*
X28087601Y-35779044D01*
X28091312Y-35781830D01*
X28128811Y-35811392D01*
X28136118Y-35813958D01*
X28137364Y-35814605D01*
X28143669Y-35819111D01*
X28187781Y-35832303D01*
X28189403Y-35832788D01*
X28193839Y-35834229D01*
X28233033Y-35847993D01*
X28233036Y-35847994D01*
X28238906Y-35850055D01*
X28244044Y-35850500D01*
X28246180Y-35850500D01*
X28247919Y-35850575D01*
X28249262Y-35850689D01*
X28255463Y-35852543D01*
X28263638Y-35852222D01*
X28263639Y-35852222D01*
X28305538Y-35850576D01*
X28309424Y-35850500D01*
X29152052Y-35850500D01*
X29172888Y-35852718D01*
X29174170Y-35852994D01*
X29183261Y-35854951D01*
X29215071Y-35851186D01*
X29220963Y-35850839D01*
X29220963Y-35850836D01*
X29225030Y-35850500D01*
X29229115Y-35850500D01*
X29233141Y-35849830D01*
X29233152Y-35849829D01*
X29247119Y-35847504D01*
X29251726Y-35846848D01*
X29274689Y-35844130D01*
X29291012Y-35842198D01*
X29291013Y-35842198D01*
X29299138Y-35841236D01*
X29306122Y-35837882D01*
X29307454Y-35837461D01*
X29315103Y-35836188D01*
X29357160Y-35813495D01*
X29361283Y-35811395D01*
X29398717Y-35793420D01*
X29398721Y-35793418D01*
X29404326Y-35790726D01*
X29408274Y-35787408D01*
X29409782Y-35785900D01*
X29411071Y-35784718D01*
X29412097Y-35783852D01*
X29417794Y-35780778D01*
X29423345Y-35774773D01*
X29423350Y-35774769D01*
X29451809Y-35743982D01*
X29454503Y-35741179D01*
X30113937Y-35081745D01*
X30130240Y-35068580D01*
X30132274Y-35067267D01*
X30132278Y-35067264D01*
X30139152Y-35062825D01*
X30158985Y-35037668D01*
X30162899Y-35033263D01*
X30162898Y-35033262D01*
X30165551Y-35030131D01*
X30168428Y-35027254D01*
X30171312Y-35023219D01*
X30173467Y-35020203D01*
X30179044Y-35012399D01*
X30181835Y-35008681D01*
X30206327Y-34977614D01*
X30206327Y-34977613D01*
X30211392Y-34971189D01*
X30213958Y-34963882D01*
X30214605Y-34962636D01*
X30219111Y-34956331D01*
X30232788Y-34910596D01*
X30234229Y-34906161D01*
X30247993Y-34866967D01*
X30247994Y-34866964D01*
X30250055Y-34861094D01*
X30250500Y-34855956D01*
X30250500Y-34853820D01*
X30250575Y-34852081D01*
X30250689Y-34850738D01*
X30252543Y-34844537D01*
X30250576Y-34794462D01*
X30250500Y-34790576D01*
X30250500Y-34476060D01*
X30269407Y-34417869D01*
X30279496Y-34406056D01*
X30580496Y-34105056D01*
X30635013Y-34077279D01*
X30695445Y-34086850D01*
X30738710Y-34130115D01*
X30749500Y-34175060D01*
X30749500Y-43013810D01*
X30730593Y-43072001D01*
X30720504Y-43083814D01*
X29413325Y-44390993D01*
X29358808Y-44418770D01*
X29343321Y-44419989D01*
X25577459Y-44419989D01*
X25556623Y-44417771D01*
X25555341Y-44417495D01*
X25546250Y-44415538D01*
X25514440Y-44419303D01*
X25508548Y-44419650D01*
X25508548Y-44419653D01*
X25504481Y-44419989D01*
X25500396Y-44419989D01*
X25496370Y-44420659D01*
X25496359Y-44420660D01*
X25482392Y-44422985D01*
X25477785Y-44423641D01*
X25454822Y-44426359D01*
X25438499Y-44428291D01*
X25438498Y-44428291D01*
X25430373Y-44429253D01*
X25423389Y-44432607D01*
X25422057Y-44433028D01*
X25414408Y-44434301D01*
X25372351Y-44456994D01*
X25368228Y-44459094D01*
X25330794Y-44477069D01*
X25330790Y-44477071D01*
X25325185Y-44479763D01*
X25321237Y-44483081D01*
X25319729Y-44484589D01*
X25318440Y-44485771D01*
X25317414Y-44486637D01*
X25311717Y-44489711D01*
X25306166Y-44495716D01*
X25306161Y-44495720D01*
X25277702Y-44526507D01*
X25275008Y-44529310D01*
X24279600Y-45524718D01*
X24225083Y-45552495D01*
X24193959Y-45551107D01*
X24193835Y-45552091D01*
X24187918Y-45551343D01*
X24182128Y-45549889D01*
X24102564Y-45549473D01*
X24030650Y-45549096D01*
X24030648Y-45549096D01*
X24024684Y-45549065D01*
X23871588Y-45585820D01*
X23831378Y-45606574D01*
X23736985Y-45655293D01*
X23736983Y-45655295D01*
X23731679Y-45658032D01*
X23613034Y-45761533D01*
X23522501Y-45890348D01*
X23465309Y-46037039D01*
X23464531Y-46042950D01*
X23464530Y-46042953D01*
X23463653Y-46049616D01*
X23444758Y-46193138D01*
X23445413Y-46199071D01*
X23445413Y-46199075D01*
X23458251Y-46315362D01*
X23462035Y-46349633D01*
X23469271Y-46369407D01*
X23509777Y-46480093D01*
X23516143Y-46497490D01*
X23519472Y-46502444D01*
X23600629Y-46623219D01*
X23600632Y-46623223D01*
X23603958Y-46628172D01*
X23608369Y-46632186D01*
X23608371Y-46632188D01*
X23715995Y-46730118D01*
X23720410Y-46734135D01*
X23758748Y-46754951D01*
X23853530Y-46806414D01*
X23853532Y-46806415D01*
X23858776Y-46809262D01*
X23938534Y-46830186D01*
X24005300Y-46847702D01*
X24005304Y-46847702D01*
X24011069Y-46849215D01*
X24017030Y-46849309D01*
X24017033Y-46849309D01*
X24089782Y-46850452D01*
X24168495Y-46851688D01*
X24185899Y-46847702D01*
X24316149Y-46817871D01*
X24316151Y-46817870D01*
X24321968Y-46816538D01*
X24327299Y-46813857D01*
X24457299Y-46748474D01*
X24457301Y-46748473D01*
X24462625Y-46745795D01*
X24467963Y-46741236D01*
X24577810Y-46647418D01*
X24577811Y-46647417D01*
X24582348Y-46643542D01*
X24650661Y-46548474D01*
X24670740Y-46520532D01*
X24670741Y-46520530D01*
X24674224Y-46515683D01*
X24701667Y-46447418D01*
X24708152Y-46431285D01*
X24747400Y-46384346D01*
X24806742Y-46369440D01*
X24863512Y-46392262D01*
X24892978Y-46434189D01*
X24909777Y-46480093D01*
X24916143Y-46497490D01*
X24919472Y-46502444D01*
X25000629Y-46623219D01*
X25000632Y-46623223D01*
X25003958Y-46628172D01*
X25008369Y-46632186D01*
X25008371Y-46632188D01*
X25115995Y-46730118D01*
X25120410Y-46734135D01*
X25158748Y-46754951D01*
X25253530Y-46806414D01*
X25253532Y-46806415D01*
X25258776Y-46809262D01*
X25338534Y-46830186D01*
X25405300Y-46847702D01*
X25405304Y-46847702D01*
X25411069Y-46849215D01*
X25417030Y-46849309D01*
X25417033Y-46849309D01*
X25489782Y-46850452D01*
X25568495Y-46851688D01*
X25585899Y-46847702D01*
X25716149Y-46817871D01*
X25716151Y-46817870D01*
X25721968Y-46816538D01*
X25727299Y-46813857D01*
X25857299Y-46748474D01*
X25857301Y-46748473D01*
X25862625Y-46745795D01*
X25867963Y-46741236D01*
X25977810Y-46647418D01*
X25977811Y-46647417D01*
X25982348Y-46643542D01*
X26050661Y-46548474D01*
X26070740Y-46520532D01*
X26070741Y-46520530D01*
X26074224Y-46515683D01*
X26101667Y-46447418D01*
X26130726Y-46375131D01*
X26130727Y-46375129D01*
X26132950Y-46369598D01*
X26134956Y-46355507D01*
X26154678Y-46216929D01*
X26154678Y-46216925D01*
X26155134Y-46213723D01*
X26155278Y-46200000D01*
X26136363Y-46043694D01*
X26119853Y-46000000D01*
X26082820Y-45901996D01*
X26080710Y-45896412D01*
X26077326Y-45891488D01*
X26012708Y-45797468D01*
X25995330Y-45738803D01*
X26015754Y-45681127D01*
X26024292Y-45671390D01*
X26166186Y-45529496D01*
X26220703Y-45501719D01*
X26236190Y-45500500D01*
X29638762Y-45500500D01*
X29659598Y-45502718D01*
X29660880Y-45502994D01*
X29669971Y-45504951D01*
X29701781Y-45501186D01*
X29707673Y-45500839D01*
X29707673Y-45500836D01*
X29711740Y-45500500D01*
X29715825Y-45500500D01*
X29719851Y-45499830D01*
X29719862Y-45499829D01*
X29733829Y-45497504D01*
X29738441Y-45496847D01*
X29785849Y-45491236D01*
X29792832Y-45487883D01*
X29794166Y-45487461D01*
X29801813Y-45486188D01*
X29843849Y-45463506D01*
X29848007Y-45461388D01*
X29885422Y-45443422D01*
X29885423Y-45443421D01*
X29891036Y-45440726D01*
X29894984Y-45437408D01*
X29896494Y-45435898D01*
X29897781Y-45434718D01*
X29898807Y-45433852D01*
X29904504Y-45430778D01*
X29938521Y-45393979D01*
X29941214Y-45391178D01*
X31380496Y-43951895D01*
X31435013Y-43924118D01*
X31495445Y-43933689D01*
X31538710Y-43976954D01*
X31549500Y-44021899D01*
X31549500Y-44952052D01*
X31547282Y-44972888D01*
X31545049Y-44983261D01*
X31546011Y-44991386D01*
X31548814Y-45015071D01*
X31549161Y-45020963D01*
X31549164Y-45020963D01*
X31549500Y-45025030D01*
X31549500Y-45029115D01*
X31550170Y-45033141D01*
X31550171Y-45033152D01*
X31552496Y-45047119D01*
X31553152Y-45051726D01*
X31558764Y-45099138D01*
X31562118Y-45106122D01*
X31562539Y-45107454D01*
X31563812Y-45115103D01*
X31586505Y-45157160D01*
X31588605Y-45161283D01*
X31606580Y-45198717D01*
X31606582Y-45198721D01*
X31609274Y-45204326D01*
X31612592Y-45208274D01*
X31614100Y-45209782D01*
X31615282Y-45211071D01*
X31616148Y-45212097D01*
X31619222Y-45217794D01*
X31625227Y-45223345D01*
X31625231Y-45223350D01*
X31656018Y-45251809D01*
X31658821Y-45254503D01*
X32618255Y-46213937D01*
X32631420Y-46230240D01*
X32632733Y-46232274D01*
X32632736Y-46232278D01*
X32637175Y-46239152D01*
X32662332Y-46258984D01*
X32666738Y-46262900D01*
X32666739Y-46262899D01*
X32669868Y-46265550D01*
X32672747Y-46268429D01*
X32676061Y-46270797D01*
X32676062Y-46270798D01*
X32687591Y-46279037D01*
X32691319Y-46281836D01*
X32704065Y-46291884D01*
X32728811Y-46311392D01*
X32736114Y-46313957D01*
X32737369Y-46314609D01*
X32743670Y-46319111D01*
X32781476Y-46330417D01*
X32789412Y-46332791D01*
X32793847Y-46334232D01*
X32824317Y-46344932D01*
X32873686Y-46383123D01*
X32900629Y-46423219D01*
X32900632Y-46423223D01*
X32903958Y-46428172D01*
X32908369Y-46432186D01*
X32908371Y-46432188D01*
X33005460Y-46520532D01*
X33020410Y-46534135D01*
X33041885Y-46545795D01*
X33153530Y-46606414D01*
X33153532Y-46606415D01*
X33158776Y-46609262D01*
X33230857Y-46628172D01*
X33305300Y-46647702D01*
X33305304Y-46647702D01*
X33311069Y-46649215D01*
X33317030Y-46649309D01*
X33317033Y-46649309D01*
X33389782Y-46650452D01*
X33468495Y-46651688D01*
X33487139Y-46647418D01*
X33616149Y-46617871D01*
X33616151Y-46617870D01*
X33621968Y-46616538D01*
X33627299Y-46613857D01*
X33757299Y-46548474D01*
X33757301Y-46548473D01*
X33762625Y-46545795D01*
X33776277Y-46534135D01*
X33877810Y-46447418D01*
X33877811Y-46447417D01*
X33882348Y-46443542D01*
X33945608Y-46355507D01*
X33970740Y-46320532D01*
X33970741Y-46320530D01*
X33974224Y-46315683D01*
X33987831Y-46281836D01*
X34030726Y-46175131D01*
X34030727Y-46175129D01*
X34032950Y-46169598D01*
X34034994Y-46155240D01*
X34054678Y-46016929D01*
X34054678Y-46016925D01*
X34055134Y-46013723D01*
X34055278Y-46000000D01*
X34036363Y-45843694D01*
X34003836Y-45757612D01*
X33982820Y-45701996D01*
X33980710Y-45696412D01*
X33906583Y-45588558D01*
X33894912Y-45571576D01*
X33894911Y-45571575D01*
X33891531Y-45566657D01*
X33887078Y-45562690D01*
X33887075Y-45562686D01*
X33807959Y-45492197D01*
X33773976Y-45461919D01*
X33761462Y-45455293D01*
X33640105Y-45391037D01*
X33640102Y-45391036D01*
X33634831Y-45388245D01*
X33558479Y-45369067D01*
X33487918Y-45351343D01*
X33487915Y-45351343D01*
X33482128Y-45349889D01*
X33402564Y-45349473D01*
X33330650Y-45349096D01*
X33330648Y-45349096D01*
X33324684Y-45349065D01*
X33171588Y-45385820D01*
X33099035Y-45423267D01*
X33036985Y-45455293D01*
X33036983Y-45455295D01*
X33031679Y-45458032D01*
X33027182Y-45461955D01*
X33027176Y-45461959D01*
X33006318Y-45480154D01*
X32950038Y-45504158D01*
X32890397Y-45490497D01*
X32871236Y-45475554D01*
X32279496Y-44883814D01*
X32251719Y-44829297D01*
X32250500Y-44813810D01*
X32250500Y-34086190D01*
X32269407Y-34027999D01*
X32279496Y-34016186D01*
X35830996Y-30464686D01*
X35885513Y-30436909D01*
X35945945Y-30446480D01*
X35989210Y-30489745D01*
X36000000Y-30534690D01*
X36000000Y-49651000D01*
X35981093Y-49709191D01*
X35931593Y-49745155D01*
X35901000Y-49750000D01*
X4677741Y-49750000D01*
X4619550Y-49731093D01*
X4583586Y-49681593D01*
X4583586Y-49620407D01*
X4595425Y-49595999D01*
X4605549Y-49580847D01*
X4610966Y-49572740D01*
X4625500Y-49499674D01*
X4625500Y-48411190D01*
X4644407Y-48352999D01*
X4654496Y-48341186D01*
X6216186Y-46779496D01*
X6270703Y-46751719D01*
X6286190Y-46750500D01*
X9452052Y-46750500D01*
X9472888Y-46752718D01*
X9474170Y-46752994D01*
X9483261Y-46754951D01*
X9515071Y-46751186D01*
X9520963Y-46750839D01*
X9520963Y-46750836D01*
X9525030Y-46750500D01*
X9529115Y-46750500D01*
X9533141Y-46749830D01*
X9533152Y-46749829D01*
X9547119Y-46747504D01*
X9551726Y-46746848D01*
X9574689Y-46744130D01*
X9591012Y-46742198D01*
X9591013Y-46742198D01*
X9599138Y-46741236D01*
X9606122Y-46737882D01*
X9607454Y-46737461D01*
X9615103Y-46736188D01*
X9657160Y-46713495D01*
X9661283Y-46711395D01*
X9698717Y-46693420D01*
X9698721Y-46693418D01*
X9704326Y-46690726D01*
X9708274Y-46687408D01*
X9709782Y-46685900D01*
X9711071Y-46684718D01*
X9712097Y-46683852D01*
X9717794Y-46680778D01*
X9723345Y-46674773D01*
X9723350Y-46674769D01*
X9751809Y-46643982D01*
X9754503Y-46641179D01*
X12916186Y-43479496D01*
X12970703Y-43451719D01*
X12986190Y-43450500D01*
X13299014Y-43450500D01*
X13357205Y-43469407D01*
X13381184Y-43494281D01*
X13403958Y-43528172D01*
X13408369Y-43532186D01*
X13408371Y-43532188D01*
X13420849Y-43543542D01*
X13520410Y-43634135D01*
X13541885Y-43645795D01*
X13653530Y-43706414D01*
X13653532Y-43706415D01*
X13658776Y-43709262D01*
X13738534Y-43730186D01*
X13805300Y-43747702D01*
X13805304Y-43747702D01*
X13811069Y-43749215D01*
X13817030Y-43749309D01*
X13817033Y-43749309D01*
X13889782Y-43750451D01*
X13968495Y-43751688D01*
X13985899Y-43747702D01*
X14116149Y-43717871D01*
X14116151Y-43717870D01*
X14121968Y-43716538D01*
X14127299Y-43713857D01*
X14257299Y-43648474D01*
X14257301Y-43648473D01*
X14262625Y-43645795D01*
X14276277Y-43634135D01*
X14377810Y-43547418D01*
X14377811Y-43547417D01*
X14382348Y-43543542D01*
X14448330Y-43451719D01*
X14470740Y-43420532D01*
X14470741Y-43420530D01*
X14474224Y-43415683D01*
X14532950Y-43269598D01*
X14540460Y-43216834D01*
X14554678Y-43116929D01*
X14554678Y-43116925D01*
X14555134Y-43113723D01*
X14555278Y-43100000D01*
X14544709Y-43012658D01*
X14537080Y-42949616D01*
X14537079Y-42949613D01*
X14536363Y-42943694D01*
X14480710Y-42796412D01*
X14406986Y-42689144D01*
X14394912Y-42671576D01*
X14394911Y-42671575D01*
X14391531Y-42666657D01*
X14387078Y-42662690D01*
X14387075Y-42662686D01*
X14316622Y-42599915D01*
X14273976Y-42561919D01*
X14266635Y-42558032D01*
X14140105Y-42491037D01*
X14140102Y-42491036D01*
X14134831Y-42488245D01*
X14036822Y-42463627D01*
X13987918Y-42451343D01*
X13987915Y-42451343D01*
X13982128Y-42449889D01*
X13902564Y-42449473D01*
X13830650Y-42449096D01*
X13830648Y-42449096D01*
X13824684Y-42449065D01*
X13671588Y-42485820D01*
X13619819Y-42512540D01*
X13559438Y-42522428D01*
X13504777Y-42494936D01*
X13476714Y-42440566D01*
X13485969Y-42380084D01*
X13504409Y-42354563D01*
X14213937Y-41645035D01*
X14230240Y-41631870D01*
X14232274Y-41630557D01*
X14232278Y-41630554D01*
X14239152Y-41626115D01*
X14258985Y-41600958D01*
X14262899Y-41596553D01*
X14262898Y-41596552D01*
X14265551Y-41593421D01*
X14268428Y-41590544D01*
X14279044Y-41575689D01*
X14281835Y-41571971D01*
X14306327Y-41540904D01*
X14306327Y-41540903D01*
X14311392Y-41534479D01*
X14313958Y-41527172D01*
X14314605Y-41525927D01*
X14319111Y-41519621D01*
X14332793Y-41473873D01*
X14334234Y-41469439D01*
X14347992Y-41430260D01*
X14347993Y-41430257D01*
X14350055Y-41424384D01*
X14350500Y-41419246D01*
X14350500Y-41417108D01*
X14350574Y-41415390D01*
X14350689Y-41414029D01*
X14352544Y-41407827D01*
X14352223Y-41399656D01*
X14353249Y-41391533D01*
X14355857Y-41391862D01*
X14369001Y-41345239D01*
X14387021Y-41324959D01*
X14482348Y-41243542D01*
X14574224Y-41115683D01*
X14632950Y-40969598D01*
X14634994Y-40955240D01*
X14654678Y-40816929D01*
X14654678Y-40816925D01*
X14655134Y-40813723D01*
X14655278Y-40800000D01*
X14636363Y-40643694D01*
X14580710Y-40496412D01*
X14491531Y-40366657D01*
X14487078Y-40362690D01*
X14487075Y-40362686D01*
X14419557Y-40302531D01*
X14373976Y-40261919D01*
X14361462Y-40255293D01*
X14240105Y-40191037D01*
X14240102Y-40191036D01*
X14234831Y-40188245D01*
X14158480Y-40169067D01*
X14087918Y-40151343D01*
X14087915Y-40151343D01*
X14082128Y-40149889D01*
X14002564Y-40149473D01*
X13930650Y-40149096D01*
X13930648Y-40149096D01*
X13924684Y-40149065D01*
X13771588Y-40185820D01*
X13699035Y-40223267D01*
X13636985Y-40255293D01*
X13636983Y-40255295D01*
X13631679Y-40258032D01*
X13513034Y-40361533D01*
X13422501Y-40490348D01*
X13365309Y-40637039D01*
X13364531Y-40642950D01*
X13364530Y-40642953D01*
X13363653Y-40649616D01*
X13344758Y-40793138D01*
X13345413Y-40799071D01*
X13345413Y-40799075D01*
X13361330Y-40943251D01*
X13362035Y-40949633D01*
X13416143Y-41097490D01*
X13503958Y-41228172D01*
X13507329Y-41231239D01*
X13530829Y-41287137D01*
X13516859Y-41346706D01*
X13502180Y-41365428D01*
X9247104Y-45620504D01*
X9192587Y-45648281D01*
X9177100Y-45649500D01*
X2400554Y-45649500D01*
X2342363Y-45630593D01*
X2318966Y-45606574D01*
X2294915Y-45571579D01*
X2294910Y-45571573D01*
X2291531Y-45566657D01*
X2287078Y-45562690D01*
X2287075Y-45562686D01*
X2207959Y-45492197D01*
X2173976Y-45461919D01*
X2161462Y-45455293D01*
X2040105Y-45391037D01*
X2040102Y-45391036D01*
X2034831Y-45388245D01*
X1958479Y-45369067D01*
X1887918Y-45351343D01*
X1887915Y-45351343D01*
X1882128Y-45349889D01*
X1802564Y-45349473D01*
X1730650Y-45349096D01*
X1730648Y-45349096D01*
X1724684Y-45349065D01*
X1571588Y-45385820D01*
X1499035Y-45423267D01*
X1436985Y-45455293D01*
X1436983Y-45455295D01*
X1431679Y-45458032D01*
X1313034Y-45561533D01*
X1222501Y-45690348D01*
X1165309Y-45837039D01*
X1164531Y-45842950D01*
X1164530Y-45842953D01*
X1157559Y-45895906D01*
X1144758Y-45993138D01*
X1145413Y-45999071D01*
X1145413Y-45999075D01*
X1150339Y-46043694D01*
X1162035Y-46149633D01*
X1169341Y-46169598D01*
X1203485Y-46262900D01*
X1216143Y-46297490D01*
X1219472Y-46302444D01*
X1300629Y-46423219D01*
X1300632Y-46423223D01*
X1303958Y-46428172D01*
X1308369Y-46432186D01*
X1308371Y-46432188D01*
X1405460Y-46520532D01*
X1420410Y-46534135D01*
X1441885Y-46545795D01*
X1553530Y-46606414D01*
X1553532Y-46606415D01*
X1558776Y-46609262D01*
X1630857Y-46628172D01*
X1705300Y-46647702D01*
X1705304Y-46647702D01*
X1711069Y-46649215D01*
X1717030Y-46649309D01*
X1717033Y-46649309D01*
X1789782Y-46650452D01*
X1868495Y-46651688D01*
X1887139Y-46647418D01*
X2016149Y-46617871D01*
X2016151Y-46617870D01*
X2021968Y-46616538D01*
X2027299Y-46613857D01*
X2157299Y-46548474D01*
X2157301Y-46548473D01*
X2162625Y-46545795D01*
X2282348Y-46443542D01*
X2319580Y-46391728D01*
X2368888Y-46355507D01*
X2399974Y-46350500D01*
X5414810Y-46350500D01*
X5473001Y-46369407D01*
X5508965Y-46418907D01*
X5508965Y-46480093D01*
X5484814Y-46519504D01*
X4158814Y-47845504D01*
X4104297Y-47873281D01*
X4088810Y-47874500D01*
X3000326Y-47874500D01*
X2927260Y-47889034D01*
X2844399Y-47944399D01*
X2789034Y-48027260D01*
X2774500Y-48100326D01*
X2774500Y-48488546D01*
X2755593Y-48546737D01*
X2706093Y-48582701D01*
X2644907Y-48582701D01*
X2595407Y-48546737D01*
X2581345Y-48519139D01*
X2551286Y-48426626D01*
X2547092Y-48417206D01*
X2455056Y-48257795D01*
X2448991Y-48249448D01*
X2325827Y-48112661D01*
X2318156Y-48105754D01*
X2169246Y-47997564D01*
X2160310Y-47992405D01*
X1992153Y-47917536D01*
X1982344Y-47914349D01*
X1840338Y-47884165D01*
X1827250Y-47885541D01*
X1825000Y-47893938D01*
X1825000Y-48826000D01*
X1806093Y-48884191D01*
X1756593Y-48920155D01*
X1726000Y-48925000D01*
X1674000Y-48925000D01*
X1615809Y-48906093D01*
X1579845Y-48856593D01*
X1575000Y-48826000D01*
X1575000Y-47896585D01*
X1570933Y-47884069D01*
X1562254Y-47883614D01*
X1417656Y-47914349D01*
X1407847Y-47917536D01*
X1239687Y-47992406D01*
X1230762Y-47997559D01*
X1081838Y-48105759D01*
X1074175Y-48112658D01*
X951009Y-48249448D01*
X944944Y-48257795D01*
X852908Y-48417206D01*
X848714Y-48426626D01*
X791832Y-48601690D01*
X789688Y-48611780D01*
X784639Y-48659816D01*
X759752Y-48715712D01*
X706764Y-48746305D01*
X645914Y-48739909D01*
X601459Y-48700684D01*
X510824Y-48550755D01*
X505268Y-48540170D01*
X398670Y-48303320D01*
X394431Y-48292142D01*
X338576Y-48112897D01*
X317160Y-48044170D01*
X314301Y-48032569D01*
X267483Y-47777090D01*
X266043Y-47765231D01*
X251914Y-47531642D01*
X252996Y-47515742D01*
X252996Y-47509562D01*
X254898Y-47500000D01*
X251902Y-47484938D01*
X250000Y-47465624D01*
X250000Y-10469657D01*
X2000000Y-10469657D01*
X2000289Y-10474991D01*
X2005971Y-10527298D01*
X2008822Y-10539287D01*
X2054443Y-10660982D01*
X2061143Y-10673219D01*
X2138581Y-10776545D01*
X2148455Y-10786419D01*
X2251781Y-10863857D01*
X2264018Y-10870557D01*
X2385713Y-10916178D01*
X2397702Y-10919029D01*
X2450009Y-10924711D01*
X2455343Y-10925000D01*
X2959320Y-10925000D01*
X2972005Y-10920878D01*
X2975000Y-10916757D01*
X2975000Y-9840680D01*
X2970878Y-9827995D01*
X2966757Y-9825000D01*
X2015680Y-9825000D01*
X2002995Y-9829122D01*
X2000000Y-9833243D01*
X2000000Y-10469657D01*
X250000Y-10469657D01*
X250000Y-9559320D01*
X2000000Y-9559320D01*
X2004122Y-9572005D01*
X2008243Y-9575000D01*
X2959320Y-9575000D01*
X2972005Y-9570878D01*
X2975000Y-9566757D01*
X2975000Y-8490680D01*
X2970878Y-8477995D01*
X2966757Y-8475000D01*
X2455343Y-8475000D01*
X2450009Y-8475289D01*
X2397702Y-8480971D01*
X2385713Y-8483822D01*
X2264018Y-8529443D01*
X2251781Y-8536143D01*
X2148455Y-8613581D01*
X2138581Y-8623455D01*
X2061143Y-8726781D01*
X2054443Y-8739018D01*
X2008822Y-8860713D01*
X2005971Y-8872702D01*
X2000289Y-8925009D01*
X2000000Y-8930343D01*
X2000000Y-9559320D01*
X250000Y-9559320D01*
X250000Y-3644657D01*
X2000000Y-3644657D01*
X2000289Y-3649991D01*
X2005971Y-3702298D01*
X2008822Y-3714287D01*
X2054443Y-3835982D01*
X2061143Y-3848219D01*
X2138581Y-3951545D01*
X2148455Y-3961419D01*
X2251781Y-4038857D01*
X2264018Y-4045557D01*
X2385713Y-4091178D01*
X2397702Y-4094029D01*
X2450009Y-4099711D01*
X2455343Y-4100000D01*
X2959320Y-4100000D01*
X2972005Y-4095878D01*
X2975000Y-4091757D01*
X2975000Y-4084320D01*
X3225000Y-4084320D01*
X3229122Y-4097005D01*
X3233243Y-4100000D01*
X3744657Y-4100000D01*
X3749991Y-4099711D01*
X3802298Y-4094029D01*
X3814287Y-4091178D01*
X3935982Y-4045557D01*
X3948219Y-4038857D01*
X4051545Y-3961419D01*
X4061419Y-3951545D01*
X4138857Y-3848219D01*
X4145557Y-3835982D01*
X4191178Y-3714287D01*
X4194029Y-3702298D01*
X4199711Y-3649991D01*
X4200000Y-3644657D01*
X4200000Y-3052469D01*
X4499500Y-3052469D01*
X4514439Y-3209046D01*
X4573553Y-3410549D01*
X4669705Y-3597239D01*
X4799424Y-3762379D01*
X4958029Y-3900010D01*
X5139799Y-4005166D01*
X5144244Y-4006710D01*
X5144245Y-4006710D01*
X5333727Y-4072509D01*
X5333729Y-4072510D01*
X5338174Y-4074053D01*
X5342836Y-4074729D01*
X5541326Y-4103509D01*
X5541327Y-4103509D01*
X5545996Y-4104186D01*
X5550707Y-4103968D01*
X5550708Y-4103968D01*
X5751059Y-4094695D01*
X5751060Y-4094695D01*
X5755767Y-4094477D01*
X5840513Y-4074053D01*
X5955335Y-4046381D01*
X5955340Y-4046379D01*
X5959918Y-4045276D01*
X6151081Y-3958360D01*
X6322360Y-3836863D01*
X6411209Y-3744050D01*
X6464317Y-3688573D01*
X6464320Y-3688569D01*
X6467575Y-3685169D01*
X6581485Y-3508754D01*
X6636183Y-3373032D01*
X6658218Y-3318356D01*
X6658219Y-3318354D01*
X6659981Y-3313981D01*
X6665037Y-3288090D01*
X6699548Y-3111373D01*
X6699549Y-3111366D01*
X6700230Y-3107878D01*
X6700500Y-3102357D01*
X6700500Y-3052469D01*
X6999500Y-3052469D01*
X7014439Y-3209046D01*
X7073553Y-3410549D01*
X7169705Y-3597239D01*
X7299424Y-3762379D01*
X7458029Y-3900010D01*
X7639799Y-4005166D01*
X7644244Y-4006710D01*
X7644245Y-4006710D01*
X7833727Y-4072509D01*
X7833729Y-4072510D01*
X7838174Y-4074053D01*
X7842836Y-4074729D01*
X8041326Y-4103509D01*
X8041327Y-4103509D01*
X8045996Y-4104186D01*
X8050707Y-4103968D01*
X8050708Y-4103968D01*
X8251059Y-4094695D01*
X8251060Y-4094695D01*
X8255767Y-4094477D01*
X8340513Y-4074053D01*
X8455335Y-4046381D01*
X8455340Y-4046379D01*
X8459918Y-4045276D01*
X8651081Y-3958360D01*
X8822360Y-3836863D01*
X8911209Y-3744050D01*
X8964317Y-3688573D01*
X8964320Y-3688569D01*
X8967575Y-3685169D01*
X9081485Y-3508754D01*
X9136183Y-3373032D01*
X9158218Y-3318356D01*
X9158219Y-3318354D01*
X9159981Y-3313981D01*
X9165037Y-3288090D01*
X9199548Y-3111373D01*
X9199549Y-3111366D01*
X9200230Y-3107878D01*
X9200500Y-3102357D01*
X9200500Y-3052469D01*
X9499500Y-3052469D01*
X9514439Y-3209046D01*
X9573553Y-3410549D01*
X9669705Y-3597239D01*
X9799424Y-3762379D01*
X9958029Y-3900010D01*
X10139799Y-4005166D01*
X10144244Y-4006710D01*
X10144245Y-4006710D01*
X10333727Y-4072509D01*
X10333729Y-4072510D01*
X10338174Y-4074053D01*
X10342836Y-4074729D01*
X10541326Y-4103509D01*
X10541327Y-4103509D01*
X10545996Y-4104186D01*
X10550707Y-4103968D01*
X10550708Y-4103968D01*
X10751059Y-4094695D01*
X10751060Y-4094695D01*
X10755767Y-4094477D01*
X10840513Y-4074053D01*
X10955335Y-4046381D01*
X10955340Y-4046379D01*
X10959918Y-4045276D01*
X11151081Y-3958360D01*
X11322360Y-3836863D01*
X11411209Y-3744050D01*
X11464317Y-3688573D01*
X11464320Y-3688569D01*
X11467575Y-3685169D01*
X11581485Y-3508754D01*
X11636183Y-3373032D01*
X11658218Y-3318356D01*
X11658219Y-3318354D01*
X11659981Y-3313981D01*
X11665037Y-3288090D01*
X11699548Y-3111373D01*
X11699549Y-3111366D01*
X11700230Y-3107878D01*
X11700500Y-3102357D01*
X11700500Y-2697531D01*
X11685561Y-2540954D01*
X11626447Y-2339451D01*
X11530295Y-2152761D01*
X11400576Y-1987621D01*
X11241971Y-1849990D01*
X11060201Y-1744834D01*
X11055755Y-1743290D01*
X10866273Y-1677491D01*
X10866271Y-1677490D01*
X10861826Y-1675947D01*
X10857164Y-1675271D01*
X10658674Y-1646491D01*
X10658673Y-1646491D01*
X10654004Y-1645814D01*
X10649293Y-1646032D01*
X10649292Y-1646032D01*
X10448941Y-1655305D01*
X10448940Y-1655305D01*
X10444233Y-1655523D01*
X10374536Y-1672320D01*
X10244665Y-1703619D01*
X10244660Y-1703621D01*
X10240082Y-1704724D01*
X10048919Y-1791640D01*
X9877640Y-1913137D01*
X9806337Y-1987621D01*
X9735683Y-2061427D01*
X9735680Y-2061431D01*
X9732425Y-2064831D01*
X9618515Y-2241246D01*
X9616751Y-2245623D01*
X9548951Y-2413857D01*
X9540019Y-2436019D01*
X9539116Y-2440643D01*
X9500452Y-2638627D01*
X9500451Y-2638634D01*
X9499770Y-2642122D01*
X9499500Y-2647643D01*
X9499500Y-3052469D01*
X9200500Y-3052469D01*
X9200500Y-2697531D01*
X9185561Y-2540954D01*
X9126447Y-2339451D01*
X9030295Y-2152761D01*
X8900576Y-1987621D01*
X8741971Y-1849990D01*
X8560201Y-1744834D01*
X8555755Y-1743290D01*
X8366273Y-1677491D01*
X8366271Y-1677490D01*
X8361826Y-1675947D01*
X8357164Y-1675271D01*
X8158674Y-1646491D01*
X8158673Y-1646491D01*
X8154004Y-1645814D01*
X8149293Y-1646032D01*
X8149292Y-1646032D01*
X7948941Y-1655305D01*
X7948940Y-1655305D01*
X7944233Y-1655523D01*
X7874536Y-1672320D01*
X7744665Y-1703619D01*
X7744660Y-1703621D01*
X7740082Y-1704724D01*
X7548919Y-1791640D01*
X7377640Y-1913137D01*
X7306337Y-1987621D01*
X7235683Y-2061427D01*
X7235680Y-2061431D01*
X7232425Y-2064831D01*
X7118515Y-2241246D01*
X7116751Y-2245623D01*
X7048951Y-2413857D01*
X7040019Y-2436019D01*
X7039116Y-2440643D01*
X7000452Y-2638627D01*
X7000451Y-2638634D01*
X6999770Y-2642122D01*
X6999500Y-2647643D01*
X6999500Y-3052469D01*
X6700500Y-3052469D01*
X6700500Y-2697531D01*
X6685561Y-2540954D01*
X6626447Y-2339451D01*
X6530295Y-2152761D01*
X6400576Y-1987621D01*
X6241971Y-1849990D01*
X6060201Y-1744834D01*
X6055755Y-1743290D01*
X5866273Y-1677491D01*
X5866271Y-1677490D01*
X5861826Y-1675947D01*
X5857164Y-1675271D01*
X5658674Y-1646491D01*
X5658673Y-1646491D01*
X5654004Y-1645814D01*
X5649293Y-1646032D01*
X5649292Y-1646032D01*
X5448941Y-1655305D01*
X5448940Y-1655305D01*
X5444233Y-1655523D01*
X5374536Y-1672320D01*
X5244665Y-1703619D01*
X5244660Y-1703621D01*
X5240082Y-1704724D01*
X5048919Y-1791640D01*
X4877640Y-1913137D01*
X4806337Y-1987621D01*
X4735683Y-2061427D01*
X4735680Y-2061431D01*
X4732425Y-2064831D01*
X4618515Y-2241246D01*
X4616751Y-2245623D01*
X4548951Y-2413857D01*
X4540019Y-2436019D01*
X4539116Y-2440643D01*
X4500452Y-2638627D01*
X4500451Y-2638634D01*
X4499770Y-2642122D01*
X4499500Y-2647643D01*
X4499500Y-3052469D01*
X4200000Y-3052469D01*
X4200000Y-3015680D01*
X4195878Y-3002995D01*
X4191757Y-3000000D01*
X3240680Y-3000000D01*
X3227995Y-3004122D01*
X3225000Y-3008243D01*
X3225000Y-4084320D01*
X2975000Y-4084320D01*
X2975000Y-3015680D01*
X2970878Y-3002995D01*
X2966757Y-3000000D01*
X2015680Y-3000000D01*
X2002995Y-3004122D01*
X2000000Y-3008243D01*
X2000000Y-3644657D01*
X250000Y-3644657D01*
X250000Y-2734320D01*
X2000000Y-2734320D01*
X2004122Y-2747005D01*
X2008243Y-2750000D01*
X2959320Y-2750000D01*
X2972005Y-2745878D01*
X2975000Y-2741757D01*
X2975000Y-2734320D01*
X3225000Y-2734320D01*
X3229122Y-2747005D01*
X3233243Y-2750000D01*
X4184320Y-2750000D01*
X4197005Y-2745878D01*
X4200000Y-2741757D01*
X4200000Y-2105343D01*
X4199711Y-2100009D01*
X4194029Y-2047702D01*
X4191178Y-2035713D01*
X4145557Y-1914018D01*
X4138857Y-1901781D01*
X4061419Y-1798455D01*
X4051545Y-1788581D01*
X3948219Y-1711143D01*
X3935982Y-1704443D01*
X3814287Y-1658822D01*
X3802298Y-1655971D01*
X3749991Y-1650289D01*
X3744657Y-1650000D01*
X3240680Y-1650000D01*
X3227995Y-1654122D01*
X3225000Y-1658243D01*
X3225000Y-2734320D01*
X2975000Y-2734320D01*
X2975000Y-1665680D01*
X2970878Y-1652995D01*
X2966757Y-1650000D01*
X2455343Y-1650000D01*
X2450009Y-1650289D01*
X2397702Y-1655971D01*
X2385713Y-1658822D01*
X2264018Y-1704443D01*
X2251781Y-1711143D01*
X2148455Y-1788581D01*
X2138581Y-1798455D01*
X2061143Y-1901781D01*
X2054443Y-1914018D01*
X2008822Y-2035713D01*
X2005971Y-2047702D01*
X2000289Y-2100009D01*
X2000000Y-2105343D01*
X2000000Y-2734320D01*
X250000Y-2734320D01*
X250000Y-2534376D01*
X251902Y-2515062D01*
X252996Y-2509562D01*
X254898Y-2500000D01*
X252996Y-2490438D01*
X252996Y-2484258D01*
X251914Y-2468358D01*
X258306Y-2362686D01*
X266044Y-2234762D01*
X267483Y-2222910D01*
X314303Y-1967424D01*
X317162Y-1955823D01*
X330464Y-1913137D01*
X394431Y-1707858D01*
X398670Y-1696680D01*
X505268Y-1459830D01*
X510824Y-1449245D01*
X645187Y-1226981D01*
X651978Y-1217142D01*
X812153Y-1012694D01*
X820080Y-1003745D01*
X1003745Y-820080D01*
X1012694Y-812153D01*
X1217142Y-651978D01*
X1226981Y-645187D01*
X1449245Y-510824D01*
X1459830Y-505268D01*
X1696680Y-398670D01*
X1707858Y-394431D01*
X1750508Y-381141D01*
X1955830Y-317160D01*
X1967424Y-314303D01*
X2222910Y-267483D01*
X2234762Y-266044D01*
X2408334Y-255545D01*
X2468358Y-251914D01*
X2484258Y-252996D01*
X2490438Y-252996D01*
X2500000Y-254898D01*
X2509562Y-252996D01*
X2515062Y-251902D01*
X2534376Y-250000D01*
X15701000Y-250000D01*
X15759191Y-268907D01*
G37*
%TD.AperFunction*%
%TA.AperFunction,Conductor*%
G36*
X21239341Y-27492757D02*
G01*
X21285448Y-27532978D01*
X21299500Y-27583819D01*
X21299500Y-28769509D01*
X21280593Y-28827700D01*
X21231093Y-28863664D01*
X21169907Y-28863664D01*
X21152205Y-28854876D01*
X21151912Y-28855429D01*
X21018041Y-28784547D01*
X21018038Y-28784546D01*
X21012767Y-28781755D01*
X20936415Y-28762577D01*
X20865854Y-28744853D01*
X20865851Y-28744853D01*
X20860064Y-28743399D01*
X20780500Y-28742983D01*
X20708586Y-28742606D01*
X20708584Y-28742606D01*
X20702620Y-28742575D01*
X20549524Y-28779330D01*
X20494612Y-28807672D01*
X20414921Y-28848803D01*
X20414919Y-28848805D01*
X20409615Y-28851542D01*
X20290970Y-28955043D01*
X20200437Y-29083858D01*
X20143245Y-29230549D01*
X20122694Y-29386648D01*
X20123349Y-29392581D01*
X20123349Y-29392585D01*
X20134023Y-29489272D01*
X20121615Y-29549186D01*
X20105625Y-29570139D01*
X19755260Y-29920504D01*
X19700743Y-29948281D01*
X19685256Y-29949500D01*
X16000554Y-29949500D01*
X15942363Y-29930593D01*
X15918966Y-29906574D01*
X15894915Y-29871579D01*
X15894910Y-29871573D01*
X15891531Y-29866657D01*
X15887078Y-29862690D01*
X15887075Y-29862686D01*
X15819557Y-29802531D01*
X15773976Y-29761919D01*
X15761462Y-29755293D01*
X15640105Y-29691037D01*
X15640102Y-29691036D01*
X15634831Y-29688245D01*
X15558479Y-29669067D01*
X15487918Y-29651343D01*
X15487915Y-29651343D01*
X15482128Y-29649889D01*
X15402564Y-29649473D01*
X15330650Y-29649096D01*
X15330648Y-29649096D01*
X15324684Y-29649065D01*
X15171588Y-29685820D01*
X15099035Y-29723267D01*
X15036985Y-29755293D01*
X15036983Y-29755295D01*
X15031679Y-29758032D01*
X14913034Y-29861533D01*
X14822501Y-29990348D01*
X14765309Y-30137039D01*
X14764531Y-30142952D01*
X14764454Y-30143534D01*
X14764296Y-30143864D01*
X14763046Y-30148735D01*
X14762090Y-30148490D01*
X14738113Y-30198759D01*
X14684342Y-30227953D01*
X14623680Y-30219967D01*
X14596297Y-30200615D01*
X14279496Y-29883814D01*
X14251719Y-29829297D01*
X14250500Y-29813810D01*
X14250500Y-28886190D01*
X14269407Y-28827999D01*
X14279496Y-28816186D01*
X14511518Y-28584164D01*
X14566035Y-28556387D01*
X14626467Y-28565958D01*
X14669732Y-28609223D01*
X14674492Y-28620146D01*
X14692819Y-28670226D01*
X14695294Y-28676990D01*
X14698623Y-28681944D01*
X14779780Y-28802719D01*
X14779783Y-28802723D01*
X14783109Y-28807672D01*
X14787520Y-28811686D01*
X14787522Y-28811688D01*
X14852054Y-28870407D01*
X14899561Y-28913635D01*
X14968603Y-28951122D01*
X15032681Y-28985914D01*
X15032683Y-28985915D01*
X15037927Y-28988762D01*
X15095497Y-29003865D01*
X15184451Y-29027202D01*
X15184455Y-29027202D01*
X15190220Y-29028715D01*
X15196181Y-29028809D01*
X15196184Y-29028809D01*
X15268933Y-29029951D01*
X15347646Y-29031188D01*
X15466945Y-29003865D01*
X15495300Y-28997371D01*
X15495302Y-28997370D01*
X15501119Y-28996038D01*
X15506450Y-28993357D01*
X15636450Y-28927974D01*
X15636452Y-28927973D01*
X15641776Y-28925295D01*
X15761499Y-28823042D01*
X15798731Y-28771228D01*
X15848039Y-28735007D01*
X15879125Y-28730000D01*
X19410610Y-28730000D01*
X19431446Y-28732218D01*
X19432728Y-28732494D01*
X19441819Y-28734451D01*
X19473629Y-28730686D01*
X19479521Y-28730339D01*
X19479521Y-28730336D01*
X19483588Y-28730000D01*
X19487673Y-28730000D01*
X19491699Y-28729330D01*
X19491710Y-28729329D01*
X19505677Y-28727004D01*
X19510284Y-28726348D01*
X19533247Y-28723630D01*
X19549570Y-28721698D01*
X19549571Y-28721698D01*
X19557696Y-28720736D01*
X19564680Y-28717382D01*
X19566012Y-28716961D01*
X19573661Y-28715688D01*
X19615718Y-28692995D01*
X19619841Y-28690895D01*
X19657275Y-28672920D01*
X19657279Y-28672918D01*
X19662884Y-28670226D01*
X19666832Y-28666908D01*
X19668340Y-28665400D01*
X19669629Y-28664218D01*
X19670655Y-28663352D01*
X19676352Y-28660278D01*
X19710369Y-28623479D01*
X19713062Y-28620678D01*
X20790636Y-27543103D01*
X20845153Y-27515326D01*
X20874076Y-27515023D01*
X20875797Y-27515259D01*
X20881569Y-27516773D01*
X20887533Y-27516867D01*
X20887535Y-27516867D01*
X20956422Y-27517949D01*
X21038995Y-27519246D01*
X21178399Y-27487318D01*
X21239341Y-27492757D01*
G37*
%TD.AperFunction*%
%TA.AperFunction,Conductor*%
G36*
X47484938Y-251902D02*
G01*
X47500000Y-254898D01*
X47509562Y-252996D01*
X47515742Y-252996D01*
X47531642Y-251914D01*
X47591666Y-255545D01*
X47765238Y-266044D01*
X47777090Y-267483D01*
X48032576Y-314303D01*
X48044170Y-317160D01*
X48249492Y-381141D01*
X48292142Y-394431D01*
X48303320Y-398670D01*
X48540170Y-505268D01*
X48550755Y-510824D01*
X48773019Y-645187D01*
X48782858Y-651978D01*
X48987306Y-812153D01*
X48996255Y-820080D01*
X49179920Y-1003745D01*
X49187847Y-1012694D01*
X49348022Y-1217142D01*
X49354813Y-1226981D01*
X49489176Y-1449245D01*
X49494732Y-1459830D01*
X49601330Y-1696680D01*
X49605569Y-1707858D01*
X49669537Y-1913137D01*
X49682838Y-1955823D01*
X49685697Y-1967424D01*
X49732517Y-2222910D01*
X49733956Y-2234762D01*
X49741694Y-2362686D01*
X49748086Y-2468358D01*
X49747004Y-2484258D01*
X49747004Y-2490438D01*
X49745102Y-2500000D01*
X49747004Y-2509562D01*
X49748098Y-2515062D01*
X49750000Y-2534376D01*
X49750000Y-2766944D01*
X49739328Y-2799789D01*
X49750000Y-2842751D01*
X49750000Y-2915310D01*
X49731093Y-2973501D01*
X49681593Y-3009465D01*
X49620407Y-3009465D01*
X49580996Y-2985314D01*
X49571956Y-2976274D01*
X49544179Y-2921757D01*
X49543948Y-2892321D01*
X49552988Y-2828802D01*
X49563731Y-2806871D01*
X49552717Y-2778837D01*
X49537080Y-2649616D01*
X49537079Y-2649613D01*
X49536363Y-2643694D01*
X49480710Y-2496412D01*
X49391531Y-2366657D01*
X49387078Y-2362690D01*
X49387075Y-2362686D01*
X49319557Y-2302531D01*
X49273976Y-2261919D01*
X49246589Y-2247418D01*
X49140105Y-2191037D01*
X49140102Y-2191036D01*
X49134831Y-2188245D01*
X49058480Y-2169067D01*
X48987918Y-2151343D01*
X48987915Y-2151343D01*
X48982128Y-2149889D01*
X48902564Y-2149473D01*
X48830650Y-2149096D01*
X48830648Y-2149096D01*
X48824684Y-2149065D01*
X48671588Y-2185820D01*
X48599744Y-2222901D01*
X48536985Y-2255293D01*
X48536983Y-2255295D01*
X48531679Y-2258032D01*
X48413034Y-2361533D01*
X48322501Y-2490348D01*
X48265309Y-2637039D01*
X48264531Y-2642950D01*
X48264530Y-2642953D01*
X48263653Y-2649616D01*
X48244758Y-2793138D01*
X48245413Y-2799071D01*
X48245413Y-2799075D01*
X48248693Y-2828780D01*
X48262035Y-2949633D01*
X48264087Y-2955240D01*
X48301083Y-3056336D01*
X48316143Y-3097490D01*
X48319472Y-3102444D01*
X48400629Y-3223219D01*
X48400632Y-3223223D01*
X48403958Y-3228172D01*
X48408369Y-3232186D01*
X48408371Y-3232188D01*
X48515995Y-3330118D01*
X48520410Y-3334135D01*
X48571994Y-3362143D01*
X48653530Y-3406414D01*
X48653532Y-3406415D01*
X48658776Y-3409262D01*
X48722201Y-3425901D01*
X48805300Y-3447702D01*
X48805304Y-3447702D01*
X48811069Y-3449215D01*
X48817030Y-3449309D01*
X48817033Y-3449309D01*
X48889782Y-3450451D01*
X48968495Y-3451688D01*
X48986316Y-3447606D01*
X49047255Y-3453043D01*
X49078421Y-3474103D01*
X49120504Y-3516186D01*
X49148281Y-3570703D01*
X49149500Y-3586190D01*
X49149500Y-7113810D01*
X49130593Y-7172001D01*
X49120504Y-7183814D01*
X48088334Y-8215984D01*
X48033817Y-8243761D01*
X48018330Y-8244980D01*
X47352468Y-8244980D01*
X47331632Y-8242762D01*
X47330350Y-8242486D01*
X47321259Y-8240529D01*
X47289449Y-8244294D01*
X47283557Y-8244641D01*
X47283557Y-8244644D01*
X47279490Y-8244980D01*
X47275405Y-8244980D01*
X47271379Y-8245650D01*
X47271368Y-8245651D01*
X47257401Y-8247976D01*
X47252789Y-8248633D01*
X47205381Y-8254244D01*
X47198398Y-8257597D01*
X47197064Y-8258019D01*
X47189417Y-8259292D01*
X47182216Y-8263178D01*
X47182215Y-8263178D01*
X47147381Y-8281974D01*
X47143223Y-8284092D01*
X47105808Y-8302058D01*
X47105807Y-8302059D01*
X47100194Y-8304754D01*
X47096246Y-8308072D01*
X47094736Y-8309582D01*
X47093449Y-8310762D01*
X47092423Y-8311628D01*
X47086726Y-8314702D01*
X47081175Y-8320707D01*
X47081170Y-8320711D01*
X47052711Y-8351498D01*
X47050017Y-8354301D01*
X46915214Y-8489104D01*
X46860697Y-8516881D01*
X46800265Y-8507310D01*
X46757000Y-8464045D01*
X46746927Y-8430993D01*
X46737080Y-8349616D01*
X46737079Y-8349613D01*
X46736363Y-8343694D01*
X46727679Y-8320711D01*
X46682820Y-8201996D01*
X46680710Y-8196412D01*
X46591531Y-8066657D01*
X46587078Y-8062690D01*
X46587075Y-8062686D01*
X46480140Y-7967411D01*
X46473976Y-7961919D01*
X46350256Y-7896412D01*
X46340105Y-7891037D01*
X46340102Y-7891036D01*
X46334831Y-7888245D01*
X46258479Y-7869067D01*
X46187918Y-7851343D01*
X46187915Y-7851343D01*
X46182128Y-7849889D01*
X46102564Y-7849473D01*
X46030650Y-7849096D01*
X46030648Y-7849096D01*
X46024684Y-7849065D01*
X45871588Y-7885820D01*
X45840242Y-7901999D01*
X45736985Y-7955293D01*
X45736983Y-7955295D01*
X45731679Y-7958032D01*
X45613034Y-8061533D01*
X45522501Y-8190348D01*
X45520334Y-8195906D01*
X45517960Y-8201996D01*
X45465309Y-8337039D01*
X45464531Y-8342950D01*
X45464530Y-8342953D01*
X45463668Y-8349500D01*
X45444758Y-8493138D01*
X45445413Y-8499071D01*
X45445413Y-8499075D01*
X45461380Y-8643702D01*
X45462035Y-8649633D01*
X45464086Y-8655237D01*
X45467318Y-8664069D01*
X45470986Y-8716863D01*
X45470444Y-8718407D01*
X45469999Y-8723545D01*
X45469999Y-8725685D01*
X45469925Y-8727402D01*
X45469810Y-8728763D01*
X45467955Y-8734965D01*
X45468276Y-8743136D01*
X45469923Y-8785055D01*
X45469999Y-8788942D01*
X45469999Y-8932487D01*
X45451092Y-8990678D01*
X45401592Y-9026642D01*
X45340406Y-9026642D01*
X45291263Y-8991166D01*
X45198159Y-8864651D01*
X45190366Y-8856294D01*
X45065852Y-8750512D01*
X45056340Y-8744169D01*
X44910833Y-8669870D01*
X44900123Y-8665886D01*
X44740112Y-8626731D01*
X44731433Y-8625411D01*
X44726322Y-8625094D01*
X44723288Y-8625000D01*
X44233180Y-8625000D01*
X44220495Y-8629122D01*
X44217500Y-8633243D01*
X44217500Y-10109320D01*
X44221622Y-10122005D01*
X44225984Y-10125175D01*
X44280317Y-10152857D01*
X44308096Y-10207373D01*
X44298526Y-10267805D01*
X44270584Y-10301403D01*
X44167784Y-10380284D01*
X44129921Y-10429628D01*
X44076279Y-10499534D01*
X44076277Y-10499538D01*
X44072331Y-10504680D01*
X44012327Y-10649543D01*
X43991861Y-10805000D01*
X44012327Y-10960457D01*
X44072331Y-11105319D01*
X44167784Y-11229716D01*
X44292181Y-11325169D01*
X44437043Y-11385173D01*
X44553465Y-11400500D01*
X44631535Y-11400500D01*
X44655209Y-11397383D01*
X44715369Y-11408533D01*
X44757486Y-11452914D01*
X44765473Y-11513576D01*
X44749128Y-11552461D01*
X44722501Y-11590348D01*
X44665309Y-11737039D01*
X44664531Y-11742950D01*
X44664530Y-11742953D01*
X44663598Y-11750032D01*
X44644758Y-11893138D01*
X44661690Y-12046508D01*
X44661690Y-12046509D01*
X44662035Y-12049633D01*
X44661422Y-12049701D01*
X44656665Y-12106385D01*
X44616687Y-12152704D01*
X44576778Y-12166369D01*
X44573155Y-12166788D01*
X44567189Y-12166757D01*
X44414093Y-12203512D01*
X44341540Y-12240959D01*
X44279490Y-12272985D01*
X44279488Y-12272987D01*
X44274184Y-12275724D01*
X44155539Y-12379225D01*
X44065006Y-12508040D01*
X44007814Y-12654731D01*
X44007036Y-12660642D01*
X44007035Y-12660645D01*
X43998386Y-12726343D01*
X43987263Y-12810830D01*
X44004540Y-12967325D01*
X44058648Y-13115182D01*
X44061977Y-13120136D01*
X44143134Y-13240911D01*
X44143137Y-13240915D01*
X44146463Y-13245864D01*
X44150873Y-13249876D01*
X44150880Y-13249885D01*
X44259633Y-13348842D01*
X44289948Y-13401989D01*
X44292005Y-13422065D01*
X44292005Y-13947629D01*
X44273098Y-14005820D01*
X44258086Y-14022231D01*
X44252020Y-14027523D01*
X44213034Y-14061533D01*
X44122501Y-14190348D01*
X44065309Y-14337039D01*
X44044758Y-14493138D01*
X44062035Y-14649633D01*
X44116143Y-14797490D01*
X44119472Y-14802444D01*
X44200629Y-14923219D01*
X44200632Y-14923223D01*
X44203958Y-14928172D01*
X44208369Y-14932186D01*
X44208371Y-14932188D01*
X44315995Y-15030118D01*
X44320410Y-15034135D01*
X44325653Y-15036982D01*
X44325659Y-15036986D01*
X44332187Y-15040530D01*
X44374303Y-15084912D01*
X44382289Y-15145574D01*
X44377185Y-15163494D01*
X44331935Y-15279555D01*
X44311384Y-15435654D01*
X44312039Y-15441587D01*
X44312039Y-15441591D01*
X44317498Y-15491037D01*
X44328661Y-15592149D01*
X44382769Y-15740006D01*
X44466331Y-15864360D01*
X44483094Y-15923202D01*
X44462067Y-15980661D01*
X44422046Y-16011039D01*
X44292181Y-16064831D01*
X44167784Y-16160284D01*
X44120057Y-16222482D01*
X44076279Y-16279534D01*
X44076277Y-16279538D01*
X44072331Y-16284680D01*
X44012327Y-16429543D01*
X43991861Y-16585000D01*
X44012327Y-16740457D01*
X44014811Y-16746454D01*
X44020878Y-16761102D01*
X44072331Y-16885319D01*
X44167784Y-17009716D01*
X44271679Y-17089437D01*
X44306334Y-17139860D01*
X44304733Y-17201025D01*
X44267486Y-17249566D01*
X44242004Y-17262133D01*
X44220494Y-17269122D01*
X44217500Y-17273243D01*
X44217500Y-17874320D01*
X44221622Y-17887005D01*
X44225743Y-17890000D01*
X45366359Y-17890000D01*
X45379044Y-17885878D01*
X45379483Y-17885274D01*
X45379999Y-17878127D01*
X45367858Y-17807472D01*
X45364632Y-17796508D01*
X45300660Y-17646166D01*
X45295002Y-17636247D01*
X45198159Y-17504651D01*
X45190366Y-17496294D01*
X45065852Y-17390512D01*
X45056340Y-17384169D01*
X44910833Y-17309870D01*
X44900118Y-17305884D01*
X44884687Y-17302108D01*
X44832659Y-17269911D01*
X44809492Y-17213281D01*
X44824036Y-17153849D01*
X44870334Y-17114483D01*
X44892819Y-17105169D01*
X45017216Y-17009716D01*
X45068544Y-16942824D01*
X45108721Y-16890466D01*
X45108723Y-16890462D01*
X45112669Y-16885320D01*
X45172673Y-16740457D01*
X45193139Y-16585000D01*
X45172673Y-16429543D01*
X45170188Y-16423543D01*
X45161402Y-16402331D01*
X45156601Y-16341334D01*
X45188571Y-16289165D01*
X45245099Y-16265751D01*
X45304594Y-16280035D01*
X45322870Y-16294442D01*
X45940993Y-16912565D01*
X45968770Y-16967082D01*
X45969989Y-16982569D01*
X45969989Y-18590868D01*
X45967771Y-18611704D01*
X45965538Y-18622077D01*
X45968373Y-18646028D01*
X45969303Y-18653887D01*
X45969650Y-18659779D01*
X45969653Y-18659779D01*
X45969989Y-18663846D01*
X45969989Y-18667931D01*
X45970659Y-18671957D01*
X45970660Y-18671968D01*
X45972985Y-18685935D01*
X45973641Y-18690542D01*
X45976118Y-18711463D01*
X45978139Y-18728538D01*
X45979253Y-18737954D01*
X45982607Y-18744938D01*
X45983028Y-18746270D01*
X45984301Y-18753919D01*
X46006994Y-18795976D01*
X46009094Y-18800099D01*
X46027069Y-18837533D01*
X46027071Y-18837537D01*
X46029763Y-18843142D01*
X46033081Y-18847090D01*
X46034589Y-18848598D01*
X46035771Y-18849887D01*
X46036637Y-18850913D01*
X46039711Y-18856610D01*
X46045716Y-18862161D01*
X46045720Y-18862166D01*
X46076507Y-18890625D01*
X46079310Y-18893319D01*
X46253039Y-19067048D01*
X46280816Y-19121565D01*
X46271245Y-19181997D01*
X46248115Y-19211655D01*
X46154023Y-19293737D01*
X46063490Y-19422552D01*
X46006298Y-19569243D01*
X46005520Y-19575154D01*
X46005519Y-19575157D01*
X45998540Y-19628172D01*
X45985747Y-19725342D01*
X45986402Y-19731275D01*
X45986402Y-19731279D01*
X46002319Y-19875455D01*
X46003024Y-19881837D01*
X46005076Y-19887444D01*
X46054210Y-20021709D01*
X46057132Y-20029694D01*
X46060461Y-20034648D01*
X46141618Y-20155423D01*
X46141621Y-20155427D01*
X46144947Y-20160376D01*
X46149358Y-20164390D01*
X46149360Y-20164392D01*
X46256984Y-20262322D01*
X46261399Y-20266339D01*
X46299157Y-20286840D01*
X46394519Y-20338618D01*
X46394521Y-20338619D01*
X46399765Y-20341466D01*
X46490237Y-20365201D01*
X46516600Y-20372117D01*
X46568088Y-20405172D01*
X46590478Y-20467877D01*
X46590478Y-24772832D01*
X46571571Y-24831023D01*
X46561482Y-24842836D01*
X45086063Y-26318255D01*
X45069760Y-26331420D01*
X45067726Y-26332733D01*
X45067722Y-26332736D01*
X45060848Y-26337175D01*
X45041015Y-26362332D01*
X45037101Y-26366737D01*
X45037102Y-26366738D01*
X45034449Y-26369869D01*
X45031572Y-26372746D01*
X45029207Y-26376056D01*
X45029205Y-26376058D01*
X45026533Y-26379797D01*
X45020956Y-26387601D01*
X45018170Y-26391312D01*
X44988608Y-26428811D01*
X44986042Y-26436118D01*
X44985395Y-26437363D01*
X44980889Y-26443669D01*
X44973341Y-26468907D01*
X44967208Y-26489415D01*
X44965767Y-26493851D01*
X44953040Y-26530093D01*
X44949945Y-26538906D01*
X44949500Y-26544044D01*
X44949500Y-26546182D01*
X44949426Y-26547901D01*
X44949311Y-26549262D01*
X44947456Y-26555464D01*
X44947777Y-26563635D01*
X44949424Y-26605554D01*
X44949500Y-26609441D01*
X44949500Y-26697473D01*
X44930593Y-26755664D01*
X44915580Y-26772076D01*
X44813034Y-26861533D01*
X44722501Y-26990348D01*
X44665309Y-27137039D01*
X44664531Y-27142950D01*
X44664530Y-27142953D01*
X44661230Y-27168020D01*
X44644758Y-27293138D01*
X44645413Y-27299071D01*
X44645413Y-27299075D01*
X44658304Y-27415835D01*
X44662035Y-27449633D01*
X44669341Y-27469598D01*
X44712702Y-27588086D01*
X44716143Y-27597490D01*
X44719472Y-27602444D01*
X44800629Y-27723219D01*
X44800632Y-27723223D01*
X44803958Y-27728172D01*
X44808369Y-27732186D01*
X44808371Y-27732188D01*
X44907690Y-27822561D01*
X44920410Y-27834135D01*
X44941885Y-27845795D01*
X45053530Y-27906414D01*
X45053532Y-27906415D01*
X45058776Y-27909262D01*
X45117539Y-27924678D01*
X45205300Y-27947702D01*
X45205304Y-27947702D01*
X45211069Y-27949215D01*
X45217030Y-27949309D01*
X45217033Y-27949309D01*
X45289782Y-27950451D01*
X45368495Y-27951688D01*
X45379293Y-27949215D01*
X45516149Y-27917871D01*
X45516151Y-27917870D01*
X45521968Y-27916538D01*
X45527299Y-27913857D01*
X45657299Y-27848474D01*
X45657301Y-27848473D01*
X45662625Y-27845795D01*
X45680496Y-27830532D01*
X45777810Y-27747418D01*
X45777811Y-27747417D01*
X45782348Y-27743542D01*
X45874224Y-27615683D01*
X45887034Y-27583819D01*
X45930726Y-27475131D01*
X45930727Y-27475129D01*
X45932950Y-27469598D01*
X45934994Y-27455240D01*
X45954678Y-27316929D01*
X45954678Y-27316925D01*
X45955134Y-27313723D01*
X45955278Y-27300000D01*
X45943953Y-27206412D01*
X45937080Y-27149616D01*
X45937079Y-27149613D01*
X45936363Y-27143694D01*
X45901746Y-27052081D01*
X45882820Y-27001996D01*
X45880710Y-26996412D01*
X45819546Y-26907419D01*
X45794912Y-26871576D01*
X45794911Y-26871575D01*
X45791531Y-26866657D01*
X45787076Y-26862688D01*
X45787071Y-26862682D01*
X45731013Y-26812737D01*
X45700143Y-26759910D01*
X45706219Y-26699028D01*
X45726866Y-26668816D01*
X46176507Y-26219175D01*
X46231024Y-26191398D01*
X46291456Y-26200969D01*
X46334721Y-26244234D01*
X46345273Y-26289223D01*
X46344758Y-26293138D01*
X46345413Y-26299071D01*
X46345413Y-26299074D01*
X46350329Y-26343601D01*
X46362035Y-26449633D01*
X46364087Y-26455240D01*
X46403754Y-26563635D01*
X46416143Y-26597490D01*
X46419472Y-26602444D01*
X46419474Y-26602448D01*
X46459933Y-26662658D01*
X46476695Y-26721502D01*
X46455668Y-26778961D01*
X46442842Y-26792477D01*
X46395317Y-26833936D01*
X46304784Y-26962751D01*
X46247592Y-27109442D01*
X46246814Y-27115353D01*
X46246813Y-27115356D01*
X46242451Y-27148491D01*
X46227041Y-27265541D01*
X46227696Y-27271474D01*
X46227696Y-27271478D01*
X46230743Y-27299075D01*
X46244318Y-27422036D01*
X46251372Y-27441312D01*
X46277691Y-27513231D01*
X46298426Y-27569893D01*
X46301755Y-27574847D01*
X46382912Y-27695622D01*
X46382915Y-27695626D01*
X46386241Y-27700575D01*
X46390652Y-27704589D01*
X46390654Y-27704591D01*
X46493125Y-27797832D01*
X46502693Y-27806538D01*
X46567860Y-27841921D01*
X46635813Y-27878817D01*
X46635815Y-27878818D01*
X46641059Y-27881665D01*
X46708688Y-27899407D01*
X46787583Y-27920105D01*
X46787587Y-27920105D01*
X46793352Y-27921618D01*
X46799313Y-27921712D01*
X46799316Y-27921712D01*
X46872065Y-27922855D01*
X46950778Y-27924091D01*
X46978259Y-27917797D01*
X47098432Y-27890274D01*
X47098434Y-27890273D01*
X47104251Y-27888941D01*
X47109582Y-27886260D01*
X47239582Y-27820877D01*
X47239584Y-27820876D01*
X47244908Y-27818198D01*
X47249444Y-27814324D01*
X47360093Y-27719821D01*
X47360094Y-27719820D01*
X47364631Y-27715945D01*
X47456507Y-27588086D01*
X47478661Y-27532978D01*
X47508084Y-27459785D01*
X47529936Y-27426707D01*
X47913937Y-27042706D01*
X47930240Y-27029541D01*
X47932274Y-27028228D01*
X47932278Y-27028225D01*
X47939152Y-27023786D01*
X47958985Y-26998629D01*
X47962899Y-26994224D01*
X47962898Y-26994223D01*
X47965551Y-26991092D01*
X47968428Y-26988215D01*
X47979044Y-26973360D01*
X47981835Y-26969642D01*
X48006327Y-26938575D01*
X48006327Y-26938574D01*
X48011392Y-26932150D01*
X48013958Y-26924843D01*
X48014605Y-26923597D01*
X48019111Y-26917292D01*
X48032788Y-26871557D01*
X48034229Y-26867122D01*
X48047993Y-26827928D01*
X48047994Y-26827925D01*
X48050055Y-26822055D01*
X48050500Y-26816917D01*
X48050500Y-26814781D01*
X48050575Y-26813042D01*
X48050689Y-26811699D01*
X48052543Y-26805498D01*
X48052168Y-26795938D01*
X48050576Y-26755423D01*
X48050500Y-26751537D01*
X48050500Y-18977569D01*
X48052718Y-18956733D01*
X48053228Y-18954362D01*
X48054951Y-18946360D01*
X48051186Y-18914550D01*
X48050839Y-18908658D01*
X48050836Y-18908658D01*
X48050500Y-18904591D01*
X48050500Y-18900506D01*
X48049830Y-18896480D01*
X48049829Y-18896469D01*
X48047504Y-18882502D01*
X48046846Y-18877885D01*
X48046761Y-18877165D01*
X48046580Y-18875637D01*
X48058516Y-18815628D01*
X48103445Y-18774095D01*
X48117301Y-18771055D01*
X48116908Y-18769845D01*
X48144505Y-18760878D01*
X48147500Y-18756757D01*
X48147500Y-18749320D01*
X48397500Y-18749320D01*
X48401622Y-18762005D01*
X48405743Y-18765000D01*
X48713429Y-18765000D01*
X48719141Y-18764668D01*
X48840495Y-18750520D01*
X48851623Y-18747889D01*
X49005198Y-18692144D01*
X49015419Y-18687026D01*
X49152050Y-18597446D01*
X49160820Y-18590113D01*
X49273179Y-18471504D01*
X49280026Y-18462352D01*
X49362088Y-18321074D01*
X49366645Y-18310593D01*
X49414007Y-18154216D01*
X49414362Y-18152239D01*
X49411913Y-18142732D01*
X49409121Y-18140427D01*
X49406878Y-18140000D01*
X48413180Y-18140000D01*
X48400495Y-18144122D01*
X48397500Y-18148243D01*
X48397500Y-18749320D01*
X48147500Y-18749320D01*
X48147500Y-17874320D01*
X48397500Y-17874320D01*
X48401622Y-17887005D01*
X48405743Y-17890000D01*
X49396359Y-17890000D01*
X49409044Y-17885878D01*
X49409483Y-17885274D01*
X49409999Y-17878127D01*
X49397858Y-17807472D01*
X49394632Y-17796508D01*
X49330660Y-17646166D01*
X49325002Y-17636247D01*
X49228159Y-17504651D01*
X49220366Y-17496294D01*
X49095852Y-17390512D01*
X49086340Y-17384169D01*
X48940833Y-17309870D01*
X48930123Y-17305886D01*
X48770112Y-17266731D01*
X48761433Y-17265411D01*
X48756322Y-17265094D01*
X48753288Y-17265000D01*
X48413180Y-17265000D01*
X48400495Y-17269122D01*
X48397500Y-17273243D01*
X48397500Y-17874320D01*
X48147500Y-17874320D01*
X48147500Y-17280680D01*
X48143378Y-17267995D01*
X48139257Y-17265000D01*
X47831571Y-17265000D01*
X47825859Y-17265332D01*
X47704505Y-17279480D01*
X47693377Y-17282111D01*
X47575551Y-17324880D01*
X47514401Y-17326962D01*
X47463706Y-17292703D01*
X47442772Y-17231821D01*
X47442772Y-11001186D01*
X47444990Y-10980348D01*
X47445502Y-10977972D01*
X47445502Y-10977971D01*
X47447224Y-10969973D01*
X47443458Y-10938154D01*
X47443111Y-10932276D01*
X47443109Y-10932276D01*
X47442772Y-10928198D01*
X47442772Y-10924118D01*
X47442000Y-10919477D01*
X47439781Y-10906151D01*
X47439123Y-10901530D01*
X47434664Y-10863857D01*
X47433509Y-10854095D01*
X47430154Y-10847110D01*
X47429732Y-10845776D01*
X47428460Y-10838130D01*
X47405777Y-10796092D01*
X47403672Y-10791959D01*
X47400962Y-10786315D01*
X47382999Y-10748907D01*
X47379680Y-10744959D01*
X47378175Y-10743454D01*
X47376991Y-10742163D01*
X47376124Y-10741135D01*
X47373050Y-10735439D01*
X47367045Y-10729888D01*
X47367041Y-10729883D01*
X47336254Y-10701424D01*
X47333451Y-10698730D01*
X46771806Y-10137085D01*
X46744029Y-10082568D01*
X46753600Y-10022136D01*
X46797327Y-9978638D01*
X46857293Y-9948478D01*
X46857301Y-9948473D01*
X46862625Y-9945795D01*
X46874137Y-9935963D01*
X46977810Y-9847418D01*
X46977811Y-9847417D01*
X46982348Y-9843542D01*
X46985827Y-9838701D01*
X46985833Y-9838694D01*
X47053398Y-9744666D01*
X47102709Y-9708443D01*
X47163893Y-9708122D01*
X47213581Y-9743827D01*
X47219790Y-9753389D01*
X47219998Y-9753753D01*
X47316841Y-9885349D01*
X47324634Y-9893706D01*
X47449148Y-9999488D01*
X47458660Y-10005831D01*
X47604167Y-10080130D01*
X47614877Y-10084114D01*
X47774888Y-10123269D01*
X47783567Y-10124589D01*
X47788678Y-10124906D01*
X47791712Y-10125000D01*
X48131820Y-10125000D01*
X48144505Y-10120878D01*
X48147500Y-10116757D01*
X48147500Y-10109320D01*
X48397500Y-10109320D01*
X48401622Y-10122005D01*
X48405743Y-10125000D01*
X48713429Y-10125000D01*
X48719141Y-10124668D01*
X48840495Y-10110520D01*
X48851623Y-10107889D01*
X49005198Y-10052144D01*
X49015419Y-10047026D01*
X49152050Y-9957446D01*
X49160820Y-9950113D01*
X49273179Y-9831504D01*
X49280026Y-9822352D01*
X49362088Y-9681074D01*
X49366645Y-9670593D01*
X49414007Y-9514216D01*
X49414362Y-9512239D01*
X49411913Y-9502732D01*
X49409121Y-9500427D01*
X49406878Y-9500000D01*
X48413180Y-9500000D01*
X48400495Y-9504122D01*
X48397500Y-9508243D01*
X48397500Y-10109320D01*
X48147500Y-10109320D01*
X48147500Y-9349000D01*
X48166407Y-9290809D01*
X48215907Y-9254845D01*
X48246500Y-9250000D01*
X49396359Y-9250000D01*
X49409044Y-9245878D01*
X49409483Y-9245274D01*
X49409999Y-9238127D01*
X49397858Y-9167472D01*
X49394632Y-9156508D01*
X49330660Y-9006166D01*
X49325002Y-8996247D01*
X49228159Y-8864651D01*
X49220366Y-8856294D01*
X49095852Y-8750512D01*
X49086340Y-8744169D01*
X48940833Y-8669870D01*
X48930124Y-8665887D01*
X48859674Y-8648647D01*
X48807646Y-8616450D01*
X48784478Y-8559820D01*
X48799022Y-8500388D01*
X48813202Y-8482480D01*
X49580996Y-7714686D01*
X49635513Y-7686909D01*
X49695945Y-7696480D01*
X49739210Y-7739745D01*
X49750000Y-7784690D01*
X49750000Y-15624228D01*
X49749987Y-15625811D01*
X49538074Y-28870407D01*
X49537559Y-28902584D01*
X49517724Y-28960465D01*
X49467654Y-28995632D01*
X49438572Y-29000000D01*
X37534690Y-29000000D01*
X37476499Y-28981093D01*
X37440535Y-28931593D01*
X37440535Y-28870407D01*
X37464686Y-28830996D01*
X38252470Y-28043212D01*
X38268773Y-28030047D01*
X38270807Y-28028734D01*
X38270811Y-28028731D01*
X38277685Y-28024292D01*
X38297517Y-27999135D01*
X38301433Y-27994729D01*
X38301432Y-27994728D01*
X38304083Y-27991599D01*
X38306962Y-27988720D01*
X38309331Y-27985405D01*
X38317570Y-27973876D01*
X38320369Y-27970148D01*
X38335971Y-27950356D01*
X38349925Y-27932656D01*
X38352490Y-27925353D01*
X38353142Y-27924098D01*
X38357644Y-27917797D01*
X38371324Y-27872055D01*
X38372765Y-27867621D01*
X38386525Y-27828437D01*
X38386526Y-27828433D01*
X38388588Y-27822561D01*
X38389033Y-27817423D01*
X38389033Y-27815285D01*
X38389107Y-27813566D01*
X38389222Y-27812205D01*
X38391077Y-27806003D01*
X38389109Y-27755913D01*
X38389033Y-27752026D01*
X38389033Y-20181559D01*
X38391251Y-20160723D01*
X38391761Y-20158352D01*
X38393484Y-20150350D01*
X38389719Y-20118540D01*
X38389372Y-20112648D01*
X38389369Y-20112648D01*
X38389033Y-20108581D01*
X38389033Y-20104496D01*
X38388363Y-20100470D01*
X38388362Y-20100459D01*
X38386037Y-20086492D01*
X38385379Y-20081873D01*
X38379769Y-20034472D01*
X38376416Y-20027489D01*
X38375994Y-20026155D01*
X38374721Y-20018508D01*
X38366856Y-20003931D01*
X38352039Y-19976472D01*
X38349921Y-19972314D01*
X38331955Y-19934899D01*
X38331954Y-19934898D01*
X38329259Y-19929285D01*
X38325941Y-19925337D01*
X38324431Y-19923827D01*
X38323251Y-19922540D01*
X38322385Y-19921514D01*
X38319311Y-19915817D01*
X38313306Y-19910266D01*
X38313302Y-19910261D01*
X38282515Y-19881802D01*
X38279712Y-19879108D01*
X37380468Y-18979864D01*
X37367303Y-18963561D01*
X37365990Y-18961527D01*
X37365987Y-18961523D01*
X37361548Y-18954649D01*
X37336391Y-18934816D01*
X37331986Y-18930902D01*
X37331985Y-18930903D01*
X37328854Y-18928250D01*
X37325977Y-18925373D01*
X37311122Y-18914757D01*
X37307404Y-18911966D01*
X37304127Y-18909382D01*
X37283751Y-18893319D01*
X37276337Y-18887474D01*
X37276336Y-18887474D01*
X37269912Y-18882409D01*
X37262605Y-18879843D01*
X37261360Y-18879196D01*
X37255054Y-18874690D01*
X37223265Y-18865183D01*
X37209308Y-18861009D01*
X37204872Y-18859568D01*
X37171951Y-18848007D01*
X37123312Y-18810887D01*
X37105780Y-18752267D01*
X37126053Y-18694538D01*
X37140451Y-18679325D01*
X37182348Y-18643542D01*
X37249236Y-18550458D01*
X37270740Y-18520532D01*
X37270741Y-18520530D01*
X37274224Y-18515683D01*
X37285075Y-18488692D01*
X37330726Y-18375131D01*
X37330727Y-18375129D01*
X37332950Y-18369598D01*
X37334994Y-18355240D01*
X37354678Y-18216929D01*
X37354678Y-18216925D01*
X37355134Y-18213723D01*
X37355278Y-18200000D01*
X37347800Y-18138209D01*
X37359579Y-18078170D01*
X37376079Y-18056312D01*
X39139518Y-16292873D01*
X39194035Y-16265096D01*
X39254467Y-16274667D01*
X39297732Y-16317932D01*
X39308522Y-16362877D01*
X39308522Y-26795938D01*
X39289615Y-26854129D01*
X39240115Y-26890093D01*
X39232631Y-26892203D01*
X39223371Y-26894426D01*
X39223369Y-26894427D01*
X39217566Y-26895820D01*
X39166568Y-26922142D01*
X39082963Y-26965293D01*
X39082961Y-26965295D01*
X39077657Y-26968032D01*
X38959012Y-27071533D01*
X38868479Y-27200348D01*
X38811287Y-27347039D01*
X38810509Y-27352950D01*
X38810508Y-27352953D01*
X38808062Y-27371535D01*
X38790736Y-27503138D01*
X38791391Y-27509071D01*
X38791391Y-27509075D01*
X38801152Y-27597490D01*
X38808013Y-27659633D01*
X38815319Y-27679598D01*
X38858587Y-27797832D01*
X38862121Y-27807490D01*
X38865450Y-27812444D01*
X38946607Y-27933219D01*
X38946610Y-27933223D01*
X38949936Y-27938172D01*
X38954347Y-27942186D01*
X38954349Y-27942188D01*
X39050905Y-28030047D01*
X39066388Y-28044135D01*
X39087863Y-28055795D01*
X39199508Y-28116414D01*
X39199510Y-28116415D01*
X39204754Y-28119262D01*
X39284512Y-28140186D01*
X39351278Y-28157702D01*
X39351282Y-28157702D01*
X39357047Y-28159215D01*
X39363008Y-28159309D01*
X39363011Y-28159309D01*
X39435760Y-28160452D01*
X39514473Y-28161688D01*
X39531877Y-28157702D01*
X39662127Y-28127871D01*
X39662129Y-28127870D01*
X39667946Y-28126538D01*
X39673277Y-28123857D01*
X39803277Y-28058474D01*
X39803279Y-28058473D01*
X39808603Y-28055795D01*
X39823336Y-28043212D01*
X39923788Y-27957418D01*
X39923789Y-27957417D01*
X39928326Y-27953542D01*
X39988491Y-27869814D01*
X40016718Y-27830532D01*
X40016719Y-27830530D01*
X40020202Y-27825683D01*
X40024769Y-27814324D01*
X40076704Y-27685131D01*
X40076705Y-27685129D01*
X40078928Y-27679598D01*
X40080972Y-27665240D01*
X40100656Y-27526929D01*
X40100656Y-27526925D01*
X40101112Y-27523723D01*
X40101256Y-27510000D01*
X40091290Y-27427643D01*
X40083058Y-27359616D01*
X40083057Y-27359613D01*
X40082341Y-27353694D01*
X40026688Y-27206412D01*
X40023305Y-27201490D01*
X40020788Y-27196675D01*
X40009522Y-27150808D01*
X40009522Y-26563649D01*
X40028429Y-26505458D01*
X40077929Y-26469494D01*
X40139115Y-26469494D01*
X40190692Y-26508430D01*
X40203958Y-26528172D01*
X40208369Y-26532186D01*
X40208371Y-26532188D01*
X40315995Y-26630118D01*
X40320410Y-26634135D01*
X40341885Y-26645795D01*
X40453530Y-26706414D01*
X40453532Y-26706415D01*
X40458776Y-26709262D01*
X40530857Y-26728172D01*
X40605300Y-26747702D01*
X40605304Y-26747702D01*
X40611069Y-26749215D01*
X40617030Y-26749309D01*
X40617033Y-26749309D01*
X40689782Y-26750452D01*
X40768495Y-26751688D01*
X40774311Y-26750356D01*
X40916149Y-26717871D01*
X40916151Y-26717870D01*
X40921968Y-26716538D01*
X40927299Y-26713857D01*
X41057299Y-26648474D01*
X41057301Y-26648473D01*
X41062625Y-26645795D01*
X41076277Y-26634135D01*
X41177810Y-26547418D01*
X41177811Y-26547417D01*
X41182348Y-26543542D01*
X41237820Y-26466345D01*
X41270740Y-26420532D01*
X41270741Y-26420530D01*
X41274224Y-26415683D01*
X41284019Y-26391319D01*
X41330726Y-26275131D01*
X41330727Y-26275129D01*
X41332950Y-26269598D01*
X41335792Y-26249633D01*
X41354678Y-26116929D01*
X41354678Y-26116925D01*
X41355134Y-26113723D01*
X41355278Y-26100000D01*
X41342009Y-25990348D01*
X41337080Y-25949616D01*
X41337079Y-25949613D01*
X41336363Y-25943694D01*
X41280710Y-25796412D01*
X41219546Y-25707419D01*
X41194912Y-25671576D01*
X41194911Y-25671575D01*
X41191531Y-25666657D01*
X41187078Y-25662690D01*
X41187075Y-25662686D01*
X41082380Y-25569407D01*
X41073976Y-25561919D01*
X41055662Y-25552222D01*
X40940105Y-25491037D01*
X40940102Y-25491036D01*
X40934831Y-25488245D01*
X40840461Y-25464541D01*
X40787918Y-25451343D01*
X40787915Y-25451343D01*
X40782128Y-25449889D01*
X40702564Y-25449473D01*
X40630650Y-25449096D01*
X40630648Y-25449096D01*
X40624684Y-25449065D01*
X40618884Y-25450457D01*
X40618879Y-25450458D01*
X40614136Y-25451597D01*
X40553139Y-25446798D01*
X40521019Y-25425337D01*
X40445195Y-25349513D01*
X40417418Y-25294996D01*
X40426989Y-25234564D01*
X40470254Y-25191299D01*
X40530686Y-25181728D01*
X40540321Y-25183749D01*
X40623333Y-25205527D01*
X40623337Y-25205527D01*
X40629102Y-25207040D01*
X40635063Y-25207134D01*
X40635066Y-25207134D01*
X40707815Y-25208276D01*
X40786528Y-25209513D01*
X40899020Y-25183749D01*
X40934182Y-25175696D01*
X40934184Y-25175695D01*
X40940001Y-25174363D01*
X40954468Y-25167087D01*
X41075332Y-25106299D01*
X41075334Y-25106298D01*
X41080658Y-25103620D01*
X41200381Y-25001367D01*
X41282711Y-24886793D01*
X41288773Y-24878357D01*
X41288774Y-24878355D01*
X41292257Y-24873508D01*
X41300901Y-24852007D01*
X41348759Y-24732956D01*
X41348760Y-24732954D01*
X41350983Y-24727423D01*
X41353011Y-24713179D01*
X41372711Y-24574754D01*
X41372711Y-24574750D01*
X41373167Y-24571548D01*
X41373311Y-24557825D01*
X41356757Y-24421030D01*
X41355113Y-24407441D01*
X41355112Y-24407438D01*
X41354396Y-24401519D01*
X41298743Y-24254237D01*
X41209564Y-24124482D01*
X41205111Y-24120515D01*
X41205108Y-24120511D01*
X41132459Y-24055784D01*
X41092009Y-24019744D01*
X41086738Y-24016953D01*
X40958138Y-23948862D01*
X40958135Y-23948861D01*
X40952864Y-23946070D01*
X40894089Y-23931307D01*
X40843426Y-23918581D01*
X40791595Y-23886067D01*
X40768773Y-23829297D01*
X40768544Y-23822564D01*
X40768544Y-18151873D01*
X42805001Y-18151873D01*
X42817142Y-18222528D01*
X42820368Y-18233492D01*
X42884340Y-18383834D01*
X42889998Y-18393753D01*
X42986841Y-18525349D01*
X42994634Y-18533706D01*
X43119148Y-18639488D01*
X43128660Y-18645831D01*
X43274167Y-18720130D01*
X43284877Y-18724114D01*
X43444888Y-18763269D01*
X43453567Y-18764589D01*
X43458678Y-18764906D01*
X43461712Y-18765000D01*
X43951820Y-18765000D01*
X43964505Y-18760878D01*
X43967500Y-18756757D01*
X43967500Y-18749320D01*
X44217500Y-18749320D01*
X44221622Y-18762005D01*
X44225743Y-18765000D01*
X44683429Y-18765000D01*
X44689141Y-18764668D01*
X44810495Y-18750520D01*
X44821623Y-18747889D01*
X44975198Y-18692144D01*
X44985419Y-18687026D01*
X45122050Y-18597446D01*
X45130820Y-18590113D01*
X45243179Y-18471504D01*
X45250026Y-18462352D01*
X45332088Y-18321074D01*
X45336645Y-18310593D01*
X45384007Y-18154216D01*
X45384362Y-18152239D01*
X45381913Y-18142732D01*
X45379121Y-18140427D01*
X45376878Y-18140000D01*
X44233180Y-18140000D01*
X44220495Y-18144122D01*
X44217500Y-18148243D01*
X44217500Y-18749320D01*
X43967500Y-18749320D01*
X43967500Y-18155680D01*
X43963378Y-18142995D01*
X43959257Y-18140000D01*
X42818641Y-18140000D01*
X42805956Y-18144122D01*
X42805517Y-18144726D01*
X42805001Y-18151873D01*
X40768544Y-18151873D01*
X40768544Y-17877761D01*
X42800638Y-17877761D01*
X42803087Y-17887268D01*
X42805879Y-17889573D01*
X42808122Y-17890000D01*
X43951820Y-17890000D01*
X43964505Y-17885878D01*
X43967500Y-17881757D01*
X43967500Y-17280680D01*
X43963378Y-17267995D01*
X43959257Y-17265000D01*
X43501571Y-17265000D01*
X43495859Y-17265332D01*
X43374505Y-17279480D01*
X43363377Y-17282111D01*
X43209802Y-17337856D01*
X43199581Y-17342974D01*
X43062950Y-17432554D01*
X43054180Y-17439887D01*
X42941821Y-17558496D01*
X42934974Y-17567648D01*
X42852912Y-17708926D01*
X42848355Y-17719407D01*
X42800993Y-17875784D01*
X42800638Y-17877761D01*
X40768544Y-17877761D01*
X40768544Y-11583241D01*
X40787451Y-11525050D01*
X40797540Y-11513237D01*
X42685912Y-9624865D01*
X42740429Y-9597088D01*
X42800861Y-9606659D01*
X42844126Y-9649924D01*
X42847012Y-9656107D01*
X42884340Y-9743834D01*
X42889998Y-9753753D01*
X42986841Y-9885349D01*
X42994634Y-9893706D01*
X43119148Y-9999488D01*
X43128660Y-10005831D01*
X43274167Y-10080130D01*
X43284877Y-10084114D01*
X43444888Y-10123269D01*
X43453567Y-10124589D01*
X43458678Y-10124906D01*
X43461712Y-10125000D01*
X43951820Y-10125000D01*
X43964505Y-10120878D01*
X43967500Y-10116757D01*
X43967500Y-8640680D01*
X43963378Y-8627995D01*
X43959257Y-8625000D01*
X43924783Y-8625000D01*
X43866592Y-8606093D01*
X43830628Y-8556593D01*
X43830628Y-8495407D01*
X43854779Y-8455996D01*
X44031279Y-8279496D01*
X44085796Y-8251719D01*
X44101283Y-8250500D01*
X44610084Y-8250500D01*
X44630920Y-8252718D01*
X44632202Y-8252994D01*
X44641293Y-8254951D01*
X44673103Y-8251186D01*
X44678995Y-8250839D01*
X44678995Y-8250836D01*
X44683062Y-8250500D01*
X44687147Y-8250500D01*
X44691173Y-8249830D01*
X44691184Y-8249829D01*
X44705151Y-8247504D01*
X44709758Y-8246848D01*
X44735837Y-8243761D01*
X44749044Y-8242198D01*
X44749045Y-8242198D01*
X44757170Y-8241236D01*
X44764154Y-8237882D01*
X44765486Y-8237461D01*
X44773135Y-8236188D01*
X44815192Y-8213495D01*
X44819315Y-8211395D01*
X44856749Y-8193420D01*
X44856753Y-8193418D01*
X44862358Y-8190726D01*
X44866306Y-8187408D01*
X44867814Y-8185900D01*
X44869103Y-8184718D01*
X44870129Y-8183852D01*
X44875826Y-8180778D01*
X44881377Y-8174773D01*
X44881382Y-8174769D01*
X44909841Y-8143982D01*
X44912535Y-8141179D01*
X47180397Y-5873317D01*
X47196700Y-5860152D01*
X47198735Y-5858838D01*
X47198737Y-5858836D01*
X47203342Y-5855862D01*
X47203349Y-5855859D01*
X47205613Y-5854397D01*
X47205747Y-5854605D01*
X47244725Y-5834229D01*
X47316149Y-5817871D01*
X47316151Y-5817870D01*
X47321968Y-5816538D01*
X47327299Y-5813857D01*
X47457299Y-5748474D01*
X47457301Y-5748473D01*
X47462625Y-5745795D01*
X47582348Y-5643542D01*
X47674224Y-5515683D01*
X47703164Y-5443694D01*
X47730726Y-5375131D01*
X47730727Y-5375129D01*
X47732950Y-5369598D01*
X47734994Y-5355240D01*
X47754678Y-5216929D01*
X47754678Y-5216925D01*
X47755134Y-5213723D01*
X47755278Y-5200000D01*
X47738573Y-5061956D01*
X47737080Y-5049616D01*
X47737079Y-5049613D01*
X47736363Y-5043694D01*
X47700906Y-4949858D01*
X47682820Y-4901996D01*
X47680710Y-4896412D01*
X47591531Y-4766657D01*
X47587078Y-4762690D01*
X47587075Y-4762686D01*
X47501217Y-4686190D01*
X47473976Y-4661919D01*
X47442366Y-4645182D01*
X47340105Y-4591037D01*
X47340102Y-4591036D01*
X47334831Y-4588245D01*
X47258480Y-4569067D01*
X47187918Y-4551343D01*
X47187915Y-4551343D01*
X47182128Y-4549889D01*
X47102564Y-4549473D01*
X47030650Y-4549096D01*
X47030648Y-4549096D01*
X47024684Y-4549065D01*
X46871588Y-4585820D01*
X46812755Y-4616186D01*
X46736985Y-4655293D01*
X46736983Y-4655295D01*
X46731679Y-4658032D01*
X46613034Y-4761533D01*
X46522501Y-4890348D01*
X46465309Y-5037039D01*
X46464531Y-5042950D01*
X46464530Y-5042953D01*
X46461511Y-5065887D01*
X46444758Y-5193138D01*
X46445413Y-5199071D01*
X46445413Y-5199075D01*
X46456521Y-5299687D01*
X46462035Y-5349633D01*
X46469341Y-5369598D01*
X46507478Y-5473812D01*
X46509720Y-5534956D01*
X46484512Y-5577838D01*
X45115098Y-6947252D01*
X45060581Y-6975029D01*
X45000149Y-6965458D01*
X44956884Y-6922193D01*
X44952485Y-6912243D01*
X44938341Y-6874813D01*
X44936232Y-6869231D01*
X44847053Y-6739476D01*
X44842600Y-6735509D01*
X44842597Y-6735505D01*
X44752842Y-6655537D01*
X44729498Y-6634738D01*
X44714017Y-6626541D01*
X44595627Y-6563856D01*
X44595624Y-6563855D01*
X44590353Y-6561064D01*
X44514001Y-6541886D01*
X44443440Y-6524162D01*
X44443437Y-6524162D01*
X44437650Y-6522708D01*
X44358086Y-6522292D01*
X44286172Y-6521915D01*
X44286170Y-6521915D01*
X44280206Y-6521884D01*
X44274406Y-6523276D01*
X44274401Y-6523277D01*
X44272606Y-6523708D01*
X44271459Y-6523618D01*
X44268474Y-6523963D01*
X44268406Y-6523377D01*
X44211610Y-6518904D01*
X44165086Y-6479165D01*
X44150500Y-6427442D01*
X44150500Y-3786190D01*
X44169407Y-3727999D01*
X44179496Y-3716186D01*
X44308127Y-3587555D01*
X45155145Y-3587555D01*
X45155800Y-3593488D01*
X45155800Y-3593492D01*
X45169136Y-3714287D01*
X45172422Y-3744050D01*
X45180259Y-3765465D01*
X45206387Y-3836863D01*
X45226530Y-3891907D01*
X45229859Y-3896861D01*
X45311016Y-4017636D01*
X45311019Y-4017640D01*
X45314345Y-4022589D01*
X45318756Y-4026603D01*
X45318758Y-4026605D01*
X45403275Y-4103509D01*
X45430797Y-4128552D01*
X45452272Y-4140212D01*
X45563917Y-4200831D01*
X45563919Y-4200832D01*
X45569163Y-4203679D01*
X45648921Y-4224603D01*
X45715687Y-4242119D01*
X45715691Y-4242119D01*
X45721456Y-4243632D01*
X45727417Y-4243726D01*
X45727420Y-4243726D01*
X45800169Y-4244869D01*
X45878882Y-4246105D01*
X45896286Y-4242119D01*
X46026536Y-4212288D01*
X46026538Y-4212287D01*
X46032355Y-4210955D01*
X46037686Y-4208274D01*
X46167686Y-4142891D01*
X46167688Y-4142890D01*
X46173012Y-4140212D01*
X46292735Y-4037959D01*
X46329967Y-3986145D01*
X46379275Y-3949924D01*
X46410361Y-3944917D01*
X47308227Y-3944917D01*
X47366418Y-3963824D01*
X47378231Y-3973913D01*
X48020504Y-4616186D01*
X48048281Y-4670703D01*
X48049500Y-4686190D01*
X48049500Y-6021683D01*
X48030593Y-6079874D01*
X47995906Y-6109656D01*
X47907485Y-6155293D01*
X47907483Y-6155295D01*
X47902179Y-6158032D01*
X47783534Y-6261533D01*
X47693001Y-6390348D01*
X47635809Y-6537039D01*
X47635031Y-6542950D01*
X47635030Y-6542953D01*
X47632837Y-6559610D01*
X47615258Y-6693138D01*
X47615913Y-6699071D01*
X47615913Y-6699075D01*
X47631830Y-6843251D01*
X47632535Y-6849633D01*
X47686643Y-6997490D01*
X47689972Y-7002444D01*
X47771129Y-7123219D01*
X47771132Y-7123223D01*
X47774458Y-7128172D01*
X47778869Y-7132186D01*
X47778871Y-7132188D01*
X47886495Y-7230118D01*
X47890910Y-7234135D01*
X47912385Y-7245795D01*
X48024030Y-7306414D01*
X48024032Y-7306415D01*
X48029276Y-7309262D01*
X48109034Y-7330186D01*
X48175800Y-7347702D01*
X48175804Y-7347702D01*
X48181569Y-7349215D01*
X48187530Y-7349309D01*
X48187533Y-7349309D01*
X48260282Y-7350452D01*
X48338995Y-7351688D01*
X48356399Y-7347702D01*
X48486649Y-7317871D01*
X48486651Y-7317870D01*
X48492468Y-7316538D01*
X48497799Y-7313857D01*
X48627799Y-7248474D01*
X48627801Y-7248473D01*
X48633125Y-7245795D01*
X48646777Y-7234135D01*
X48748310Y-7147418D01*
X48748311Y-7147417D01*
X48752848Y-7143542D01*
X48844724Y-7015683D01*
X48864915Y-6965458D01*
X48901226Y-6875131D01*
X48901227Y-6875129D01*
X48903450Y-6869598D01*
X48905494Y-6855240D01*
X48925178Y-6716929D01*
X48925178Y-6716925D01*
X48925634Y-6713723D01*
X48925778Y-6700000D01*
X48906863Y-6543694D01*
X48898634Y-6521915D01*
X48853320Y-6401996D01*
X48851210Y-6396412D01*
X48767912Y-6275214D01*
X48750500Y-6219139D01*
X48750500Y-4547953D01*
X48752718Y-4527115D01*
X48753230Y-4524739D01*
X48753230Y-4524738D01*
X48754952Y-4516740D01*
X48751186Y-4484923D01*
X48750839Y-4479043D01*
X48750837Y-4479043D01*
X48750500Y-4474967D01*
X48750500Y-4470885D01*
X48747505Y-4452892D01*
X48746850Y-4448290D01*
X48742197Y-4408984D01*
X48741236Y-4400862D01*
X48737882Y-4393877D01*
X48737461Y-4392546D01*
X48736188Y-4384897D01*
X48713495Y-4342840D01*
X48711395Y-4338717D01*
X48693420Y-4301283D01*
X48693418Y-4301279D01*
X48690726Y-4295674D01*
X48687408Y-4291726D01*
X48685900Y-4290218D01*
X48684718Y-4288929D01*
X48683852Y-4287903D01*
X48680778Y-4282206D01*
X48674773Y-4276655D01*
X48674769Y-4276650D01*
X48643982Y-4248191D01*
X48641179Y-4245497D01*
X47776162Y-3380480D01*
X47762997Y-3364177D01*
X47761684Y-3362143D01*
X47761681Y-3362139D01*
X47757242Y-3355265D01*
X47732085Y-3335432D01*
X47727680Y-3331518D01*
X47727679Y-3331519D01*
X47724548Y-3328866D01*
X47721671Y-3325989D01*
X47706816Y-3315373D01*
X47703098Y-3312582D01*
X47672031Y-3288090D01*
X47672030Y-3288090D01*
X47665606Y-3283025D01*
X47658299Y-3280459D01*
X47657054Y-3279812D01*
X47650748Y-3275306D01*
X47618959Y-3265799D01*
X47605002Y-3261625D01*
X47600566Y-3260184D01*
X47561384Y-3246424D01*
X47561381Y-3246423D01*
X47555511Y-3244362D01*
X47550373Y-3243917D01*
X47548235Y-3243917D01*
X47546516Y-3243843D01*
X47545155Y-3243728D01*
X47538953Y-3241873D01*
X47530782Y-3242194D01*
X47488863Y-3243841D01*
X47484976Y-3243917D01*
X46410941Y-3243917D01*
X46352750Y-3225010D01*
X46329353Y-3200991D01*
X46305302Y-3165996D01*
X46305297Y-3165990D01*
X46301918Y-3161074D01*
X46297465Y-3157107D01*
X46297462Y-3157103D01*
X46224261Y-3091884D01*
X46184363Y-3056336D01*
X46177022Y-3052449D01*
X46050492Y-2985454D01*
X46050489Y-2985453D01*
X46045218Y-2982662D01*
X45968866Y-2963484D01*
X45898305Y-2945760D01*
X45898302Y-2945760D01*
X45892515Y-2944306D01*
X45812951Y-2943890D01*
X45741037Y-2943513D01*
X45741035Y-2943513D01*
X45735071Y-2943482D01*
X45581975Y-2980237D01*
X45513305Y-3015680D01*
X45447372Y-3049710D01*
X45447370Y-3049712D01*
X45442066Y-3052449D01*
X45323421Y-3155950D01*
X45232888Y-3284765D01*
X45175696Y-3431456D01*
X45174918Y-3437367D01*
X45174917Y-3437370D01*
X45173032Y-3451688D01*
X45155145Y-3587555D01*
X44308127Y-3587555D01*
X45716186Y-2179496D01*
X45770703Y-2151719D01*
X45786190Y-2150500D01*
X46599014Y-2150500D01*
X46657205Y-2169407D01*
X46681184Y-2194281D01*
X46703958Y-2228172D01*
X46708369Y-2232186D01*
X46708371Y-2232188D01*
X46815995Y-2330118D01*
X46820410Y-2334135D01*
X46841885Y-2345795D01*
X46953530Y-2406414D01*
X46953532Y-2406415D01*
X46958776Y-2409262D01*
X47038534Y-2430186D01*
X47105300Y-2447702D01*
X47105304Y-2447702D01*
X47111069Y-2449215D01*
X47117030Y-2449309D01*
X47117033Y-2449309D01*
X47189782Y-2450452D01*
X47268495Y-2451688D01*
X47292645Y-2446157D01*
X47416149Y-2417871D01*
X47416151Y-2417870D01*
X47421968Y-2416538D01*
X47427299Y-2413857D01*
X47557299Y-2348474D01*
X47557301Y-2348473D01*
X47562625Y-2345795D01*
X47570053Y-2339451D01*
X47677810Y-2247418D01*
X47677811Y-2247417D01*
X47682348Y-2243542D01*
X47748600Y-2151343D01*
X47770740Y-2120532D01*
X47770741Y-2120530D01*
X47774224Y-2115683D01*
X47794667Y-2064831D01*
X47830726Y-1975131D01*
X47830727Y-1975129D01*
X47832950Y-1969598D01*
X47834911Y-1955823D01*
X47854678Y-1816929D01*
X47854678Y-1816925D01*
X47855134Y-1813723D01*
X47855278Y-1800000D01*
X47843984Y-1706674D01*
X47837080Y-1649616D01*
X47837079Y-1649613D01*
X47836363Y-1643694D01*
X47803774Y-1557448D01*
X47782820Y-1501996D01*
X47780710Y-1496412D01*
X47691531Y-1366657D01*
X47687078Y-1362690D01*
X47687075Y-1362686D01*
X47619557Y-1302531D01*
X47573976Y-1261919D01*
X47561462Y-1255293D01*
X47440105Y-1191037D01*
X47440102Y-1191036D01*
X47434831Y-1188245D01*
X47358480Y-1169067D01*
X47287918Y-1151343D01*
X47287915Y-1151343D01*
X47282128Y-1149889D01*
X47202564Y-1149473D01*
X47130650Y-1149096D01*
X47130648Y-1149096D01*
X47124684Y-1149065D01*
X46971588Y-1185820D01*
X46901773Y-1221854D01*
X46836985Y-1255293D01*
X46836983Y-1255295D01*
X46831679Y-1258032D01*
X46713034Y-1361533D01*
X46709603Y-1366415D01*
X46709602Y-1366416D01*
X46680781Y-1407425D01*
X46631852Y-1444162D01*
X46599784Y-1449500D01*
X45647948Y-1449500D01*
X45627112Y-1447282D01*
X45625830Y-1447006D01*
X45616739Y-1445049D01*
X45584929Y-1448814D01*
X45579037Y-1449161D01*
X45579037Y-1449164D01*
X45574970Y-1449500D01*
X45570885Y-1449500D01*
X45566859Y-1450170D01*
X45566848Y-1450171D01*
X45552881Y-1452496D01*
X45548269Y-1453153D01*
X45500861Y-1458764D01*
X45493881Y-1462115D01*
X45492540Y-1462540D01*
X45484897Y-1463812D01*
X45442850Y-1486500D01*
X45438724Y-1488601D01*
X45424769Y-1495302D01*
X45401293Y-1506575D01*
X45401291Y-1506576D01*
X45395673Y-1509274D01*
X45391726Y-1512592D01*
X45390220Y-1514098D01*
X45388931Y-1515280D01*
X45387902Y-1516149D01*
X45382206Y-1519222D01*
X45376655Y-1525227D01*
X45376650Y-1525231D01*
X45348191Y-1556018D01*
X45345497Y-1558821D01*
X44017427Y-2886891D01*
X43962910Y-2914668D01*
X43902478Y-2905097D01*
X43859213Y-2861832D01*
X43849140Y-2828780D01*
X43845546Y-2799075D01*
X43839607Y-2750000D01*
X43837080Y-2729116D01*
X43837079Y-2729113D01*
X43836363Y-2723194D01*
X43804215Y-2638115D01*
X43782820Y-2581496D01*
X43780710Y-2575912D01*
X43715559Y-2481118D01*
X43694912Y-2451076D01*
X43694911Y-2451075D01*
X43691531Y-2446157D01*
X43687078Y-2442190D01*
X43687075Y-2442186D01*
X43596551Y-2361533D01*
X43573976Y-2341419D01*
X43560219Y-2334135D01*
X43440105Y-2270537D01*
X43440102Y-2270536D01*
X43434831Y-2267745D01*
X43338474Y-2243542D01*
X43287918Y-2230843D01*
X43287915Y-2230843D01*
X43282128Y-2229389D01*
X43202564Y-2228973D01*
X43130650Y-2228596D01*
X43130648Y-2228596D01*
X43124684Y-2228565D01*
X42971588Y-2265320D01*
X42899035Y-2302767D01*
X42836985Y-2334793D01*
X42836983Y-2334795D01*
X42831679Y-2337532D01*
X42713034Y-2441033D01*
X42709606Y-2445911D01*
X42709602Y-2445915D01*
X42679997Y-2488039D01*
X42631068Y-2524776D01*
X42569890Y-2525738D01*
X42519831Y-2490556D01*
X42500000Y-2431114D01*
X42500000Y-349000D01*
X42518907Y-290809D01*
X42568407Y-254845D01*
X42599000Y-250000D01*
X47465624Y-250000D01*
X47484938Y-251902D01*
G37*
%TD.AperFunction*%
%TA.AperFunction,Conductor*%
G36*
X23143378Y-20807940D02*
G01*
X23179342Y-20857440D01*
X23177425Y-20923994D01*
X23168037Y-20948076D01*
X23165309Y-20955072D01*
X23164531Y-20960983D01*
X23164530Y-20960986D01*
X23163653Y-20967649D01*
X23144758Y-21111171D01*
X23145413Y-21117104D01*
X23145413Y-21117108D01*
X23156087Y-21213795D01*
X23143679Y-21273709D01*
X23127689Y-21294662D01*
X22476391Y-21945960D01*
X22460088Y-21959125D01*
X22458054Y-21960438D01*
X22458050Y-21960441D01*
X22451176Y-21964880D01*
X22431343Y-21990037D01*
X22427429Y-21994442D01*
X22427430Y-21994443D01*
X22424777Y-21997574D01*
X22421900Y-22000451D01*
X22411284Y-22015306D01*
X22408493Y-22019024D01*
X22387490Y-22045666D01*
X22378936Y-22056516D01*
X22376370Y-22063823D01*
X22375723Y-22065068D01*
X22371217Y-22071374D01*
X22368873Y-22079213D01*
X22357536Y-22117120D01*
X22356095Y-22121556D01*
X22346191Y-22149760D01*
X22340273Y-22166611D01*
X22339828Y-22171749D01*
X22339828Y-22173887D01*
X22339754Y-22175606D01*
X22339639Y-22176967D01*
X22337784Y-22183169D01*
X22338105Y-22191340D01*
X22339752Y-22233259D01*
X22339828Y-22237146D01*
X22339828Y-24880878D01*
X22320921Y-24939069D01*
X22271421Y-24975033D01*
X22216711Y-24976895D01*
X22195056Y-24971456D01*
X22176447Y-24966781D01*
X22176444Y-24966781D01*
X22170657Y-24965327D01*
X22091093Y-24964911D01*
X22019179Y-24964534D01*
X22019177Y-24964534D01*
X22013213Y-24964503D01*
X22004208Y-24966665D01*
X22002158Y-24966504D01*
X22001481Y-24966582D01*
X22001466Y-24966449D01*
X21943212Y-24961867D01*
X21919807Y-24948149D01*
X21910753Y-24941011D01*
X21906353Y-24937101D01*
X21906353Y-24937102D01*
X21903222Y-24934449D01*
X21900345Y-24931572D01*
X21885490Y-24920956D01*
X21881772Y-24918165D01*
X21850705Y-24893673D01*
X21850704Y-24893673D01*
X21844280Y-24888608D01*
X21836973Y-24886042D01*
X21835728Y-24885395D01*
X21829422Y-24880889D01*
X21797633Y-24871382D01*
X21783676Y-24867208D01*
X21779240Y-24865767D01*
X21740058Y-24852007D01*
X21740055Y-24852006D01*
X21734185Y-24849945D01*
X21729047Y-24849500D01*
X21726909Y-24849500D01*
X21725190Y-24849426D01*
X21723829Y-24849311D01*
X21717627Y-24847456D01*
X21709456Y-24847777D01*
X21667537Y-24849424D01*
X21663650Y-24849500D01*
X18891442Y-24849500D01*
X18833251Y-24830593D01*
X18821438Y-24820504D01*
X18289061Y-24288127D01*
X18261284Y-24233610D01*
X18261053Y-24204174D01*
X18261607Y-24200285D01*
X18268137Y-24154399D01*
X18271783Y-24128782D01*
X18271783Y-24128778D01*
X18272239Y-24125576D01*
X18272383Y-24111853D01*
X18253468Y-23955547D01*
X18248639Y-23942766D01*
X18199925Y-23813849D01*
X18197815Y-23808265D01*
X18127306Y-23705675D01*
X18112017Y-23683429D01*
X18112016Y-23683428D01*
X18108636Y-23678510D01*
X18104183Y-23674543D01*
X18104180Y-23674539D01*
X18024502Y-23603549D01*
X17991081Y-23573772D01*
X17912624Y-23532231D01*
X17870044Y-23488292D01*
X17861423Y-23427717D01*
X17888945Y-23374734D01*
X20445650Y-20818029D01*
X20500167Y-20790252D01*
X20515654Y-20789033D01*
X23085187Y-20789033D01*
X23143378Y-20807940D01*
G37*
%TD.AperFunction*%
%TA.AperFunction,Conductor*%
G36*
X12674005Y-5994407D02*
G01*
X12697984Y-6019282D01*
X12703958Y-6028172D01*
X12708369Y-6032186D01*
X12708371Y-6032188D01*
X12815995Y-6130118D01*
X12820410Y-6134135D01*
X12859378Y-6155293D01*
X12953530Y-6206414D01*
X12953532Y-6206415D01*
X12958776Y-6209262D01*
X13018210Y-6224854D01*
X13105300Y-6247702D01*
X13105304Y-6247702D01*
X13111069Y-6249215D01*
X13117030Y-6249309D01*
X13117033Y-6249309D01*
X13189782Y-6250452D01*
X13268495Y-6251688D01*
X13286316Y-6247606D01*
X13347255Y-6253043D01*
X13378421Y-6274103D01*
X16018255Y-8913937D01*
X16031420Y-8930240D01*
X16032733Y-8932274D01*
X16032736Y-8932278D01*
X16037175Y-8939152D01*
X16062332Y-8958985D01*
X16066737Y-8962899D01*
X16066738Y-8962898D01*
X16069869Y-8965551D01*
X16072746Y-8968428D01*
X16087601Y-8979044D01*
X16091312Y-8981830D01*
X16128811Y-9011392D01*
X16136118Y-9013958D01*
X16137363Y-9014605D01*
X16143669Y-9019111D01*
X16175458Y-9028618D01*
X16189415Y-9032792D01*
X16193851Y-9034233D01*
X16233033Y-9047993D01*
X16233036Y-9047994D01*
X16238906Y-9050055D01*
X16244044Y-9050500D01*
X16246182Y-9050500D01*
X16247901Y-9050574D01*
X16249262Y-9050689D01*
X16255464Y-9052544D01*
X16263635Y-9052223D01*
X16305554Y-9050576D01*
X16309441Y-9050500D01*
X39852052Y-9050500D01*
X39872888Y-9052718D01*
X39875258Y-9053228D01*
X39883261Y-9054951D01*
X39886909Y-9054519D01*
X39941902Y-9075299D01*
X39975494Y-9126439D01*
X39972612Y-9187556D01*
X39950007Y-9222566D01*
X38686063Y-10486510D01*
X38669760Y-10499675D01*
X38667726Y-10500988D01*
X38667722Y-10500991D01*
X38660848Y-10505430D01*
X38641015Y-10530587D01*
X38637101Y-10534992D01*
X38637102Y-10534993D01*
X38634449Y-10538124D01*
X38631572Y-10541001D01*
X38629207Y-10544311D01*
X38629205Y-10544313D01*
X38626533Y-10548052D01*
X38620956Y-10555856D01*
X38618170Y-10559567D01*
X38588608Y-10597066D01*
X38586042Y-10604373D01*
X38585395Y-10605618D01*
X38580889Y-10611924D01*
X38578545Y-10619763D01*
X38567208Y-10657670D01*
X38565767Y-10662106D01*
X38552424Y-10700103D01*
X38549945Y-10707161D01*
X38549500Y-10712299D01*
X38549500Y-10714437D01*
X38549426Y-10716156D01*
X38549311Y-10717517D01*
X38547456Y-10723719D01*
X38547777Y-10731890D01*
X38549424Y-10773809D01*
X38549500Y-10777696D01*
X38549500Y-15313810D01*
X38530593Y-15372001D01*
X38520504Y-15383814D01*
X37429127Y-16475191D01*
X37374610Y-16502968D01*
X37314178Y-16493397D01*
X37293267Y-16479106D01*
X37284712Y-16471485D01*
X37273976Y-16461919D01*
X37226282Y-16436666D01*
X37140105Y-16391037D01*
X37140102Y-16391036D01*
X37134831Y-16388245D01*
X37033836Y-16362877D01*
X36987918Y-16351343D01*
X36987915Y-16351343D01*
X36982128Y-16349889D01*
X36902564Y-16349473D01*
X36830650Y-16349096D01*
X36830648Y-16349096D01*
X36824684Y-16349065D01*
X36671588Y-16385820D01*
X36624461Y-16410144D01*
X36536985Y-16455293D01*
X36536983Y-16455295D01*
X36531679Y-16458032D01*
X36413034Y-16561533D01*
X36322501Y-16690348D01*
X36265309Y-16837039D01*
X36264531Y-16842950D01*
X36264530Y-16842953D01*
X36257740Y-16894527D01*
X36244758Y-16993138D01*
X36245413Y-16999071D01*
X36245413Y-16999075D01*
X36256690Y-17101218D01*
X36262035Y-17149633D01*
X36264087Y-17155240D01*
X36307270Y-17273243D01*
X36316143Y-17297490D01*
X36319472Y-17302444D01*
X36400629Y-17423219D01*
X36400632Y-17423223D01*
X36403958Y-17428172D01*
X36408372Y-17432188D01*
X36408375Y-17432192D01*
X36433627Y-17455169D01*
X36463943Y-17508316D01*
X36457229Y-17569132D01*
X36412406Y-17616366D01*
X36331679Y-17658032D01*
X36213034Y-17761533D01*
X36122501Y-17890348D01*
X36065309Y-18037039D01*
X36064531Y-18042950D01*
X36064530Y-18042953D01*
X36058200Y-18091037D01*
X36044758Y-18193138D01*
X36045413Y-18199071D01*
X36045413Y-18199075D01*
X36055105Y-18286863D01*
X36062035Y-18349633D01*
X36068003Y-18365940D01*
X36104075Y-18464513D01*
X36106317Y-18525657D01*
X36072191Y-18576442D01*
X36022732Y-18596776D01*
X36017378Y-18596748D01*
X35885804Y-18628336D01*
X35824808Y-18623535D01*
X35778283Y-18583798D01*
X35763694Y-18532071D01*
X35763694Y-12502496D01*
X35782601Y-12444305D01*
X35792690Y-12432492D01*
X36120137Y-12105045D01*
X36174654Y-12077268D01*
X36203578Y-12076965D01*
X36205296Y-12077200D01*
X36211069Y-12078715D01*
X36217034Y-12078809D01*
X36217036Y-12078809D01*
X36283703Y-12079856D01*
X36368495Y-12081188D01*
X36379293Y-12078715D01*
X36516149Y-12047371D01*
X36516151Y-12047370D01*
X36521968Y-12046038D01*
X36582432Y-12015628D01*
X36657299Y-11977974D01*
X36657301Y-11977973D01*
X36662625Y-11975295D01*
X36710109Y-11934740D01*
X36777810Y-11876918D01*
X36777811Y-11876917D01*
X36782348Y-11873042D01*
X36874224Y-11745183D01*
X36885036Y-11718289D01*
X36930726Y-11604631D01*
X36930727Y-11604629D01*
X36932950Y-11599098D01*
X36934196Y-11590348D01*
X36954678Y-11446429D01*
X36954678Y-11446425D01*
X36955134Y-11443223D01*
X36955278Y-11429500D01*
X36936363Y-11273194D01*
X36929653Y-11255435D01*
X36882820Y-11131496D01*
X36880710Y-11125912D01*
X36795548Y-11002001D01*
X36794912Y-11001076D01*
X36794911Y-11001075D01*
X36791531Y-10996157D01*
X36787078Y-10992190D01*
X36787075Y-10992186D01*
X36706984Y-10920828D01*
X36673976Y-10891419D01*
X36658557Y-10883255D01*
X36540105Y-10820537D01*
X36540102Y-10820536D01*
X36534831Y-10817745D01*
X36457671Y-10798364D01*
X36387918Y-10780843D01*
X36387915Y-10780843D01*
X36382128Y-10779389D01*
X36302564Y-10778973D01*
X36230650Y-10778596D01*
X36230648Y-10778596D01*
X36224684Y-10778565D01*
X36071588Y-10815320D01*
X36016920Y-10843536D01*
X35936985Y-10884793D01*
X35936983Y-10884795D01*
X35931679Y-10887532D01*
X35813034Y-10991033D01*
X35722501Y-11119848D01*
X35665309Y-11266539D01*
X35664531Y-11272450D01*
X35664530Y-11272453D01*
X35660787Y-11300883D01*
X35644758Y-11422638D01*
X35645413Y-11428571D01*
X35645413Y-11428575D01*
X35656087Y-11525262D01*
X35643679Y-11585176D01*
X35627689Y-11606129D01*
X35199257Y-12034561D01*
X35182954Y-12047726D01*
X35180920Y-12049039D01*
X35180916Y-12049042D01*
X35174042Y-12053481D01*
X35154209Y-12078638D01*
X35150295Y-12083043D01*
X35150296Y-12083044D01*
X35147643Y-12086175D01*
X35144766Y-12089052D01*
X35134150Y-12103907D01*
X35131364Y-12107618D01*
X35101802Y-12145117D01*
X35099236Y-12152424D01*
X35098589Y-12153669D01*
X35094083Y-12159975D01*
X35084576Y-12191764D01*
X35080402Y-12205721D01*
X35078961Y-12210157D01*
X35075318Y-12220532D01*
X35063139Y-12255212D01*
X35062694Y-12260350D01*
X35062694Y-12262488D01*
X35062620Y-12264207D01*
X35062505Y-12265568D01*
X35060650Y-12271770D01*
X35060971Y-12279941D01*
X35062618Y-12321860D01*
X35062694Y-12325747D01*
X35062694Y-19004712D01*
X35043787Y-19062903D01*
X34994287Y-19098867D01*
X34933101Y-19098867D01*
X34893690Y-19074716D01*
X34829496Y-19010522D01*
X34801719Y-18956005D01*
X34800500Y-18940518D01*
X34800500Y-11169710D01*
X34800869Y-11161167D01*
X34803545Y-11130273D01*
X34803545Y-11130272D01*
X34804251Y-11122120D01*
X34794443Y-11082635D01*
X34792868Y-11075032D01*
X34787531Y-11042967D01*
X34786188Y-11034897D01*
X34782303Y-11027697D01*
X34780414Y-11022181D01*
X34778092Y-11016816D01*
X34776120Y-11008875D01*
X34754053Y-10974699D01*
X34750097Y-10968010D01*
X34749257Y-10966454D01*
X34730778Y-10932206D01*
X34724774Y-10926656D01*
X34721198Y-10922045D01*
X34717263Y-10917720D01*
X34712825Y-10910848D01*
X34680861Y-10885650D01*
X34674975Y-10880621D01*
X34645093Y-10852999D01*
X34637613Y-10849692D01*
X34632743Y-10846493D01*
X34627615Y-10843674D01*
X34621189Y-10838608D01*
X34613467Y-10835896D01*
X34613463Y-10835894D01*
X34582799Y-10825125D01*
X34575573Y-10822264D01*
X34545859Y-10809128D01*
X34545857Y-10809127D01*
X34538371Y-10805818D01*
X34530219Y-10805112D01*
X34523068Y-10803276D01*
X34523059Y-10803320D01*
X34516972Y-10802009D01*
X34511094Y-10799945D01*
X34505956Y-10799500D01*
X34469710Y-10799500D01*
X34461167Y-10799131D01*
X34430273Y-10796455D01*
X34430272Y-10796455D01*
X34422120Y-10795749D01*
X34414178Y-10797722D01*
X34406021Y-10798364D01*
X34406004Y-10798142D01*
X34394908Y-10799500D01*
X23375161Y-10799500D01*
X23354325Y-10797282D01*
X23343953Y-10795049D01*
X23344034Y-10794672D01*
X23323827Y-10790433D01*
X23319567Y-10788798D01*
X23314287Y-10786002D01*
X23265744Y-10773809D01*
X23167374Y-10749100D01*
X23167371Y-10749100D01*
X23161584Y-10747646D01*
X23082020Y-10747230D01*
X23010106Y-10746853D01*
X23010104Y-10746853D01*
X23004140Y-10746822D01*
X22891731Y-10773809D01*
X22863303Y-10780634D01*
X22851044Y-10783577D01*
X22784844Y-10817745D01*
X22716441Y-10853050D01*
X22716439Y-10853052D01*
X22711135Y-10855789D01*
X22592490Y-10959290D01*
X22501957Y-11088105D01*
X22444765Y-11234796D01*
X22443987Y-11240707D01*
X22443986Y-11240710D01*
X22436064Y-11300883D01*
X22424214Y-11390895D01*
X22424869Y-11396828D01*
X22424869Y-11396832D01*
X22437758Y-11513576D01*
X22441491Y-11547390D01*
X22443543Y-11552997D01*
X22460561Y-11599500D01*
X22495599Y-11695247D01*
X22498928Y-11700201D01*
X22580085Y-11820976D01*
X22580088Y-11820980D01*
X22583414Y-11825929D01*
X22587825Y-11829943D01*
X22587827Y-11829945D01*
X22658159Y-11893942D01*
X22699866Y-11931892D01*
X22721341Y-11943552D01*
X22832986Y-12004171D01*
X22832988Y-12004172D01*
X22838232Y-12007019D01*
X22917990Y-12027943D01*
X22984756Y-12045459D01*
X22984760Y-12045459D01*
X22990525Y-12046972D01*
X22996486Y-12047066D01*
X22996489Y-12047066D01*
X23069238Y-12048209D01*
X23147951Y-12049445D01*
X23165355Y-12045459D01*
X23295605Y-12015628D01*
X23295607Y-12015627D01*
X23301424Y-12014295D01*
X23306755Y-12011614D01*
X23436755Y-11946231D01*
X23436757Y-11946230D01*
X23442081Y-11943552D01*
X23446617Y-11939678D01*
X23557266Y-11845175D01*
X23557267Y-11845174D01*
X23561804Y-11841299D01*
X23627386Y-11750032D01*
X23650196Y-11718289D01*
X23650197Y-11718287D01*
X23653680Y-11713440D01*
X23712406Y-11567355D01*
X23713790Y-11567912D01*
X23743239Y-11522563D01*
X23805543Y-11500500D01*
X34000500Y-11500500D01*
X34058691Y-11519407D01*
X34094655Y-11568907D01*
X34099500Y-11599500D01*
X34099500Y-19078760D01*
X34097282Y-19099596D01*
X34095049Y-19109969D01*
X34096545Y-19122609D01*
X34098814Y-19141779D01*
X34099161Y-19147671D01*
X34099164Y-19147671D01*
X34099500Y-19151738D01*
X34099500Y-19155823D01*
X34100170Y-19159849D01*
X34100171Y-19159860D01*
X34102496Y-19173827D01*
X34103152Y-19178434D01*
X34104192Y-19187217D01*
X34107465Y-19214868D01*
X34108764Y-19225846D01*
X34112118Y-19232830D01*
X34112539Y-19234162D01*
X34113812Y-19241811D01*
X34136505Y-19283868D01*
X34138605Y-19287991D01*
X34156580Y-19325425D01*
X34156582Y-19325429D01*
X34159274Y-19331034D01*
X34162592Y-19334982D01*
X34164100Y-19336490D01*
X34165282Y-19337779D01*
X34166148Y-19338805D01*
X34169222Y-19344502D01*
X34175227Y-19350053D01*
X34175231Y-19350058D01*
X34206018Y-19378517D01*
X34208821Y-19381211D01*
X34740993Y-19913383D01*
X34768770Y-19967900D01*
X34769989Y-19983387D01*
X34769989Y-21743747D01*
X34751082Y-21801938D01*
X34716395Y-21831720D01*
X34588963Y-21897492D01*
X34588961Y-21897494D01*
X34583657Y-21900231D01*
X34465012Y-22003732D01*
X34461583Y-22008611D01*
X34381036Y-22123218D01*
X34374479Y-22132547D01*
X34372311Y-22138107D01*
X34369491Y-22143367D01*
X34367054Y-22142060D01*
X34335372Y-22180740D01*
X34276184Y-22196245D01*
X34219186Y-22173998D01*
X34211915Y-22167415D01*
X32243515Y-20199015D01*
X32215738Y-20144498D01*
X32225309Y-20084066D01*
X32268574Y-20040801D01*
X32313519Y-20030011D01*
X32709348Y-20030011D01*
X32730184Y-20032229D01*
X32731466Y-20032505D01*
X32740557Y-20034462D01*
X32772367Y-20030697D01*
X32778259Y-20030350D01*
X32778259Y-20030347D01*
X32782326Y-20030011D01*
X32786411Y-20030011D01*
X32790437Y-20029341D01*
X32790448Y-20029340D01*
X32804415Y-20027015D01*
X32809022Y-20026359D01*
X32835549Y-20023219D01*
X32848308Y-20021709D01*
X32848309Y-20021709D01*
X32856434Y-20020747D01*
X32863418Y-20017393D01*
X32864750Y-20016972D01*
X32872399Y-20015699D01*
X32889974Y-20006216D01*
X32892365Y-20004926D01*
X32952555Y-19993933D01*
X32964483Y-19996289D01*
X32993254Y-20003837D01*
X32999223Y-20003931D01*
X32999225Y-20003931D01*
X33056391Y-20004829D01*
X33150680Y-20006310D01*
X33194421Y-19996292D01*
X33298334Y-19972493D01*
X33298336Y-19972492D01*
X33304153Y-19971160D01*
X33310635Y-19967900D01*
X33439484Y-19903096D01*
X33439486Y-19903095D01*
X33444810Y-19900417D01*
X33458994Y-19888303D01*
X33559995Y-19802040D01*
X33559996Y-19802039D01*
X33564533Y-19798164D01*
X33656409Y-19670305D01*
X33669116Y-19638697D01*
X33712911Y-19529753D01*
X33712912Y-19529751D01*
X33715135Y-19524220D01*
X33718940Y-19497490D01*
X33736863Y-19371551D01*
X33736863Y-19371547D01*
X33737319Y-19368345D01*
X33737463Y-19354622D01*
X33724742Y-19249500D01*
X33719265Y-19204238D01*
X33719264Y-19204235D01*
X33718548Y-19198316D01*
X33709295Y-19173827D01*
X33665005Y-19056618D01*
X33662895Y-19051034D01*
X33580537Y-18931203D01*
X33577097Y-18926198D01*
X33577096Y-18926197D01*
X33573716Y-18921279D01*
X33569263Y-18917312D01*
X33569260Y-18917308D01*
X33493588Y-18849887D01*
X33456161Y-18816541D01*
X33441186Y-18808612D01*
X33322290Y-18745659D01*
X33322287Y-18745658D01*
X33317016Y-18742867D01*
X33231341Y-18721347D01*
X33170103Y-18705965D01*
X33170100Y-18705965D01*
X33164313Y-18704511D01*
X33084749Y-18704095D01*
X33012835Y-18703718D01*
X33012833Y-18703718D01*
X33006869Y-18703687D01*
X32897984Y-18729828D01*
X32860746Y-18738768D01*
X32853773Y-18740442D01*
X32795647Y-18770443D01*
X32719170Y-18809915D01*
X32719168Y-18809917D01*
X32713864Y-18812654D01*
X32622970Y-18891946D01*
X32602983Y-18909382D01*
X32546704Y-18933387D01*
X32487063Y-18919728D01*
X32446841Y-18873621D01*
X32439891Y-18820830D01*
X32454678Y-18716929D01*
X32454678Y-18716925D01*
X32455134Y-18713723D01*
X32455278Y-18700000D01*
X32443347Y-18601403D01*
X32437080Y-18549616D01*
X32437079Y-18549613D01*
X32436363Y-18543694D01*
X32429548Y-18525657D01*
X32382820Y-18401996D01*
X32380710Y-18396412D01*
X32291531Y-18266657D01*
X32287078Y-18262690D01*
X32287075Y-18262686D01*
X32202370Y-18187217D01*
X32173976Y-18161919D01*
X32148147Y-18148243D01*
X32040105Y-18091037D01*
X32040102Y-18091036D01*
X32034831Y-18088245D01*
X31958480Y-18069067D01*
X31887918Y-18051343D01*
X31887915Y-18051343D01*
X31882128Y-18049889D01*
X31802564Y-18049473D01*
X31730650Y-18049096D01*
X31730648Y-18049096D01*
X31724684Y-18049065D01*
X31571588Y-18085820D01*
X31499035Y-18123267D01*
X31436985Y-18155293D01*
X31436983Y-18155295D01*
X31431679Y-18158032D01*
X31313034Y-18261533D01*
X31222501Y-18390348D01*
X31165309Y-18537039D01*
X31164531Y-18542950D01*
X31164530Y-18542953D01*
X31158526Y-18588558D01*
X31144758Y-18693138D01*
X31145413Y-18699071D01*
X31145413Y-18699075D01*
X31156087Y-18795762D01*
X31143679Y-18855676D01*
X31127689Y-18876629D01*
X31083814Y-18920504D01*
X31029297Y-18948281D01*
X31013810Y-18949500D01*
X18134700Y-18949500D01*
X18076509Y-18930593D01*
X18040545Y-18881093D01*
X18036688Y-18836552D01*
X18041374Y-18803628D01*
X18041375Y-18803617D01*
X18041830Y-18800419D01*
X18041974Y-18786696D01*
X18031371Y-18699075D01*
X18023776Y-18636312D01*
X18023775Y-18636309D01*
X18023059Y-18630390D01*
X18018329Y-18617871D01*
X17969516Y-18488692D01*
X17967406Y-18483108D01*
X17885332Y-18363691D01*
X17881608Y-18358272D01*
X17881607Y-18358271D01*
X17878227Y-18353353D01*
X17873774Y-18349386D01*
X17873771Y-18349382D01*
X17786443Y-18271576D01*
X17760672Y-18248615D01*
X17676289Y-18203936D01*
X17626801Y-18177733D01*
X17626798Y-18177732D01*
X17621527Y-18174941D01*
X17515237Y-18148243D01*
X17474614Y-18138039D01*
X17474611Y-18138039D01*
X17468824Y-18136585D01*
X17389260Y-18136169D01*
X17317346Y-18135792D01*
X17317344Y-18135792D01*
X17311380Y-18135761D01*
X17158284Y-18172516D01*
X17097409Y-18203936D01*
X17023681Y-18241989D01*
X17023679Y-18241991D01*
X17018375Y-18244728D01*
X16899730Y-18348229D01*
X16809197Y-18477044D01*
X16752005Y-18623735D01*
X16751227Y-18629646D01*
X16751226Y-18629649D01*
X16743647Y-18687217D01*
X16731454Y-18779834D01*
X16732109Y-18785767D01*
X16732109Y-18785771D01*
X16743116Y-18885467D01*
X16748731Y-18936329D01*
X16754225Y-18951343D01*
X16796143Y-19065887D01*
X16802839Y-19084186D01*
X16806168Y-19089140D01*
X16810296Y-19095283D01*
X16827059Y-19154127D01*
X16806032Y-19211586D01*
X16755248Y-19245712D01*
X16728125Y-19249500D01*
X14200554Y-19249500D01*
X14142363Y-19230593D01*
X14118966Y-19206574D01*
X14094915Y-19171579D01*
X14094910Y-19171573D01*
X14091531Y-19166657D01*
X14087078Y-19162690D01*
X14087075Y-19162686D01*
X13998968Y-19084186D01*
X13973976Y-19061919D01*
X13944126Y-19046114D01*
X13840105Y-18991037D01*
X13840102Y-18991036D01*
X13834831Y-18988245D01*
X13736559Y-18963561D01*
X13687918Y-18951343D01*
X13687915Y-18951343D01*
X13682128Y-18949889D01*
X13602564Y-18949473D01*
X13530650Y-18949096D01*
X13530648Y-18949096D01*
X13524684Y-18949065D01*
X13371588Y-18985820D01*
X13313729Y-19015683D01*
X13236985Y-19055293D01*
X13236983Y-19055295D01*
X13231679Y-19058032D01*
X13113034Y-19161533D01*
X13022501Y-19290348D01*
X13020334Y-19295906D01*
X13012290Y-19316538D01*
X12965309Y-19437039D01*
X12944758Y-19593138D01*
X12945413Y-19599071D01*
X12945413Y-19599075D01*
X12958700Y-19719421D01*
X12962035Y-19749633D01*
X12964087Y-19755240D01*
X13012467Y-19887444D01*
X13016143Y-19897490D01*
X13019910Y-19903096D01*
X13100629Y-20023219D01*
X13100632Y-20023223D01*
X13103958Y-20028172D01*
X13108369Y-20032186D01*
X13108371Y-20032188D01*
X13215995Y-20130118D01*
X13220410Y-20134135D01*
X13265012Y-20158352D01*
X13353530Y-20206414D01*
X13353532Y-20206415D01*
X13358776Y-20209262D01*
X13438534Y-20230186D01*
X13505300Y-20247702D01*
X13505304Y-20247702D01*
X13511069Y-20249215D01*
X13517030Y-20249309D01*
X13517033Y-20249309D01*
X13589782Y-20250452D01*
X13668495Y-20251688D01*
X13711446Y-20241851D01*
X13816149Y-20217871D01*
X13816151Y-20217870D01*
X13821968Y-20216538D01*
X13827299Y-20213857D01*
X13957299Y-20148474D01*
X13957301Y-20148473D01*
X13962625Y-20145795D01*
X14082348Y-20043542D01*
X14119580Y-19991728D01*
X14168888Y-19955507D01*
X14199974Y-19950500D01*
X17486032Y-19950500D01*
X17547323Y-19971754D01*
X17571613Y-19990903D01*
X17578916Y-19993468D01*
X17580171Y-19994120D01*
X17586472Y-19998622D01*
X17624278Y-20009928D01*
X17632214Y-20012302D01*
X17636648Y-20013743D01*
X17675832Y-20027503D01*
X17675836Y-20027504D01*
X17681708Y-20029566D01*
X17686846Y-20030011D01*
X17688984Y-20030011D01*
X17690703Y-20030085D01*
X17692064Y-20030200D01*
X17698266Y-20032055D01*
X17706437Y-20031734D01*
X17748356Y-20030087D01*
X17752243Y-20030011D01*
X19466587Y-20030011D01*
X19524778Y-20048918D01*
X19560742Y-20098418D01*
X19560742Y-20159604D01*
X19536591Y-20199015D01*
X16907797Y-22827808D01*
X16853280Y-22855585D01*
X16792848Y-22846014D01*
X16749583Y-22802749D01*
X16739510Y-22769699D01*
X16737079Y-22749614D01*
X16736363Y-22743694D01*
X16680710Y-22596412D01*
X16591531Y-22466657D01*
X16587078Y-22462690D01*
X16587075Y-22462686D01*
X16488772Y-22375102D01*
X16473976Y-22361919D01*
X16461464Y-22355294D01*
X16340105Y-22291037D01*
X16340102Y-22291036D01*
X16334831Y-22288245D01*
X16250784Y-22267134D01*
X16187918Y-22251343D01*
X16187915Y-22251343D01*
X16182128Y-22249889D01*
X16102564Y-22249473D01*
X16030650Y-22249096D01*
X16030648Y-22249096D01*
X16024684Y-22249065D01*
X15871588Y-22285820D01*
X15801633Y-22321926D01*
X15736983Y-22355294D01*
X15736980Y-22355296D01*
X15731679Y-22358032D01*
X15727182Y-22361955D01*
X15712112Y-22375102D01*
X15655833Y-22399108D01*
X15647031Y-22399500D01*
X9264230Y-22399500D01*
X9206039Y-22380593D01*
X9192878Y-22368617D01*
X9191531Y-22366657D01*
X9178778Y-22355294D01*
X9106657Y-22291037D01*
X9073976Y-22261919D01*
X9052330Y-22250458D01*
X8940105Y-22191037D01*
X8940102Y-22191036D01*
X8934831Y-22188245D01*
X8782128Y-22149889D01*
X8782495Y-22148428D01*
X8731032Y-22123218D01*
X8229496Y-21621682D01*
X8201719Y-21567165D01*
X8200500Y-21551678D01*
X8200500Y-17748322D01*
X8219407Y-17690131D01*
X8229496Y-17678318D01*
X8806415Y-17101399D01*
X8816397Y-17093423D01*
X8816383Y-17093406D01*
X8821757Y-17088832D01*
X8827720Y-17085070D01*
X8832387Y-17079786D01*
X8832389Y-17079784D01*
X8863300Y-17044783D01*
X8867500Y-17040313D01*
X8879320Y-17028493D01*
X8881429Y-17025678D01*
X8881434Y-17025673D01*
X8886090Y-17019460D01*
X8891107Y-17013297D01*
X8898814Y-17004570D01*
X8922623Y-16977612D01*
X8926981Y-16968329D01*
X8937373Y-16951033D01*
X8943526Y-16942824D01*
X8960235Y-16898254D01*
X8963320Y-16890934D01*
X8980554Y-16854226D01*
X8980555Y-16854222D01*
X8983553Y-16847837D01*
X8984638Y-16840869D01*
X8984639Y-16840865D01*
X8985130Y-16837708D01*
X8990253Y-16818180D01*
X8991378Y-16815180D01*
X8991378Y-16815178D01*
X8993852Y-16808580D01*
X8997381Y-16761092D01*
X8998287Y-16753207D01*
X8999912Y-16742772D01*
X8999913Y-16742764D01*
X9000500Y-16738991D01*
X9000500Y-16722791D01*
X9000772Y-16715455D01*
X9001016Y-16712165D01*
X9004476Y-16665608D01*
X9002681Y-16657199D01*
X9000500Y-16636532D01*
X9000500Y-16550162D01*
X9019104Y-16492392D01*
X9070737Y-16420536D01*
X9070738Y-16420535D01*
X9074224Y-16415683D01*
X9079592Y-16402331D01*
X9130726Y-16275131D01*
X9130727Y-16275129D01*
X9132950Y-16269598D01*
X9134994Y-16255240D01*
X9154678Y-16116929D01*
X9154678Y-16116925D01*
X9155134Y-16113723D01*
X9155278Y-16100000D01*
X9141906Y-15989500D01*
X9137080Y-15949616D01*
X9137079Y-15949613D01*
X9136363Y-15943694D01*
X9108777Y-15870688D01*
X9082820Y-15801996D01*
X9080710Y-15796412D01*
X8991531Y-15666657D01*
X8987078Y-15662690D01*
X8987075Y-15662686D01*
X8898548Y-15583812D01*
X8873976Y-15561919D01*
X8861462Y-15555293D01*
X8740105Y-15491037D01*
X8740102Y-15491036D01*
X8734831Y-15488245D01*
X8658480Y-15469067D01*
X8587918Y-15451343D01*
X8587915Y-15451343D01*
X8582128Y-15449889D01*
X8502564Y-15449473D01*
X8430650Y-15449096D01*
X8430648Y-15449096D01*
X8424684Y-15449065D01*
X8271588Y-15485820D01*
X8199035Y-15523267D01*
X8136985Y-15555293D01*
X8136983Y-15555295D01*
X8131679Y-15558032D01*
X8013034Y-15661533D01*
X7922501Y-15790348D01*
X7865309Y-15937039D01*
X7864531Y-15942950D01*
X7864530Y-15942953D01*
X7863653Y-15949616D01*
X7844758Y-16093138D01*
X7845413Y-16099071D01*
X7845413Y-16099075D01*
X7861330Y-16243251D01*
X7862035Y-16249633D01*
X7867694Y-16265096D01*
X7913782Y-16391037D01*
X7916143Y-16397490D01*
X7919471Y-16402442D01*
X7942468Y-16436666D01*
X7959229Y-16495511D01*
X7938202Y-16552969D01*
X7930300Y-16561886D01*
X7393581Y-17098605D01*
X7383601Y-17106579D01*
X7383616Y-17106596D01*
X7378246Y-17111166D01*
X7372280Y-17114930D01*
X7367612Y-17120215D01*
X7367609Y-17120218D01*
X7336708Y-17155208D01*
X7332508Y-17159678D01*
X7320680Y-17171506D01*
X7313939Y-17180500D01*
X7313902Y-17180550D01*
X7308896Y-17186699D01*
X7277377Y-17222388D01*
X7273018Y-17231671D01*
X7262627Y-17248966D01*
X7256474Y-17257176D01*
X7253387Y-17265411D01*
X7239765Y-17301746D01*
X7236680Y-17309066D01*
X7219446Y-17345774D01*
X7219445Y-17345778D01*
X7216447Y-17352163D01*
X7215362Y-17359131D01*
X7215361Y-17359135D01*
X7214870Y-17362292D01*
X7209747Y-17381820D01*
X7208770Y-17384427D01*
X7206148Y-17391420D01*
X7205626Y-17398449D01*
X7202620Y-17438898D01*
X7201713Y-17446793D01*
X7200088Y-17457228D01*
X7200087Y-17457236D01*
X7199500Y-17461009D01*
X7199500Y-17477209D01*
X7199228Y-17484545D01*
X7195524Y-17534392D01*
X7196996Y-17541287D01*
X7196996Y-17541289D01*
X7197319Y-17542801D01*
X7199500Y-17563468D01*
X7199500Y-18750421D01*
X7180593Y-18808612D01*
X7131093Y-18844576D01*
X7069907Y-18844576D01*
X7018912Y-18806496D01*
X6994912Y-18771576D01*
X6994911Y-18771575D01*
X6991531Y-18766657D01*
X6987078Y-18762690D01*
X6987075Y-18762686D01*
X6906115Y-18690554D01*
X6873976Y-18661919D01*
X6861462Y-18655293D01*
X6740105Y-18591037D01*
X6740102Y-18591036D01*
X6734831Y-18588245D01*
X6658480Y-18569067D01*
X6587918Y-18551343D01*
X6587915Y-18551343D01*
X6582128Y-18549889D01*
X6502564Y-18549473D01*
X6430650Y-18549096D01*
X6430648Y-18549096D01*
X6424684Y-18549065D01*
X6271588Y-18585820D01*
X6217267Y-18613857D01*
X6136985Y-18655293D01*
X6136983Y-18655295D01*
X6131679Y-18658032D01*
X6013034Y-18761533D01*
X6009605Y-18766412D01*
X5998350Y-18782426D01*
X5949420Y-18819163D01*
X5917353Y-18824500D01*
X5652439Y-18824500D01*
X5594248Y-18805593D01*
X5558284Y-18756093D01*
X5558284Y-18694907D01*
X5568345Y-18675033D01*
X5567866Y-18674770D01*
X5570740Y-18669542D01*
X5574224Y-18664694D01*
X5578004Y-18655293D01*
X5630726Y-18524142D01*
X5630727Y-18524140D01*
X5632950Y-18518609D01*
X5634994Y-18504251D01*
X5654678Y-18365940D01*
X5654678Y-18365936D01*
X5655134Y-18362734D01*
X5655278Y-18349011D01*
X5645312Y-18266657D01*
X5637080Y-18198627D01*
X5637079Y-18198624D01*
X5636363Y-18192705D01*
X5622373Y-18155680D01*
X5582820Y-18051007D01*
X5580710Y-18045423D01*
X5491531Y-17915668D01*
X5487078Y-17911701D01*
X5487075Y-17911697D01*
X5410749Y-17843694D01*
X5373976Y-17810930D01*
X5367445Y-17807472D01*
X5240105Y-17740048D01*
X5240102Y-17740047D01*
X5234831Y-17737256D01*
X5122040Y-17708925D01*
X5087918Y-17700354D01*
X5087915Y-17700354D01*
X5082128Y-17698900D01*
X4924684Y-17698076D01*
X4924694Y-17696189D01*
X4872929Y-17685747D01*
X4851531Y-17669505D01*
X4804496Y-17622470D01*
X4776719Y-17567953D01*
X4775500Y-17552466D01*
X4775500Y-10783604D01*
X4794407Y-10725413D01*
X4843907Y-10689449D01*
X4905093Y-10689449D01*
X4939385Y-10708831D01*
X4958029Y-10725010D01*
X5139799Y-10830166D01*
X5144244Y-10831710D01*
X5144245Y-10831710D01*
X5333727Y-10897509D01*
X5333729Y-10897510D01*
X5338174Y-10899053D01*
X5342836Y-10899729D01*
X5541326Y-10928509D01*
X5541327Y-10928509D01*
X5545996Y-10929186D01*
X5550707Y-10928968D01*
X5550708Y-10928968D01*
X5751059Y-10919695D01*
X5751060Y-10919695D01*
X5755767Y-10919477D01*
X5840513Y-10899053D01*
X5955335Y-10871381D01*
X5955340Y-10871379D01*
X5959918Y-10870276D01*
X5964209Y-10868325D01*
X5964212Y-10868324D01*
X6084373Y-10813691D01*
X6145171Y-10806818D01*
X6195352Y-10833809D01*
X13991268Y-18629725D01*
X14004432Y-18646025D01*
X14011008Y-18656210D01*
X14038291Y-18677719D01*
X14044179Y-18682950D01*
X14046235Y-18684692D01*
X14049119Y-18687576D01*
X14052436Y-18689946D01*
X14052444Y-18689953D01*
X14065148Y-18699031D01*
X14068879Y-18701832D01*
X14098640Y-18725294D01*
X14109180Y-18733603D01*
X14116398Y-18736138D01*
X14118875Y-18737424D01*
X14125099Y-18741872D01*
X14156943Y-18751396D01*
X14174271Y-18756578D01*
X14178705Y-18758019D01*
X14221252Y-18772960D01*
X14221256Y-18772961D01*
X14227128Y-18775023D01*
X14232635Y-18775500D01*
X14234776Y-18775500D01*
X14235960Y-18775551D01*
X14238403Y-18775758D01*
X14244867Y-18777691D01*
X14253041Y-18777370D01*
X14253042Y-18777370D01*
X14298695Y-18775576D01*
X14302582Y-18775500D01*
X15649376Y-18775500D01*
X15670212Y-18777717D01*
X15674070Y-18778548D01*
X15674073Y-18778548D01*
X15682066Y-18780269D01*
X15690187Y-18779308D01*
X15690190Y-18779308D01*
X15716564Y-18776186D01*
X15724387Y-18775725D01*
X15727110Y-18775500D01*
X15731193Y-18775500D01*
X15735219Y-18774830D01*
X15735230Y-18774829D01*
X15750633Y-18772265D01*
X15755240Y-18771609D01*
X15779533Y-18768733D01*
X15798084Y-18766538D01*
X15798085Y-18766538D01*
X15806210Y-18765576D01*
X15813105Y-18762265D01*
X15815770Y-18761422D01*
X15823313Y-18760167D01*
X15868507Y-18735781D01*
X15872616Y-18733688D01*
X15918900Y-18711463D01*
X15923131Y-18707906D01*
X15924640Y-18706397D01*
X15925534Y-18705577D01*
X15927392Y-18704009D01*
X15933329Y-18700806D01*
X15951423Y-18681232D01*
X16004805Y-18651335D01*
X16025672Y-18649444D01*
X16168495Y-18651688D01*
X16178293Y-18649444D01*
X16316149Y-18617871D01*
X16316151Y-18617870D01*
X16321968Y-18616538D01*
X16327299Y-18613857D01*
X16457299Y-18548474D01*
X16457301Y-18548473D01*
X16462625Y-18545795D01*
X16472877Y-18537039D01*
X16577810Y-18447418D01*
X16577811Y-18447417D01*
X16582348Y-18443542D01*
X16643621Y-18358272D01*
X16670740Y-18320532D01*
X16670741Y-18320530D01*
X16674224Y-18315683D01*
X16693933Y-18266657D01*
X16730726Y-18175131D01*
X16730727Y-18175129D01*
X16732950Y-18169598D01*
X16735990Y-18148243D01*
X16754678Y-18016929D01*
X16754678Y-18016925D01*
X16755134Y-18013723D01*
X16755278Y-18000000D01*
X16740486Y-17877761D01*
X16737080Y-17849616D01*
X16737079Y-17849613D01*
X16736363Y-17843694D01*
X16709801Y-17773398D01*
X16682820Y-17701996D01*
X16680710Y-17696412D01*
X16609962Y-17593474D01*
X16594912Y-17571576D01*
X16594911Y-17571575D01*
X16591531Y-17566657D01*
X16587078Y-17562690D01*
X16587075Y-17562686D01*
X16519245Y-17502252D01*
X16473976Y-17461919D01*
X16466635Y-17458032D01*
X16340105Y-17391037D01*
X16340102Y-17391036D01*
X16334831Y-17388245D01*
X16231507Y-17362292D01*
X16187918Y-17351343D01*
X16187915Y-17351343D01*
X16182128Y-17349889D01*
X16102564Y-17349473D01*
X16030650Y-17349096D01*
X16030648Y-17349096D01*
X16024684Y-17349065D01*
X15871588Y-17385820D01*
X15847120Y-17398449D01*
X15736985Y-17455293D01*
X15736983Y-17455295D01*
X15731679Y-17458032D01*
X15727184Y-17461953D01*
X15727180Y-17461956D01*
X15692847Y-17491907D01*
X15636567Y-17515912D01*
X15576926Y-17502252D01*
X15535158Y-17452298D01*
X15514450Y-17397497D01*
X15512340Y-17391912D01*
X15427948Y-17269122D01*
X15426542Y-17267076D01*
X15426541Y-17267075D01*
X15423161Y-17262157D01*
X15418708Y-17258190D01*
X15418705Y-17258186D01*
X15335134Y-17183728D01*
X15305606Y-17157419D01*
X15300335Y-17154628D01*
X15171735Y-17086537D01*
X15171732Y-17086536D01*
X15166461Y-17083745D01*
X15090110Y-17064567D01*
X15019548Y-17046843D01*
X15019545Y-17046843D01*
X15013758Y-17045389D01*
X14934194Y-17044973D01*
X14862280Y-17044596D01*
X14862278Y-17044596D01*
X14856314Y-17044565D01*
X14703218Y-17081320D01*
X14630665Y-17118767D01*
X14568615Y-17150793D01*
X14568613Y-17150795D01*
X14563309Y-17153532D01*
X14444664Y-17257033D01*
X14441235Y-17261911D01*
X14440781Y-17262416D01*
X14387791Y-17293006D01*
X14326942Y-17286607D01*
X14297209Y-17266172D01*
X8504496Y-11473459D01*
X8476719Y-11418942D01*
X8475500Y-11403455D01*
X8475500Y-10926931D01*
X8494407Y-10868740D01*
X8533525Y-10836809D01*
X8646788Y-10785312D01*
X8646789Y-10785311D01*
X8651081Y-10783360D01*
X8822360Y-10661863D01*
X8934637Y-10544577D01*
X8964317Y-10513573D01*
X8964320Y-10513569D01*
X8967575Y-10510169D01*
X9081485Y-10333754D01*
X9083249Y-10329377D01*
X9158218Y-10143356D01*
X9158221Y-10143347D01*
X9159981Y-10138981D01*
X9179591Y-10038565D01*
X9199548Y-9936373D01*
X9199549Y-9936366D01*
X9200230Y-9932878D01*
X9200500Y-9927357D01*
X9200500Y-9877469D01*
X9499500Y-9877469D01*
X9504447Y-9929320D01*
X9513303Y-10022136D01*
X9514439Y-10034046D01*
X9573553Y-10235549D01*
X9669705Y-10422239D01*
X9799424Y-10587379D01*
X9912813Y-10685773D01*
X9948665Y-10716884D01*
X9958029Y-10725010D01*
X10139799Y-10830166D01*
X10144244Y-10831710D01*
X10144245Y-10831710D01*
X10333727Y-10897509D01*
X10333729Y-10897510D01*
X10338174Y-10899053D01*
X10342836Y-10899729D01*
X10541326Y-10928509D01*
X10541327Y-10928509D01*
X10545996Y-10929186D01*
X10550707Y-10928968D01*
X10550708Y-10928968D01*
X10751059Y-10919695D01*
X10751060Y-10919695D01*
X10755767Y-10919477D01*
X10840513Y-10899053D01*
X10955335Y-10871381D01*
X10955340Y-10871379D01*
X10959918Y-10870276D01*
X10995507Y-10854095D01*
X11114604Y-10799945D01*
X11151081Y-10783360D01*
X11322360Y-10661863D01*
X11434637Y-10544577D01*
X11464317Y-10513573D01*
X11464320Y-10513569D01*
X11467575Y-10510169D01*
X11581485Y-10333754D01*
X11583249Y-10329377D01*
X11658218Y-10143356D01*
X11658221Y-10143347D01*
X11659981Y-10138981D01*
X11679591Y-10038565D01*
X11699548Y-9936373D01*
X11699549Y-9936366D01*
X11700230Y-9932878D01*
X11700500Y-9927357D01*
X11700500Y-9522531D01*
X11685561Y-9365954D01*
X11626447Y-9164451D01*
X11530295Y-8977761D01*
X11400576Y-8812621D01*
X11241971Y-8674990D01*
X11060201Y-8569834D01*
X11022071Y-8556593D01*
X10866273Y-8502491D01*
X10866271Y-8502490D01*
X10861826Y-8500947D01*
X10807969Y-8493138D01*
X10658674Y-8471491D01*
X10658673Y-8471491D01*
X10654004Y-8470814D01*
X10649293Y-8471032D01*
X10649292Y-8471032D01*
X10448941Y-8480305D01*
X10448940Y-8480305D01*
X10444233Y-8480523D01*
X10374536Y-8497320D01*
X10244665Y-8528619D01*
X10244660Y-8528621D01*
X10240082Y-8529724D01*
X10048919Y-8616640D01*
X10045076Y-8619366D01*
X9979495Y-8665886D01*
X9877640Y-8738137D01*
X9806337Y-8812621D01*
X9735683Y-8886427D01*
X9735680Y-8886431D01*
X9732425Y-8889831D01*
X9618515Y-9066246D01*
X9616751Y-9070623D01*
X9569626Y-9187556D01*
X9540019Y-9261019D01*
X9539116Y-9265643D01*
X9500452Y-9463627D01*
X9500451Y-9463634D01*
X9499770Y-9467122D01*
X9499500Y-9472643D01*
X9499500Y-9877469D01*
X9200500Y-9877469D01*
X9200500Y-9522531D01*
X9185561Y-9365954D01*
X9126447Y-9164451D01*
X9030295Y-8977761D01*
X8900576Y-8812621D01*
X8741971Y-8674990D01*
X8560201Y-8569834D01*
X8522071Y-8556593D01*
X8366273Y-8502491D01*
X8366271Y-8502490D01*
X8361826Y-8500947D01*
X8307969Y-8493138D01*
X8158674Y-8471491D01*
X8158673Y-8471491D01*
X8154004Y-8470814D01*
X8149293Y-8471032D01*
X8149292Y-8471032D01*
X7948941Y-8480305D01*
X7948940Y-8480305D01*
X7944233Y-8480523D01*
X7874536Y-8497320D01*
X7744665Y-8528619D01*
X7744660Y-8528621D01*
X7740082Y-8529724D01*
X7548919Y-8616640D01*
X7545076Y-8619366D01*
X7479495Y-8665886D01*
X7377640Y-8738137D01*
X7306337Y-8812621D01*
X7235683Y-8886427D01*
X7235680Y-8886431D01*
X7232425Y-8889831D01*
X7118515Y-9066246D01*
X7116751Y-9070623D01*
X7069626Y-9187556D01*
X7040019Y-9261019D01*
X7039116Y-9265643D01*
X7000452Y-9463627D01*
X7000451Y-9463634D01*
X6999770Y-9467122D01*
X6999500Y-9472643D01*
X6999500Y-9877469D01*
X7004447Y-9929320D01*
X7013303Y-10022136D01*
X7014439Y-10034046D01*
X7073553Y-10235549D01*
X7169705Y-10422239D01*
X7299424Y-10587379D01*
X7412813Y-10685773D01*
X7448665Y-10716884D01*
X7458029Y-10725010D01*
X7639799Y-10830166D01*
X7644244Y-10831710D01*
X7644245Y-10831710D01*
X7657976Y-10836478D01*
X7706744Y-10873428D01*
X7724500Y-10930000D01*
X7724500Y-11061875D01*
X7705593Y-11120066D01*
X7656093Y-11156030D01*
X7594907Y-11156030D01*
X7555496Y-11131879D01*
X6678299Y-10254682D01*
X6650522Y-10200165D01*
X6656477Y-10147677D01*
X6658222Y-10143347D01*
X6658224Y-10143342D01*
X6659981Y-10138981D01*
X6662677Y-10125175D01*
X6699548Y-9936373D01*
X6699549Y-9936366D01*
X6700230Y-9932878D01*
X6700500Y-9927357D01*
X6700500Y-9522531D01*
X6685561Y-9365954D01*
X6626447Y-9164451D01*
X6530295Y-8977761D01*
X6400576Y-8812621D01*
X6241971Y-8674990D01*
X6060201Y-8569834D01*
X6022071Y-8556593D01*
X5866273Y-8502491D01*
X5866271Y-8502490D01*
X5861826Y-8500947D01*
X5807969Y-8493138D01*
X5658674Y-8471491D01*
X5658673Y-8471491D01*
X5654004Y-8470814D01*
X5649293Y-8471032D01*
X5649292Y-8471032D01*
X5448941Y-8480305D01*
X5448940Y-8480305D01*
X5444233Y-8480523D01*
X5374536Y-8497320D01*
X5244665Y-8528619D01*
X5244660Y-8528621D01*
X5240082Y-8529724D01*
X5048919Y-8616640D01*
X5045076Y-8619366D01*
X4931778Y-8699734D01*
X4873377Y-8717980D01*
X4815404Y-8698413D01*
X4780004Y-8648509D01*
X4775500Y-8618986D01*
X4775500Y-6696545D01*
X4794407Y-6638354D01*
X4804496Y-6626541D01*
X5426541Y-6004496D01*
X5481058Y-5976719D01*
X5496545Y-5975500D01*
X12615814Y-5975500D01*
X12674005Y-5994407D01*
G37*
%TD.AperFunction*%
%TA.AperFunction,Conductor*%
G36*
X46071798Y-11877389D02*
G01*
X46074617Y-11878128D01*
X46080589Y-11879695D01*
X46086550Y-11879789D01*
X46086553Y-11879789D01*
X46159302Y-11880932D01*
X46238015Y-11882168D01*
X46241182Y-11881443D01*
X46299998Y-11893942D01*
X46340940Y-11939411D01*
X46349500Y-11979680D01*
X46349500Y-12657859D01*
X46347282Y-12678695D01*
X46345049Y-12689068D01*
X46346011Y-12697193D01*
X46348814Y-12720878D01*
X46349161Y-12726770D01*
X46349164Y-12726770D01*
X46349500Y-12730837D01*
X46349500Y-12734922D01*
X46350170Y-12738948D01*
X46350171Y-12738959D01*
X46352496Y-12752926D01*
X46353152Y-12757533D01*
X46358764Y-12804945D01*
X46359423Y-12806318D01*
X46362261Y-12826257D01*
X46362261Y-13181208D01*
X46356670Y-13214006D01*
X46349945Y-13233155D01*
X46349500Y-13238293D01*
X46349500Y-13240434D01*
X46349426Y-13242150D01*
X46349311Y-13243511D01*
X46347456Y-13249713D01*
X46347777Y-13257884D01*
X46349424Y-13299803D01*
X46349500Y-13303690D01*
X46349500Y-16090701D01*
X46330593Y-16148892D01*
X46281093Y-16184856D01*
X46219907Y-16184856D01*
X46180496Y-16160705D01*
X45969408Y-15949616D01*
X45638582Y-15618790D01*
X45610805Y-15564273D01*
X45610574Y-15534837D01*
X45621304Y-15459445D01*
X45621304Y-15459441D01*
X45621760Y-15456239D01*
X45621904Y-15442516D01*
X45609055Y-15336338D01*
X45620835Y-15276297D01*
X45627410Y-15266428D01*
X45628332Y-15264751D01*
X45633398Y-15258325D01*
X45635964Y-15251018D01*
X45636611Y-15249772D01*
X45641117Y-15243467D01*
X45654794Y-15197732D01*
X45656235Y-15193297D01*
X45669999Y-15154103D01*
X45670000Y-15154100D01*
X45672061Y-15148230D01*
X45672506Y-15143092D01*
X45672506Y-15140956D01*
X45672581Y-15139217D01*
X45672695Y-15137874D01*
X45674549Y-15131673D01*
X45672582Y-15081598D01*
X45672506Y-15077712D01*
X45672506Y-15008726D01*
X45684750Y-14961035D01*
X45685828Y-14959074D01*
X45690893Y-14952649D01*
X45693459Y-14945342D01*
X45694106Y-14944096D01*
X45698612Y-14937791D01*
X45712289Y-14892056D01*
X45713730Y-14887621D01*
X45727494Y-14848427D01*
X45727495Y-14848424D01*
X45729556Y-14842554D01*
X45730001Y-14837416D01*
X45730001Y-14835280D01*
X45730076Y-14833541D01*
X45730190Y-14832198D01*
X45732044Y-14825997D01*
X45730077Y-14775922D01*
X45730001Y-14772036D01*
X45730001Y-14166488D01*
X45732219Y-14145652D01*
X45732729Y-14143281D01*
X45734452Y-14135279D01*
X45730687Y-14103469D01*
X45730340Y-14097577D01*
X45730337Y-14097577D01*
X45730001Y-14093510D01*
X45730001Y-14089425D01*
X45729331Y-14085399D01*
X45729330Y-14085388D01*
X45727005Y-14071421D01*
X45726347Y-14066802D01*
X45726301Y-14066412D01*
X45720737Y-14019401D01*
X45717384Y-14012418D01*
X45716962Y-14011084D01*
X45715689Y-14003437D01*
X45693007Y-13961401D01*
X45690889Y-13957243D01*
X45682262Y-13939277D01*
X45672506Y-13896423D01*
X45672506Y-12482995D01*
X45691413Y-12424804D01*
X45707211Y-12407715D01*
X45777810Y-12347418D01*
X45777811Y-12347417D01*
X45782348Y-12343542D01*
X45874224Y-12215683D01*
X45893333Y-12168150D01*
X45930726Y-12075131D01*
X45930727Y-12075129D01*
X45932950Y-12069598D01*
X45934330Y-12059907D01*
X45948662Y-11959199D01*
X45975579Y-11904253D01*
X46029653Y-11875622D01*
X46071798Y-11877389D01*
G37*
%TD.AperFunction*%
%TD*%
M02*
