%TF.GenerationSoftware,KiCad,Pcbnew,(6.0.0)*%
%TF.CreationDate,2022-09-29T23:41:46+02:00*%
%TF.ProjectId,bobbycar-lora-can-ethernet,626f6262-7963-4617-922d-6c6f72612d63,rev?*%
%TF.SameCoordinates,Original*%
%TF.FileFunction,Other,Comment*%
%FSLAX46Y46*%
G04 Gerber Fmt 4.6, Leading zero omitted, Abs format (unit mm)*
G04 Created by KiCad (PCBNEW (6.0.0)) date 2022-09-29 23:41:46*
%MOMM*%
%LPD*%
G01*
G04 APERTURE LIST*
%ADD10C,0.100000*%
%ADD11C,0.150000*%
%ADD12C,0.060000*%
%ADD13C,0.090000*%
G04 APERTURE END LIST*
D10*
%TO.C,U1*%
X18061904Y-1651190D02*
X17823809Y-1651190D01*
X17800000Y-1889285D01*
X17823809Y-1865476D01*
X17871428Y-1841666D01*
X17990476Y-1841666D01*
X18038095Y-1865476D01*
X18061904Y-1889285D01*
X18085714Y-1936904D01*
X18085714Y-2055952D01*
X18061904Y-2103571D01*
X18038095Y-2127380D01*
X17990476Y-2151190D01*
X17871428Y-2151190D01*
X17823809Y-2127380D01*
X17800000Y-2103571D01*
X18680952Y-2151190D02*
X18680952Y-1817857D01*
X18680952Y-1865476D02*
X18704761Y-1841666D01*
X18752380Y-1817857D01*
X18823809Y-1817857D01*
X18871428Y-1841666D01*
X18895238Y-1889285D01*
X18895238Y-2151190D01*
X18895238Y-1889285D02*
X18919047Y-1841666D01*
X18966666Y-1817857D01*
X19038095Y-1817857D01*
X19085714Y-1841666D01*
X19109523Y-1889285D01*
X19109523Y-2151190D01*
X19347619Y-2151190D02*
X19347619Y-1817857D01*
X19347619Y-1865476D02*
X19371428Y-1841666D01*
X19419047Y-1817857D01*
X19490476Y-1817857D01*
X19538095Y-1841666D01*
X19561904Y-1889285D01*
X19561904Y-2151190D01*
X19561904Y-1889285D02*
X19585714Y-1841666D01*
X19633333Y-1817857D01*
X19704761Y-1817857D01*
X19752380Y-1841666D01*
X19776190Y-1889285D01*
X19776190Y-2151190D01*
D11*
X27238095Y-3466666D02*
X27714285Y-3466666D01*
X27142857Y-3752380D02*
X27476190Y-2752380D01*
X27809523Y-3752380D01*
X28142857Y-3085714D02*
X28142857Y-3752380D01*
X28142857Y-3180952D02*
X28190476Y-3133333D01*
X28285714Y-3085714D01*
X28428571Y-3085714D01*
X28523809Y-3133333D01*
X28571428Y-3228571D01*
X28571428Y-3752380D01*
X28904761Y-3085714D02*
X29285714Y-3085714D01*
X29047619Y-2752380D02*
X29047619Y-3609523D01*
X29095238Y-3704761D01*
X29190476Y-3752380D01*
X29285714Y-3752380D01*
X30000000Y-3704761D02*
X29904761Y-3752380D01*
X29714285Y-3752380D01*
X29619047Y-3704761D01*
X29571428Y-3609523D01*
X29571428Y-3228571D01*
X29619047Y-3133333D01*
X29714285Y-3085714D01*
X29904761Y-3085714D01*
X30000000Y-3133333D01*
X30047619Y-3228571D01*
X30047619Y-3323809D01*
X29571428Y-3419047D01*
X30476190Y-3085714D02*
X30476190Y-3752380D01*
X30476190Y-3180952D02*
X30523809Y-3133333D01*
X30619047Y-3085714D01*
X30761904Y-3085714D01*
X30857142Y-3133333D01*
X30904761Y-3228571D01*
X30904761Y-3752380D01*
X31380952Y-3085714D02*
X31380952Y-3752380D01*
X31380952Y-3180952D02*
X31428571Y-3133333D01*
X31523809Y-3085714D01*
X31666666Y-3085714D01*
X31761904Y-3133333D01*
X31809523Y-3228571D01*
X31809523Y-3752380D01*
X32714285Y-3752380D02*
X32714285Y-3228571D01*
X32666666Y-3133333D01*
X32571428Y-3085714D01*
X32380952Y-3085714D01*
X32285714Y-3133333D01*
X32714285Y-3704761D02*
X32619047Y-3752380D01*
X32380952Y-3752380D01*
X32285714Y-3704761D01*
X32238095Y-3609523D01*
X32238095Y-3514285D01*
X32285714Y-3419047D01*
X32380952Y-3371428D01*
X32619047Y-3371428D01*
X32714285Y-3323809D01*
D10*
X37526190Y2036904D02*
X37526190Y1798809D01*
X37764285Y1775000D01*
X37740476Y1798809D01*
X37716666Y1846428D01*
X37716666Y1965476D01*
X37740476Y2013095D01*
X37764285Y2036904D01*
X37811904Y2060714D01*
X37930952Y2060714D01*
X37978571Y2036904D01*
X38002380Y2013095D01*
X38026190Y1965476D01*
X38026190Y1846428D01*
X38002380Y1798809D01*
X37978571Y1775000D01*
X38026190Y2655952D02*
X37692857Y2655952D01*
X37740476Y2655952D02*
X37716666Y2679761D01*
X37692857Y2727380D01*
X37692857Y2798809D01*
X37716666Y2846428D01*
X37764285Y2870238D01*
X38026190Y2870238D01*
X37764285Y2870238D02*
X37716666Y2894047D01*
X37692857Y2941666D01*
X37692857Y3013095D01*
X37716666Y3060714D01*
X37764285Y3084523D01*
X38026190Y3084523D01*
X38026190Y3322619D02*
X37692857Y3322619D01*
X37740476Y3322619D02*
X37716666Y3346428D01*
X37692857Y3394047D01*
X37692857Y3465476D01*
X37716666Y3513095D01*
X37764285Y3536904D01*
X38026190Y3536904D01*
X37764285Y3536904D02*
X37716666Y3560714D01*
X37692857Y3608333D01*
X37692857Y3679761D01*
X37716666Y3727380D01*
X37764285Y3751190D01*
X38026190Y3751190D01*
X41061904Y-1651190D02*
X40823809Y-1651190D01*
X40800000Y-1889285D01*
X40823809Y-1865476D01*
X40871428Y-1841666D01*
X40990476Y-1841666D01*
X41038095Y-1865476D01*
X41061904Y-1889285D01*
X41085714Y-1936904D01*
X41085714Y-2055952D01*
X41061904Y-2103571D01*
X41038095Y-2127380D01*
X40990476Y-2151190D01*
X40871428Y-2151190D01*
X40823809Y-2127380D01*
X40800000Y-2103571D01*
X41680952Y-2151190D02*
X41680952Y-1817857D01*
X41680952Y-1865476D02*
X41704761Y-1841666D01*
X41752380Y-1817857D01*
X41823809Y-1817857D01*
X41871428Y-1841666D01*
X41895238Y-1889285D01*
X41895238Y-2151190D01*
X41895238Y-1889285D02*
X41919047Y-1841666D01*
X41966666Y-1817857D01*
X42038095Y-1817857D01*
X42085714Y-1841666D01*
X42109523Y-1889285D01*
X42109523Y-2151190D01*
X42347619Y-2151190D02*
X42347619Y-1817857D01*
X42347619Y-1865476D02*
X42371428Y-1841666D01*
X42419047Y-1817857D01*
X42490476Y-1817857D01*
X42538095Y-1841666D01*
X42561904Y-1889285D01*
X42561904Y-2151190D01*
X42561904Y-1889285D02*
X42585714Y-1841666D01*
X42633333Y-1817857D01*
X42704761Y-1817857D01*
X42752380Y-1841666D01*
X42776190Y-1889285D01*
X42776190Y-2151190D01*
D11*
X23928571Y2247619D02*
X23928571Y3247619D01*
X24500000Y2247619D02*
X24071428Y2819047D01*
X24500000Y3247619D02*
X23928571Y2676190D01*
X24928571Y2771428D02*
X25261904Y2771428D01*
X25404761Y2247619D02*
X24928571Y2247619D01*
X24928571Y3247619D01*
X25404761Y3247619D01*
X25833333Y2771428D02*
X26166666Y2771428D01*
X26309523Y2247619D02*
X25833333Y2247619D01*
X25833333Y3247619D01*
X26309523Y3247619D01*
X26738095Y2247619D02*
X26738095Y3247619D01*
X27119047Y3247619D01*
X27214285Y3200000D01*
X27261904Y3152380D01*
X27309523Y3057142D01*
X27309523Y2914285D01*
X27261904Y2819047D01*
X27214285Y2771428D01*
X27119047Y2723809D01*
X26738095Y2723809D01*
X27738095Y2628571D02*
X28500000Y2628571D01*
X29166666Y3247619D02*
X29357142Y3247619D01*
X29452380Y3200000D01*
X29547619Y3104761D01*
X29595238Y2914285D01*
X29595238Y2580952D01*
X29547619Y2390476D01*
X29452380Y2295238D01*
X29357142Y2247619D01*
X29166666Y2247619D01*
X29071428Y2295238D01*
X28976190Y2390476D01*
X28928571Y2580952D01*
X28928571Y2914285D01*
X28976190Y3104761D01*
X29071428Y3200000D01*
X29166666Y3247619D01*
X30023809Y3247619D02*
X30023809Y2438095D01*
X30071428Y2342857D01*
X30119047Y2295238D01*
X30214285Y2247619D01*
X30404761Y2247619D01*
X30500000Y2295238D01*
X30547619Y2342857D01*
X30595238Y2438095D01*
X30595238Y3247619D01*
X30928571Y3247619D02*
X31500000Y3247619D01*
X31214285Y2247619D02*
X31214285Y3247619D01*
X32500000Y3247619D02*
X33166666Y3247619D01*
X32500000Y2247619D01*
X33166666Y2247619D01*
X33738095Y3247619D02*
X33928571Y3247619D01*
X34023809Y3200000D01*
X34119047Y3104761D01*
X34166666Y2914285D01*
X34166666Y2580952D01*
X34119047Y2390476D01*
X34023809Y2295238D01*
X33928571Y2247619D01*
X33738095Y2247619D01*
X33642857Y2295238D01*
X33547619Y2390476D01*
X33500000Y2580952D01*
X33500000Y2914285D01*
X33547619Y3104761D01*
X33642857Y3200000D01*
X33738095Y3247619D01*
X34595238Y2247619D02*
X34595238Y3247619D01*
X35166666Y2247619D01*
X35166666Y3247619D01*
X35642857Y2771428D02*
X35976190Y2771428D01*
X36119047Y2247619D02*
X35642857Y2247619D01*
X35642857Y3247619D01*
X36119047Y3247619D01*
D12*
%TO.C,J4*%
X1595952Y-36308095D02*
X1195952Y-36308095D01*
X1595952Y-36079523D02*
X1367380Y-36250952D01*
X1195952Y-36079523D02*
X1424523Y-36308095D01*
X1386428Y-35908095D02*
X1386428Y-35774761D01*
X1595952Y-35717619D02*
X1595952Y-35908095D01*
X1195952Y-35908095D01*
X1195952Y-35717619D01*
X1386428Y-35546190D02*
X1386428Y-35412857D01*
X1595952Y-35355714D02*
X1595952Y-35546190D01*
X1195952Y-35546190D01*
X1195952Y-35355714D01*
X1595952Y-35184285D02*
X1195952Y-35184285D01*
X1195952Y-35031904D01*
X1215000Y-34993809D01*
X1234047Y-34974761D01*
X1272142Y-34955714D01*
X1329285Y-34955714D01*
X1367380Y-34974761D01*
X1386428Y-34993809D01*
X1405476Y-35031904D01*
X1405476Y-35184285D01*
X1195952Y-34708095D02*
X1195952Y-34631904D01*
X1215000Y-34593809D01*
X1253095Y-34555714D01*
X1329285Y-34536666D01*
X1462619Y-34536666D01*
X1538809Y-34555714D01*
X1576904Y-34593809D01*
X1595952Y-34631904D01*
X1595952Y-34708095D01*
X1576904Y-34746190D01*
X1538809Y-34784285D01*
X1462619Y-34803333D01*
X1329285Y-34803333D01*
X1253095Y-34784285D01*
X1215000Y-34746190D01*
X1195952Y-34708095D01*
X1195952Y-34365238D02*
X1519761Y-34365238D01*
X1557857Y-34346190D01*
X1576904Y-34327142D01*
X1595952Y-34289047D01*
X1595952Y-34212857D01*
X1576904Y-34174761D01*
X1557857Y-34155714D01*
X1519761Y-34136666D01*
X1195952Y-34136666D01*
X1195952Y-34003333D02*
X1195952Y-33774761D01*
X1595952Y-33889047D02*
X1195952Y-33889047D01*
D13*
X4832857Y-25366428D02*
X4832857Y-24766428D01*
X5175714Y-25366428D02*
X4918571Y-25023571D01*
X5175714Y-24766428D02*
X4832857Y-25109285D01*
X5432857Y-25052142D02*
X5632857Y-25052142D01*
X5718571Y-25366428D02*
X5432857Y-25366428D01*
X5432857Y-24766428D01*
X5718571Y-24766428D01*
X5975714Y-25052142D02*
X6175714Y-25052142D01*
X6261428Y-25366428D02*
X5975714Y-25366428D01*
X5975714Y-24766428D01*
X6261428Y-24766428D01*
X6518571Y-25366428D02*
X6518571Y-24766428D01*
X6747142Y-24766428D01*
X6804285Y-24795000D01*
X6832857Y-24823571D01*
X6861428Y-24880714D01*
X6861428Y-24966428D01*
X6832857Y-25023571D01*
X6804285Y-25052142D01*
X6747142Y-25080714D01*
X6518571Y-25080714D01*
X7232857Y-24766428D02*
X7347142Y-24766428D01*
X7404285Y-24795000D01*
X7461428Y-24852142D01*
X7490000Y-24966428D01*
X7490000Y-25166428D01*
X7461428Y-25280714D01*
X7404285Y-25337857D01*
X7347142Y-25366428D01*
X7232857Y-25366428D01*
X7175714Y-25337857D01*
X7118571Y-25280714D01*
X7090000Y-25166428D01*
X7090000Y-24966428D01*
X7118571Y-24852142D01*
X7175714Y-24795000D01*
X7232857Y-24766428D01*
X7747142Y-24766428D02*
X7747142Y-25252142D01*
X7775714Y-25309285D01*
X7804285Y-25337857D01*
X7861428Y-25366428D01*
X7975714Y-25366428D01*
X8032857Y-25337857D01*
X8061428Y-25309285D01*
X8090000Y-25252142D01*
X8090000Y-24766428D01*
X8290000Y-24766428D02*
X8632857Y-24766428D01*
X8461428Y-25366428D02*
X8461428Y-24766428D01*
X10457857Y-24291428D02*
X10457857Y-23691428D01*
X10800714Y-24291428D02*
X10543571Y-23948571D01*
X10800714Y-23691428D02*
X10457857Y-24034285D01*
X11057857Y-23977142D02*
X11257857Y-23977142D01*
X11343571Y-24291428D02*
X11057857Y-24291428D01*
X11057857Y-23691428D01*
X11343571Y-23691428D01*
X11600714Y-23977142D02*
X11800714Y-23977142D01*
X11886428Y-24291428D02*
X11600714Y-24291428D01*
X11600714Y-23691428D01*
X11886428Y-23691428D01*
X12143571Y-24291428D02*
X12143571Y-23691428D01*
X12372142Y-23691428D01*
X12429285Y-23720000D01*
X12457857Y-23748571D01*
X12486428Y-23805714D01*
X12486428Y-23891428D01*
X12457857Y-23948571D01*
X12429285Y-23977142D01*
X12372142Y-24005714D01*
X12143571Y-24005714D01*
X12857857Y-23691428D02*
X12972142Y-23691428D01*
X13029285Y-23720000D01*
X13086428Y-23777142D01*
X13115000Y-23891428D01*
X13115000Y-24091428D01*
X13086428Y-24205714D01*
X13029285Y-24262857D01*
X12972142Y-24291428D01*
X12857857Y-24291428D01*
X12800714Y-24262857D01*
X12743571Y-24205714D01*
X12715000Y-24091428D01*
X12715000Y-23891428D01*
X12743571Y-23777142D01*
X12800714Y-23720000D01*
X12857857Y-23691428D01*
X13372142Y-23691428D02*
X13372142Y-24177142D01*
X13400714Y-24234285D01*
X13429285Y-24262857D01*
X13486428Y-24291428D01*
X13600714Y-24291428D01*
X13657857Y-24262857D01*
X13686428Y-24234285D01*
X13715000Y-24177142D01*
X13715000Y-23691428D01*
X13915000Y-23691428D02*
X14257857Y-23691428D01*
X14086428Y-24291428D02*
X14086428Y-23691428D01*
D10*
X11442380Y-32890238D02*
X10442380Y-32890238D01*
X11442380Y-32318809D02*
X10870952Y-32747380D01*
X10442380Y-32318809D02*
X11013809Y-32890238D01*
X10918571Y-31890238D02*
X10918571Y-31556904D01*
X11442380Y-31414047D02*
X11442380Y-31890238D01*
X10442380Y-31890238D01*
X10442380Y-31414047D01*
X10918571Y-30985476D02*
X10918571Y-30652142D01*
X11442380Y-30509285D02*
X11442380Y-30985476D01*
X10442380Y-30985476D01*
X10442380Y-30509285D01*
X11442380Y-30080714D02*
X10442380Y-30080714D01*
X10442380Y-29699761D01*
X10490000Y-29604523D01*
X10537619Y-29556904D01*
X10632857Y-29509285D01*
X10775714Y-29509285D01*
X10870952Y-29556904D01*
X10918571Y-29604523D01*
X10966190Y-29699761D01*
X10966190Y-30080714D01*
X10442380Y-28890238D02*
X10442380Y-28699761D01*
X10490000Y-28604523D01*
X10585238Y-28509285D01*
X10775714Y-28461666D01*
X11109047Y-28461666D01*
X11299523Y-28509285D01*
X11394761Y-28604523D01*
X11442380Y-28699761D01*
X11442380Y-28890238D01*
X11394761Y-28985476D01*
X11299523Y-29080714D01*
X11109047Y-29128333D01*
X10775714Y-29128333D01*
X10585238Y-29080714D01*
X10490000Y-28985476D01*
X10442380Y-28890238D01*
X10442380Y-28033095D02*
X11251904Y-28033095D01*
X11347142Y-27985476D01*
X11394761Y-27937857D01*
X11442380Y-27842619D01*
X11442380Y-27652142D01*
X11394761Y-27556904D01*
X11347142Y-27509285D01*
X11251904Y-27461666D01*
X10442380Y-27461666D01*
X10442380Y-27128333D02*
X10442380Y-26556904D01*
X11442380Y-26842619D02*
X10442380Y-26842619D01*
D11*
%TO.C,AE2*%
X41652380Y-47061904D02*
X41128571Y-47061904D01*
X41033333Y-47109523D01*
X40985714Y-47204761D01*
X40985714Y-47395238D01*
X41033333Y-47490476D01*
X41604761Y-47061904D02*
X41652380Y-47157142D01*
X41652380Y-47395238D01*
X41604761Y-47490476D01*
X41509523Y-47538095D01*
X41414285Y-47538095D01*
X41319047Y-47490476D01*
X41271428Y-47395238D01*
X41271428Y-47157142D01*
X41223809Y-47061904D01*
X40985714Y-46585714D02*
X41652380Y-46585714D01*
X41080952Y-46585714D02*
X41033333Y-46538095D01*
X40985714Y-46442857D01*
X40985714Y-46300000D01*
X41033333Y-46204761D01*
X41128571Y-46157142D01*
X41652380Y-46157142D01*
X40985714Y-45776190D02*
X41652380Y-45538095D01*
X40985714Y-45300000D02*
X41652380Y-45538095D01*
X41890476Y-45633333D01*
X41938095Y-45680952D01*
X41985714Y-45776190D01*
X41604761Y-43728571D02*
X41652380Y-43823809D01*
X41652380Y-44014285D01*
X41604761Y-44109523D01*
X41557142Y-44157142D01*
X41461904Y-44204761D01*
X41176190Y-44204761D01*
X41080952Y-44157142D01*
X41033333Y-44109523D01*
X40985714Y-44014285D01*
X40985714Y-43823809D01*
X41033333Y-43728571D01*
X41652380Y-43157142D02*
X41604761Y-43252380D01*
X41557142Y-43300000D01*
X41461904Y-43347619D01*
X41176190Y-43347619D01*
X41080952Y-43300000D01*
X41033333Y-43252380D01*
X40985714Y-43157142D01*
X40985714Y-43014285D01*
X41033333Y-42919047D01*
X41080952Y-42871428D01*
X41176190Y-42823809D01*
X41461904Y-42823809D01*
X41557142Y-42871428D01*
X41604761Y-42919047D01*
X41652380Y-43014285D01*
X41652380Y-43157142D01*
X41652380Y-42395238D02*
X40985714Y-42395238D01*
X41080952Y-42395238D02*
X41033333Y-42347619D01*
X40985714Y-42252380D01*
X40985714Y-42109523D01*
X41033333Y-42014285D01*
X41128571Y-41966666D01*
X41652380Y-41966666D01*
X41128571Y-41966666D02*
X41033333Y-41919047D01*
X40985714Y-41823809D01*
X40985714Y-41680952D01*
X41033333Y-41585714D01*
X41128571Y-41538095D01*
X41652380Y-41538095D01*
X40985714Y-41061904D02*
X41985714Y-41061904D01*
X41033333Y-41061904D02*
X40985714Y-40966666D01*
X40985714Y-40776190D01*
X41033333Y-40680952D01*
X41080952Y-40633333D01*
X41176190Y-40585714D01*
X41461904Y-40585714D01*
X41557142Y-40633333D01*
X41604761Y-40680952D01*
X41652380Y-40776190D01*
X41652380Y-40966666D01*
X41604761Y-41061904D01*
X41652380Y-40014285D02*
X41604761Y-40109523D01*
X41557142Y-40157142D01*
X41461904Y-40204761D01*
X41176190Y-40204761D01*
X41080952Y-40157142D01*
X41033333Y-40109523D01*
X40985714Y-40014285D01*
X40985714Y-39871428D01*
X41033333Y-39776190D01*
X41080952Y-39728571D01*
X41176190Y-39680952D01*
X41461904Y-39680952D01*
X41557142Y-39728571D01*
X41604761Y-39776190D01*
X41652380Y-39871428D01*
X41652380Y-40014285D01*
X40985714Y-39252380D02*
X41652380Y-39252380D01*
X41080952Y-39252380D02*
X41033333Y-39204761D01*
X40985714Y-39109523D01*
X40985714Y-38966666D01*
X41033333Y-38871428D01*
X41128571Y-38823809D01*
X41652380Y-38823809D01*
X41604761Y-37966666D02*
X41652380Y-38061904D01*
X41652380Y-38252380D01*
X41604761Y-38347619D01*
X41509523Y-38395238D01*
X41128571Y-38395238D01*
X41033333Y-38347619D01*
X40985714Y-38252380D01*
X40985714Y-38061904D01*
X41033333Y-37966666D01*
X41128571Y-37919047D01*
X41223809Y-37919047D01*
X41319047Y-38395238D01*
X40985714Y-37490476D02*
X41652380Y-37490476D01*
X41080952Y-37490476D02*
X41033333Y-37442857D01*
X40985714Y-37347619D01*
X40985714Y-37204761D01*
X41033333Y-37109523D01*
X41128571Y-37061904D01*
X41652380Y-37061904D01*
X40985714Y-36728571D02*
X40985714Y-36347619D01*
X40652380Y-36585714D02*
X41509523Y-36585714D01*
X41604761Y-36538095D01*
X41652380Y-36442857D01*
X41652380Y-36347619D01*
X41604761Y-36061904D02*
X41652380Y-35966666D01*
X41652380Y-35776190D01*
X41604761Y-35680952D01*
X41509523Y-35633333D01*
X41461904Y-35633333D01*
X41366666Y-35680952D01*
X41319047Y-35776190D01*
X41319047Y-35919047D01*
X41271428Y-36014285D01*
X41176190Y-36061904D01*
X41128571Y-36061904D01*
X41033333Y-36014285D01*
X40985714Y-35919047D01*
X40985714Y-35776190D01*
X41033333Y-35680952D01*
X41652380Y-34300000D02*
X41604761Y-34395238D01*
X41557142Y-34442857D01*
X41461904Y-34490476D01*
X41176190Y-34490476D01*
X41080952Y-34442857D01*
X41033333Y-34395238D01*
X40985714Y-34300000D01*
X40985714Y-34157142D01*
X41033333Y-34061904D01*
X41080952Y-34014285D01*
X41176190Y-33966666D01*
X41461904Y-33966666D01*
X41557142Y-34014285D01*
X41604761Y-34061904D01*
X41652380Y-34157142D01*
X41652380Y-34300000D01*
X40985714Y-33538095D02*
X41652380Y-33538095D01*
X41080952Y-33538095D02*
X41033333Y-33490476D01*
X40985714Y-33395238D01*
X40985714Y-33252380D01*
X41033333Y-33157142D01*
X41128571Y-33109523D01*
X41652380Y-33109523D01*
X43652380Y-47966666D02*
X42652380Y-47966666D01*
X43652380Y-47395238D01*
X42652380Y-47395238D01*
X43652380Y-46776190D02*
X43604761Y-46871428D01*
X43557142Y-46919047D01*
X43461904Y-46966666D01*
X43176190Y-46966666D01*
X43080952Y-46919047D01*
X43033333Y-46871428D01*
X42985714Y-46776190D01*
X42985714Y-46633333D01*
X43033333Y-46538095D01*
X43080952Y-46490476D01*
X43176190Y-46442857D01*
X43461904Y-46442857D01*
X43557142Y-46490476D01*
X43604761Y-46538095D01*
X43652380Y-46633333D01*
X43652380Y-46776190D01*
X43652380Y-45252380D02*
X42985714Y-45252380D01*
X43080952Y-45252380D02*
X43033333Y-45204761D01*
X42985714Y-45109523D01*
X42985714Y-44966666D01*
X43033333Y-44871428D01*
X43128571Y-44823809D01*
X43652380Y-44823809D01*
X43128571Y-44823809D02*
X43033333Y-44776190D01*
X42985714Y-44680952D01*
X42985714Y-44538095D01*
X43033333Y-44442857D01*
X43128571Y-44395238D01*
X43652380Y-44395238D01*
X43604761Y-43538095D02*
X43652380Y-43633333D01*
X43652380Y-43823809D01*
X43604761Y-43919047D01*
X43509523Y-43966666D01*
X43128571Y-43966666D01*
X43033333Y-43919047D01*
X42985714Y-43823809D01*
X42985714Y-43633333D01*
X43033333Y-43538095D01*
X43128571Y-43490476D01*
X43223809Y-43490476D01*
X43319047Y-43966666D01*
X42985714Y-43204761D02*
X42985714Y-42823809D01*
X42652380Y-43061904D02*
X43509523Y-43061904D01*
X43604761Y-43014285D01*
X43652380Y-42919047D01*
X43652380Y-42823809D01*
X43652380Y-42061904D02*
X43128571Y-42061904D01*
X43033333Y-42109523D01*
X42985714Y-42204761D01*
X42985714Y-42395238D01*
X43033333Y-42490476D01*
X43604761Y-42061904D02*
X43652380Y-42157142D01*
X43652380Y-42395238D01*
X43604761Y-42490476D01*
X43509523Y-42538095D01*
X43414285Y-42538095D01*
X43319047Y-42490476D01*
X43271428Y-42395238D01*
X43271428Y-42157142D01*
X43223809Y-42061904D01*
X43652380Y-41442857D02*
X43604761Y-41538095D01*
X43509523Y-41585714D01*
X42652380Y-41585714D01*
X43604761Y-41014285D02*
X43652380Y-41014285D01*
X43747619Y-41061904D01*
X43795238Y-41109523D01*
X42985714Y-39966666D02*
X42985714Y-39585714D01*
X42652380Y-39823809D02*
X43509523Y-39823809D01*
X43604761Y-39776190D01*
X43652380Y-39680952D01*
X43652380Y-39585714D01*
X43652380Y-39252380D02*
X42985714Y-39252380D01*
X43176190Y-39252380D02*
X43080952Y-39204761D01*
X43033333Y-39157142D01*
X42985714Y-39061904D01*
X42985714Y-38966666D01*
X43652380Y-38204761D02*
X43128571Y-38204761D01*
X43033333Y-38252380D01*
X42985714Y-38347619D01*
X42985714Y-38538095D01*
X43033333Y-38633333D01*
X43604761Y-38204761D02*
X43652380Y-38300000D01*
X43652380Y-38538095D01*
X43604761Y-38633333D01*
X43509523Y-38680952D01*
X43414285Y-38680952D01*
X43319047Y-38633333D01*
X43271428Y-38538095D01*
X43271428Y-38300000D01*
X43223809Y-38204761D01*
X43604761Y-37300000D02*
X43652380Y-37395238D01*
X43652380Y-37585714D01*
X43604761Y-37680952D01*
X43557142Y-37728571D01*
X43461904Y-37776190D01*
X43176190Y-37776190D01*
X43080952Y-37728571D01*
X43033333Y-37680952D01*
X42985714Y-37585714D01*
X42985714Y-37395238D01*
X43033333Y-37300000D01*
X43604761Y-36490476D02*
X43652380Y-36585714D01*
X43652380Y-36776190D01*
X43604761Y-36871428D01*
X43509523Y-36919047D01*
X43128571Y-36919047D01*
X43033333Y-36871428D01*
X42985714Y-36776190D01*
X42985714Y-36585714D01*
X43033333Y-36490476D01*
X43128571Y-36442857D01*
X43223809Y-36442857D01*
X43319047Y-36919047D01*
X43604761Y-36061904D02*
X43652380Y-35966666D01*
X43652380Y-35776190D01*
X43604761Y-35680952D01*
X43509523Y-35633333D01*
X43461904Y-35633333D01*
X43366666Y-35680952D01*
X43319047Y-35776190D01*
X43319047Y-35919047D01*
X43271428Y-36014285D01*
X43176190Y-36061904D01*
X43128571Y-36061904D01*
X43033333Y-36014285D01*
X42985714Y-35919047D01*
X42985714Y-35776190D01*
X43033333Y-35680952D01*
X43652380Y-34300000D02*
X43604761Y-34395238D01*
X43557142Y-34442857D01*
X43461904Y-34490476D01*
X43176190Y-34490476D01*
X43080952Y-34442857D01*
X43033333Y-34395238D01*
X42985714Y-34300000D01*
X42985714Y-34157142D01*
X43033333Y-34061904D01*
X43080952Y-34014285D01*
X43176190Y-33966666D01*
X43461904Y-33966666D01*
X43557142Y-34014285D01*
X43604761Y-34061904D01*
X43652380Y-34157142D01*
X43652380Y-34300000D01*
X43652380Y-33538095D02*
X42985714Y-33538095D01*
X43176190Y-33538095D02*
X43080952Y-33490476D01*
X43033333Y-33442857D01*
X42985714Y-33347619D01*
X42985714Y-33252380D01*
X46652380Y-46371428D02*
X45652380Y-46371428D01*
X46652380Y-45800000D02*
X46080952Y-46228571D01*
X45652380Y-45800000D02*
X46223809Y-46371428D01*
X46128571Y-45371428D02*
X46128571Y-45038095D01*
X46652380Y-44895238D02*
X46652380Y-45371428D01*
X45652380Y-45371428D01*
X45652380Y-44895238D01*
X46128571Y-44466666D02*
X46128571Y-44133333D01*
X46652380Y-43990476D02*
X46652380Y-44466666D01*
X45652380Y-44466666D01*
X45652380Y-43990476D01*
X46652380Y-43561904D02*
X45652380Y-43561904D01*
X45652380Y-43180952D01*
X45700000Y-43085714D01*
X45747619Y-43038095D01*
X45842857Y-42990476D01*
X45985714Y-42990476D01*
X46080952Y-43038095D01*
X46128571Y-43085714D01*
X46176190Y-43180952D01*
X46176190Y-43561904D01*
X46271428Y-42561904D02*
X46271428Y-41800000D01*
X45652380Y-41133333D02*
X45652380Y-40942857D01*
X45700000Y-40847619D01*
X45795238Y-40752380D01*
X45985714Y-40704761D01*
X46319047Y-40704761D01*
X46509523Y-40752380D01*
X46604761Y-40847619D01*
X46652380Y-40942857D01*
X46652380Y-41133333D01*
X46604761Y-41228571D01*
X46509523Y-41323809D01*
X46319047Y-41371428D01*
X45985714Y-41371428D01*
X45795238Y-41323809D01*
X45700000Y-41228571D01*
X45652380Y-41133333D01*
X45652380Y-40276190D02*
X46461904Y-40276190D01*
X46557142Y-40228571D01*
X46604761Y-40180952D01*
X46652380Y-40085714D01*
X46652380Y-39895238D01*
X46604761Y-39800000D01*
X46557142Y-39752380D01*
X46461904Y-39704761D01*
X45652380Y-39704761D01*
X45652380Y-39371428D02*
X45652380Y-38800000D01*
X46652380Y-39085714D02*
X45652380Y-39085714D01*
X45652380Y-37800000D02*
X45652380Y-37133333D01*
X46652380Y-37800000D01*
X46652380Y-37133333D01*
X45652380Y-36561904D02*
X45652380Y-36371428D01*
X45700000Y-36276190D01*
X45795238Y-36180952D01*
X45985714Y-36133333D01*
X46319047Y-36133333D01*
X46509523Y-36180952D01*
X46604761Y-36276190D01*
X46652380Y-36371428D01*
X46652380Y-36561904D01*
X46604761Y-36657142D01*
X46509523Y-36752380D01*
X46319047Y-36800000D01*
X45985714Y-36800000D01*
X45795238Y-36752380D01*
X45700000Y-36657142D01*
X45652380Y-36561904D01*
X46652380Y-35704761D02*
X45652380Y-35704761D01*
X46652380Y-35133333D01*
X45652380Y-35133333D01*
X46128571Y-34657142D02*
X46128571Y-34323809D01*
X46652380Y-34180952D02*
X46652380Y-34657142D01*
X45652380Y-34657142D01*
X45652380Y-34180952D01*
X39652380Y-44871428D02*
X39128571Y-44871428D01*
X39033333Y-44919047D01*
X38985714Y-45014285D01*
X38985714Y-45204761D01*
X39033333Y-45300000D01*
X39604761Y-44871428D02*
X39652380Y-44966666D01*
X39652380Y-45204761D01*
X39604761Y-45300000D01*
X39509523Y-45347619D01*
X39414285Y-45347619D01*
X39319047Y-45300000D01*
X39271428Y-45204761D01*
X39271428Y-44966666D01*
X39223809Y-44871428D01*
X38985714Y-44395238D02*
X39652380Y-44395238D01*
X39080952Y-44395238D02*
X39033333Y-44347619D01*
X38985714Y-44252380D01*
X38985714Y-44109523D01*
X39033333Y-44014285D01*
X39128571Y-43966666D01*
X39652380Y-43966666D01*
X38985714Y-43585714D02*
X39652380Y-43347619D01*
X38985714Y-43109523D02*
X39652380Y-43347619D01*
X39890476Y-43442857D01*
X39938095Y-43490476D01*
X39985714Y-43585714D01*
X39652380Y-41966666D02*
X38652380Y-41966666D01*
X38652380Y-41585714D01*
X38700000Y-41490476D01*
X38747619Y-41442857D01*
X38842857Y-41395238D01*
X38985714Y-41395238D01*
X39080952Y-41442857D01*
X39128571Y-41490476D01*
X39176190Y-41585714D01*
X39176190Y-41966666D01*
X39557142Y-40395238D02*
X39604761Y-40442857D01*
X39652380Y-40585714D01*
X39652380Y-40680952D01*
X39604761Y-40823809D01*
X39509523Y-40919047D01*
X39414285Y-40966666D01*
X39223809Y-41014285D01*
X39080952Y-41014285D01*
X38890476Y-40966666D01*
X38795238Y-40919047D01*
X38700000Y-40823809D01*
X38652380Y-40680952D01*
X38652380Y-40585714D01*
X38700000Y-40442857D01*
X38747619Y-40395238D01*
X39128571Y-39633333D02*
X39176190Y-39490476D01*
X39223809Y-39442857D01*
X39319047Y-39395238D01*
X39461904Y-39395238D01*
X39557142Y-39442857D01*
X39604761Y-39490476D01*
X39652380Y-39585714D01*
X39652380Y-39966666D01*
X38652380Y-39966666D01*
X38652380Y-39633333D01*
X38700000Y-39538095D01*
X38747619Y-39490476D01*
X38842857Y-39442857D01*
X38938095Y-39442857D01*
X39033333Y-39490476D01*
X39080952Y-39538095D01*
X39128571Y-39633333D01*
X39128571Y-39966666D01*
X39652380Y-38061904D02*
X39604761Y-38157142D01*
X39509523Y-38204761D01*
X38652380Y-38204761D01*
X39652380Y-37252380D02*
X39128571Y-37252380D01*
X39033333Y-37300000D01*
X38985714Y-37395238D01*
X38985714Y-37585714D01*
X39033333Y-37680952D01*
X39604761Y-37252380D02*
X39652380Y-37347619D01*
X39652380Y-37585714D01*
X39604761Y-37680952D01*
X39509523Y-37728571D01*
X39414285Y-37728571D01*
X39319047Y-37680952D01*
X39271428Y-37585714D01*
X39271428Y-37347619D01*
X39223809Y-37252380D01*
X38985714Y-36871428D02*
X39652380Y-36633333D01*
X38985714Y-36395238D02*
X39652380Y-36633333D01*
X39890476Y-36728571D01*
X39938095Y-36776190D01*
X39985714Y-36871428D01*
X39604761Y-35633333D02*
X39652380Y-35728571D01*
X39652380Y-35919047D01*
X39604761Y-36014285D01*
X39509523Y-36061904D01*
X39128571Y-36061904D01*
X39033333Y-36014285D01*
X38985714Y-35919047D01*
X38985714Y-35728571D01*
X39033333Y-35633333D01*
X39128571Y-35585714D01*
X39223809Y-35585714D01*
X39319047Y-36061904D01*
X39652380Y-35157142D02*
X38985714Y-35157142D01*
X39176190Y-35157142D02*
X39080952Y-35109523D01*
X39033333Y-35061904D01*
X38985714Y-34966666D01*
X38985714Y-34871428D01*
X39557142Y-34538095D02*
X39604761Y-34490476D01*
X39652380Y-34538095D01*
X39604761Y-34585714D01*
X39557142Y-34538095D01*
X39652380Y-34538095D01*
D10*
%TO.C,U1*%
X38400000Y-300000D02*
X38400000Y4300000D01*
X38400000Y4300000D02*
X38200000Y4100000D01*
X16200000Y-2425000D02*
X16400000Y-2225000D01*
X39200000Y-2425000D02*
X39400000Y-2225000D01*
X20800000Y-2425000D02*
X20600000Y-2225000D01*
X16200000Y-2425000D02*
X20800000Y-2425000D01*
X43800000Y-2425000D02*
X43600000Y-2625000D01*
X43800000Y-2425000D02*
X43600000Y-2225000D01*
X20800000Y-2425000D02*
X20600000Y-2625000D01*
X39200000Y-2425000D02*
X39400000Y-2625000D01*
X16200000Y-2425000D02*
X16400000Y-2625000D01*
X38400000Y-300000D02*
X38200000Y-100000D01*
X39200000Y-2425000D02*
X43800000Y-2425000D01*
X38400000Y4300000D02*
X38600000Y4100000D01*
X38400000Y-300000D02*
X38600000Y-100000D01*
%TD*%
M02*
