%TF.GenerationSoftware,KiCad,Pcbnew,(6.0.0)*%
%TF.CreationDate,2022-09-29T23:41:46+02:00*%
%TF.ProjectId,bobbycar-lora-can-ethernet,626f6262-7963-4617-922d-6c6f72612d63,rev?*%
%TF.SameCoordinates,Original*%
%TF.FileFunction,Legend,Bot*%
%TF.FilePolarity,Positive*%
%FSLAX46Y46*%
G04 Gerber Fmt 4.6, Leading zero omitted, Abs format (unit mm)*
G04 Created by KiCad (PCBNEW (6.0.0)) date 2022-09-29 23:41:46*
%MOMM*%
%LPD*%
G01*
G04 APERTURE LIST*
G04 Aperture macros list*
%AMRoundRect*
0 Rectangle with rounded corners*
0 $1 Rounding radius*
0 $2 $3 $4 $5 $6 $7 $8 $9 X,Y pos of 4 corners*
0 Add a 4 corners polygon primitive as box body*
4,1,4,$2,$3,$4,$5,$6,$7,$8,$9,$2,$3,0*
0 Add four circle primitives for the rounded corners*
1,1,$1+$1,$2,$3*
1,1,$1+$1,$4,$5*
1,1,$1+$1,$6,$7*
1,1,$1+$1,$8,$9*
0 Add four rect primitives between the rounded corners*
20,1,$1+$1,$2,$3,$4,$5,0*
20,1,$1+$1,$4,$5,$6,$7,0*
20,1,$1+$1,$6,$7,$8,$9,0*
20,1,$1+$1,$8,$9,$2,$3,0*%
G04 Aperture macros list end*
%ADD10C,0.150000*%
%ADD11R,1.350000X1.350000*%
%ADD12O,1.350000X1.350000*%
%ADD13RoundRect,0.250000X-0.600000X-0.725000X0.600000X-0.725000X0.600000X0.725000X-0.600000X0.725000X0*%
%ADD14O,1.700000X1.950000*%
%ADD15C,0.650000*%
%ADD16O,2.100000X1.000000*%
%ADD17O,1.800000X1.000000*%
G04 APERTURE END LIST*
D10*
%TO.C,L3*%
X3566666Y-16952380D02*
X4042857Y-16952380D01*
X4042857Y-15952380D01*
X3328571Y-15952380D02*
X2709523Y-15952380D01*
X3042857Y-16333333D01*
X2900000Y-16333333D01*
X2804761Y-16380952D01*
X2757142Y-16428571D01*
X2709523Y-16523809D01*
X2709523Y-16761904D01*
X2757142Y-16857142D01*
X2804761Y-16904761D01*
X2900000Y-16952380D01*
X3185714Y-16952380D01*
X3280952Y-16904761D01*
X3328571Y-16857142D01*
%TO.C,C11*%
X8057142Y-16857142D02*
X8104761Y-16809523D01*
X8152380Y-16666666D01*
X8152380Y-16571428D01*
X8104761Y-16428571D01*
X8009523Y-16333333D01*
X7914285Y-16285714D01*
X7723809Y-16238095D01*
X7580952Y-16238095D01*
X7390476Y-16285714D01*
X7295238Y-16333333D01*
X7200000Y-16428571D01*
X7152380Y-16571428D01*
X7152380Y-16666666D01*
X7200000Y-16809523D01*
X7247619Y-16857142D01*
X8152380Y-17809523D02*
X8152380Y-17238095D01*
X8152380Y-17523809D02*
X7152380Y-17523809D01*
X7295238Y-17428571D01*
X7390476Y-17333333D01*
X7438095Y-17238095D01*
X8152380Y-18761904D02*
X8152380Y-18190476D01*
X8152380Y-18476190D02*
X7152380Y-18476190D01*
X7295238Y-18380952D01*
X7390476Y-18285714D01*
X7438095Y-18190476D01*
%TO.C,D1*%
X2638095Y-46552380D02*
X2638095Y-45552380D01*
X2400000Y-45552380D01*
X2257142Y-45600000D01*
X2161904Y-45695238D01*
X2114285Y-45790476D01*
X2066666Y-45980952D01*
X2066666Y-46123809D01*
X2114285Y-46314285D01*
X2161904Y-46409523D01*
X2257142Y-46504761D01*
X2400000Y-46552380D01*
X2638095Y-46552380D01*
X1114285Y-46552380D02*
X1685714Y-46552380D01*
X1400000Y-46552380D02*
X1400000Y-45552380D01*
X1495238Y-45695238D01*
X1590476Y-45790476D01*
X1685714Y-45838095D01*
%TO.C,R14*%
X42242857Y-25252380D02*
X42576190Y-24776190D01*
X42814285Y-25252380D02*
X42814285Y-24252380D01*
X42433333Y-24252380D01*
X42338095Y-24300000D01*
X42290476Y-24347619D01*
X42242857Y-24442857D01*
X42242857Y-24585714D01*
X42290476Y-24680952D01*
X42338095Y-24728571D01*
X42433333Y-24776190D01*
X42814285Y-24776190D01*
X41290476Y-25252380D02*
X41861904Y-25252380D01*
X41576190Y-25252380D02*
X41576190Y-24252380D01*
X41671428Y-24395238D01*
X41766666Y-24490476D01*
X41861904Y-24538095D01*
X40433333Y-24585714D02*
X40433333Y-25252380D01*
X40671428Y-24204761D02*
X40909523Y-24919047D01*
X40290476Y-24919047D01*
%TO.C,R9*%
X45866666Y-8052380D02*
X46200000Y-7576190D01*
X46438095Y-8052380D02*
X46438095Y-7052380D01*
X46057142Y-7052380D01*
X45961904Y-7100000D01*
X45914285Y-7147619D01*
X45866666Y-7242857D01*
X45866666Y-7385714D01*
X45914285Y-7480952D01*
X45961904Y-7528571D01*
X46057142Y-7576190D01*
X46438095Y-7576190D01*
X45390476Y-8052380D02*
X45200000Y-8052380D01*
X45104761Y-8004761D01*
X45057142Y-7957142D01*
X44961904Y-7814285D01*
X44914285Y-7623809D01*
X44914285Y-7242857D01*
X44961904Y-7147619D01*
X45009523Y-7100000D01*
X45104761Y-7052380D01*
X45295238Y-7052380D01*
X45390476Y-7100000D01*
X45438095Y-7147619D01*
X45485714Y-7242857D01*
X45485714Y-7480952D01*
X45438095Y-7576190D01*
X45390476Y-7623809D01*
X45295238Y-7671428D01*
X45104761Y-7671428D01*
X45009523Y-7623809D01*
X44961904Y-7576190D01*
X44914285Y-7480952D01*
%TO.C,U5*%
X46661904Y-23152380D02*
X46661904Y-23961904D01*
X46614285Y-24057142D01*
X46566666Y-24104761D01*
X46471428Y-24152380D01*
X46280952Y-24152380D01*
X46185714Y-24104761D01*
X46138095Y-24057142D01*
X46090476Y-23961904D01*
X46090476Y-23152380D01*
X45138095Y-23152380D02*
X45614285Y-23152380D01*
X45661904Y-23628571D01*
X45614285Y-23580952D01*
X45519047Y-23533333D01*
X45280952Y-23533333D01*
X45185714Y-23580952D01*
X45138095Y-23628571D01*
X45090476Y-23723809D01*
X45090476Y-23961904D01*
X45138095Y-24057142D01*
X45185714Y-24104761D01*
X45280952Y-24152380D01*
X45519047Y-24152380D01*
X45614285Y-24104761D01*
X45661904Y-24057142D01*
%TO.C,C9*%
X1457142Y-20983333D02*
X1504761Y-20935714D01*
X1552380Y-20792857D01*
X1552380Y-20697619D01*
X1504761Y-20554761D01*
X1409523Y-20459523D01*
X1314285Y-20411904D01*
X1123809Y-20364285D01*
X980952Y-20364285D01*
X790476Y-20411904D01*
X695238Y-20459523D01*
X600000Y-20554761D01*
X552380Y-20697619D01*
X552380Y-20792857D01*
X600000Y-20935714D01*
X647619Y-20983333D01*
X1552380Y-21459523D02*
X1552380Y-21650000D01*
X1504761Y-21745238D01*
X1457142Y-21792857D01*
X1314285Y-21888095D01*
X1123809Y-21935714D01*
X742857Y-21935714D01*
X647619Y-21888095D01*
X600000Y-21840476D01*
X552380Y-21745238D01*
X552380Y-21554761D01*
X600000Y-21459523D01*
X647619Y-21411904D01*
X742857Y-21364285D01*
X980952Y-21364285D01*
X1076190Y-21411904D01*
X1123809Y-21459523D01*
X1171428Y-21554761D01*
X1171428Y-21745238D01*
X1123809Y-21840476D01*
X1076190Y-21888095D01*
X980952Y-21935714D01*
%TO.C,BT1*%
X6785714Y-48628571D02*
X6642857Y-48676190D01*
X6595238Y-48723809D01*
X6547619Y-48819047D01*
X6547619Y-48961904D01*
X6595238Y-49057142D01*
X6642857Y-49104761D01*
X6738095Y-49152380D01*
X7119047Y-49152380D01*
X7119047Y-48152380D01*
X6785714Y-48152380D01*
X6690476Y-48200000D01*
X6642857Y-48247619D01*
X6595238Y-48342857D01*
X6595238Y-48438095D01*
X6642857Y-48533333D01*
X6690476Y-48580952D01*
X6785714Y-48628571D01*
X7119047Y-48628571D01*
X6261904Y-48152380D02*
X5690476Y-48152380D01*
X5976190Y-49152380D02*
X5976190Y-48152380D01*
X4833333Y-49152380D02*
X5404761Y-49152380D01*
X5119047Y-49152380D02*
X5119047Y-48152380D01*
X5214285Y-48295238D01*
X5309523Y-48390476D01*
X5404761Y-48438095D01*
%TO.C,U2*%
X28661904Y-38952380D02*
X28661904Y-39761904D01*
X28614285Y-39857142D01*
X28566666Y-39904761D01*
X28471428Y-39952380D01*
X28280952Y-39952380D01*
X28185714Y-39904761D01*
X28138095Y-39857142D01*
X28090476Y-39761904D01*
X28090476Y-38952380D01*
X27661904Y-39047619D02*
X27614285Y-39000000D01*
X27519047Y-38952380D01*
X27280952Y-38952380D01*
X27185714Y-39000000D01*
X27138095Y-39047619D01*
X27090476Y-39142857D01*
X27090476Y-39238095D01*
X27138095Y-39380952D01*
X27709523Y-39952380D01*
X27090476Y-39952380D01*
%TO.C,R21*%
X19042857Y-25252380D02*
X19376190Y-24776190D01*
X19614285Y-25252380D02*
X19614285Y-24252380D01*
X19233333Y-24252380D01*
X19138095Y-24300000D01*
X19090476Y-24347619D01*
X19042857Y-24442857D01*
X19042857Y-24585714D01*
X19090476Y-24680952D01*
X19138095Y-24728571D01*
X19233333Y-24776190D01*
X19614285Y-24776190D01*
X18661904Y-24347619D02*
X18614285Y-24300000D01*
X18519047Y-24252380D01*
X18280952Y-24252380D01*
X18185714Y-24300000D01*
X18138095Y-24347619D01*
X18090476Y-24442857D01*
X18090476Y-24538095D01*
X18138095Y-24680952D01*
X18709523Y-25252380D01*
X18090476Y-25252380D01*
X17138095Y-25252380D02*
X17709523Y-25252380D01*
X17423809Y-25252380D02*
X17423809Y-24252380D01*
X17519047Y-24395238D01*
X17614285Y-24490476D01*
X17709523Y-24538095D01*
%TO.C,D3*%
X15352380Y-3061904D02*
X14352380Y-3061904D01*
X14352380Y-3300000D01*
X14400000Y-3442857D01*
X14495238Y-3538095D01*
X14590476Y-3585714D01*
X14780952Y-3633333D01*
X14923809Y-3633333D01*
X15114285Y-3585714D01*
X15209523Y-3538095D01*
X15304761Y-3442857D01*
X15352380Y-3300000D01*
X15352380Y-3061904D01*
X14352380Y-3966666D02*
X14352380Y-4585714D01*
X14733333Y-4252380D01*
X14733333Y-4395238D01*
X14780952Y-4490476D01*
X14828571Y-4538095D01*
X14923809Y-4585714D01*
X15161904Y-4585714D01*
X15257142Y-4538095D01*
X15304761Y-4490476D01*
X15352380Y-4395238D01*
X15352380Y-4109523D01*
X15304761Y-4014285D01*
X15257142Y-3966666D01*
%TO.C,C4*%
X18657142Y-8333333D02*
X18704761Y-8285714D01*
X18752380Y-8142857D01*
X18752380Y-8047619D01*
X18704761Y-7904761D01*
X18609523Y-7809523D01*
X18514285Y-7761904D01*
X18323809Y-7714285D01*
X18180952Y-7714285D01*
X17990476Y-7761904D01*
X17895238Y-7809523D01*
X17800000Y-7904761D01*
X17752380Y-8047619D01*
X17752380Y-8142857D01*
X17800000Y-8285714D01*
X17847619Y-8333333D01*
X18085714Y-9190476D02*
X18752380Y-9190476D01*
X17704761Y-8952380D02*
X18419047Y-8714285D01*
X18419047Y-9333333D01*
%TO.C,L2*%
X21366666Y-30452380D02*
X21842857Y-30452380D01*
X21842857Y-29452380D01*
X21080952Y-29547619D02*
X21033333Y-29500000D01*
X20938095Y-29452380D01*
X20700000Y-29452380D01*
X20604761Y-29500000D01*
X20557142Y-29547619D01*
X20509523Y-29642857D01*
X20509523Y-29738095D01*
X20557142Y-29880952D01*
X21128571Y-30452380D01*
X20509523Y-30452380D01*
%TO.C,R10*%
X49142857Y-7952380D02*
X49476190Y-7476190D01*
X49714285Y-7952380D02*
X49714285Y-6952380D01*
X49333333Y-6952380D01*
X49238095Y-7000000D01*
X49190476Y-7047619D01*
X49142857Y-7142857D01*
X49142857Y-7285714D01*
X49190476Y-7380952D01*
X49238095Y-7428571D01*
X49333333Y-7476190D01*
X49714285Y-7476190D01*
X48190476Y-7952380D02*
X48761904Y-7952380D01*
X48476190Y-7952380D02*
X48476190Y-6952380D01*
X48571428Y-7095238D01*
X48666666Y-7190476D01*
X48761904Y-7238095D01*
X47571428Y-6952380D02*
X47476190Y-6952380D01*
X47380952Y-7000000D01*
X47333333Y-7047619D01*
X47285714Y-7142857D01*
X47238095Y-7333333D01*
X47238095Y-7571428D01*
X47285714Y-7761904D01*
X47333333Y-7857142D01*
X47380952Y-7904761D01*
X47476190Y-7952380D01*
X47571428Y-7952380D01*
X47666666Y-7904761D01*
X47714285Y-7857142D01*
X47761904Y-7761904D01*
X47809523Y-7571428D01*
X47809523Y-7333333D01*
X47761904Y-7142857D01*
X47714285Y-7047619D01*
X47666666Y-7000000D01*
X47571428Y-6952380D01*
%TO.C,U1*%
X29961904Y-14952380D02*
X29961904Y-15761904D01*
X29914285Y-15857142D01*
X29866666Y-15904761D01*
X29771428Y-15952380D01*
X29580952Y-15952380D01*
X29485714Y-15904761D01*
X29438095Y-15857142D01*
X29390476Y-15761904D01*
X29390476Y-14952380D01*
X28390476Y-15952380D02*
X28961904Y-15952380D01*
X28676190Y-15952380D02*
X28676190Y-14952380D01*
X28771428Y-15095238D01*
X28866666Y-15190476D01*
X28961904Y-15238095D01*
%TO.C,U6*%
X14952380Y-18238095D02*
X15761904Y-18238095D01*
X15857142Y-18285714D01*
X15904761Y-18333333D01*
X15952380Y-18428571D01*
X15952380Y-18619047D01*
X15904761Y-18714285D01*
X15857142Y-18761904D01*
X15761904Y-18809523D01*
X14952380Y-18809523D01*
X14952380Y-19714285D02*
X14952380Y-19523809D01*
X15000000Y-19428571D01*
X15047619Y-19380952D01*
X15190476Y-19285714D01*
X15380952Y-19238095D01*
X15761904Y-19238095D01*
X15857142Y-19285714D01*
X15904761Y-19333333D01*
X15952380Y-19428571D01*
X15952380Y-19619047D01*
X15904761Y-19714285D01*
X15857142Y-19761904D01*
X15761904Y-19809523D01*
X15523809Y-19809523D01*
X15428571Y-19761904D01*
X15380952Y-19714285D01*
X15333333Y-19619047D01*
X15333333Y-19428571D01*
X15380952Y-19333333D01*
X15428571Y-19285714D01*
X15523809Y-19238095D01*
%TO.C,C5*%
X16757142Y-8433333D02*
X16804761Y-8385714D01*
X16852380Y-8242857D01*
X16852380Y-8147619D01*
X16804761Y-8004761D01*
X16709523Y-7909523D01*
X16614285Y-7861904D01*
X16423809Y-7814285D01*
X16280952Y-7814285D01*
X16090476Y-7861904D01*
X15995238Y-7909523D01*
X15900000Y-8004761D01*
X15852380Y-8147619D01*
X15852380Y-8242857D01*
X15900000Y-8385714D01*
X15947619Y-8433333D01*
X15852380Y-9338095D02*
X15852380Y-8861904D01*
X16328571Y-8814285D01*
X16280952Y-8861904D01*
X16233333Y-8957142D01*
X16233333Y-9195238D01*
X16280952Y-9290476D01*
X16328571Y-9338095D01*
X16423809Y-9385714D01*
X16661904Y-9385714D01*
X16757142Y-9338095D01*
X16804761Y-9290476D01*
X16852380Y-9195238D01*
X16852380Y-8957142D01*
X16804761Y-8861904D01*
X16757142Y-8814285D01*
%TO.C,R25*%
X8142857Y-20452380D02*
X8476190Y-19976190D01*
X8714285Y-20452380D02*
X8714285Y-19452380D01*
X8333333Y-19452380D01*
X8238095Y-19500000D01*
X8190476Y-19547619D01*
X8142857Y-19642857D01*
X8142857Y-19785714D01*
X8190476Y-19880952D01*
X8238095Y-19928571D01*
X8333333Y-19976190D01*
X8714285Y-19976190D01*
X7761904Y-19547619D02*
X7714285Y-19500000D01*
X7619047Y-19452380D01*
X7380952Y-19452380D01*
X7285714Y-19500000D01*
X7238095Y-19547619D01*
X7190476Y-19642857D01*
X7190476Y-19738095D01*
X7238095Y-19880952D01*
X7809523Y-20452380D01*
X7190476Y-20452380D01*
X6285714Y-19452380D02*
X6761904Y-19452380D01*
X6809523Y-19928571D01*
X6761904Y-19880952D01*
X6666666Y-19833333D01*
X6428571Y-19833333D01*
X6333333Y-19880952D01*
X6285714Y-19928571D01*
X6238095Y-20023809D01*
X6238095Y-20261904D01*
X6285714Y-20357142D01*
X6333333Y-20404761D01*
X6428571Y-20452380D01*
X6666666Y-20452380D01*
X6761904Y-20404761D01*
X6809523Y-20357142D01*
%TO.C,R16*%
X18942857Y-34752380D02*
X19276190Y-34276190D01*
X19514285Y-34752380D02*
X19514285Y-33752380D01*
X19133333Y-33752380D01*
X19038095Y-33800000D01*
X18990476Y-33847619D01*
X18942857Y-33942857D01*
X18942857Y-34085714D01*
X18990476Y-34180952D01*
X19038095Y-34228571D01*
X19133333Y-34276190D01*
X19514285Y-34276190D01*
X17990476Y-34752380D02*
X18561904Y-34752380D01*
X18276190Y-34752380D02*
X18276190Y-33752380D01*
X18371428Y-33895238D01*
X18466666Y-33990476D01*
X18561904Y-34038095D01*
X17133333Y-33752380D02*
X17323809Y-33752380D01*
X17419047Y-33800000D01*
X17466666Y-33847619D01*
X17561904Y-33990476D01*
X17609523Y-34180952D01*
X17609523Y-34561904D01*
X17561904Y-34657142D01*
X17514285Y-34704761D01*
X17419047Y-34752380D01*
X17228571Y-34752380D01*
X17133333Y-34704761D01*
X17085714Y-34657142D01*
X17038095Y-34561904D01*
X17038095Y-34323809D01*
X17085714Y-34228571D01*
X17133333Y-34180952D01*
X17228571Y-34133333D01*
X17419047Y-34133333D01*
X17514285Y-34180952D01*
X17561904Y-34228571D01*
X17609523Y-34323809D01*
%TO.C,R8*%
X42552380Y-15333333D02*
X42076190Y-15000000D01*
X42552380Y-14761904D02*
X41552380Y-14761904D01*
X41552380Y-15142857D01*
X41600000Y-15238095D01*
X41647619Y-15285714D01*
X41742857Y-15333333D01*
X41885714Y-15333333D01*
X41980952Y-15285714D01*
X42028571Y-15238095D01*
X42076190Y-15142857D01*
X42076190Y-14761904D01*
X41980952Y-15904761D02*
X41933333Y-15809523D01*
X41885714Y-15761904D01*
X41790476Y-15714285D01*
X41742857Y-15714285D01*
X41647619Y-15761904D01*
X41600000Y-15809523D01*
X41552380Y-15904761D01*
X41552380Y-16095238D01*
X41600000Y-16190476D01*
X41647619Y-16238095D01*
X41742857Y-16285714D01*
X41790476Y-16285714D01*
X41885714Y-16238095D01*
X41933333Y-16190476D01*
X41980952Y-16095238D01*
X41980952Y-15904761D01*
X42028571Y-15809523D01*
X42076190Y-15761904D01*
X42171428Y-15714285D01*
X42361904Y-15714285D01*
X42457142Y-15761904D01*
X42504761Y-15809523D01*
X42552380Y-15904761D01*
X42552380Y-16095238D01*
X42504761Y-16190476D01*
X42457142Y-16238095D01*
X42361904Y-16285714D01*
X42171428Y-16285714D01*
X42076190Y-16238095D01*
X42028571Y-16190476D01*
X41980952Y-16095238D01*
%TO.C,R13*%
X42242857Y-27852380D02*
X42576190Y-27376190D01*
X42814285Y-27852380D02*
X42814285Y-26852380D01*
X42433333Y-26852380D01*
X42338095Y-26900000D01*
X42290476Y-26947619D01*
X42242857Y-27042857D01*
X42242857Y-27185714D01*
X42290476Y-27280952D01*
X42338095Y-27328571D01*
X42433333Y-27376190D01*
X42814285Y-27376190D01*
X41290476Y-27852380D02*
X41861904Y-27852380D01*
X41576190Y-27852380D02*
X41576190Y-26852380D01*
X41671428Y-26995238D01*
X41766666Y-27090476D01*
X41861904Y-27138095D01*
X40957142Y-26852380D02*
X40338095Y-26852380D01*
X40671428Y-27233333D01*
X40528571Y-27233333D01*
X40433333Y-27280952D01*
X40385714Y-27328571D01*
X40338095Y-27423809D01*
X40338095Y-27661904D01*
X40385714Y-27757142D01*
X40433333Y-27804761D01*
X40528571Y-27852380D01*
X40814285Y-27852380D01*
X40909523Y-27804761D01*
X40957142Y-27757142D01*
%TO.C,C1*%
X18457142Y-41333333D02*
X18504761Y-41285714D01*
X18552380Y-41142857D01*
X18552380Y-41047619D01*
X18504761Y-40904761D01*
X18409523Y-40809523D01*
X18314285Y-40761904D01*
X18123809Y-40714285D01*
X17980952Y-40714285D01*
X17790476Y-40761904D01*
X17695238Y-40809523D01*
X17600000Y-40904761D01*
X17552380Y-41047619D01*
X17552380Y-41142857D01*
X17600000Y-41285714D01*
X17647619Y-41333333D01*
X18552380Y-42285714D02*
X18552380Y-41714285D01*
X18552380Y-42000000D02*
X17552380Y-42000000D01*
X17695238Y-41904761D01*
X17790476Y-41809523D01*
X17838095Y-41714285D01*
%TO.C,R15*%
X7152380Y-21657142D02*
X6676190Y-21323809D01*
X7152380Y-21085714D02*
X6152380Y-21085714D01*
X6152380Y-21466666D01*
X6200000Y-21561904D01*
X6247619Y-21609523D01*
X6342857Y-21657142D01*
X6485714Y-21657142D01*
X6580952Y-21609523D01*
X6628571Y-21561904D01*
X6676190Y-21466666D01*
X6676190Y-21085714D01*
X7152380Y-22609523D02*
X7152380Y-22038095D01*
X7152380Y-22323809D02*
X6152380Y-22323809D01*
X6295238Y-22228571D01*
X6390476Y-22133333D01*
X6438095Y-22038095D01*
X6152380Y-23514285D02*
X6152380Y-23038095D01*
X6628571Y-22990476D01*
X6580952Y-23038095D01*
X6533333Y-23133333D01*
X6533333Y-23371428D01*
X6580952Y-23466666D01*
X6628571Y-23514285D01*
X6723809Y-23561904D01*
X6961904Y-23561904D01*
X7057142Y-23514285D01*
X7104761Y-23466666D01*
X7152380Y-23371428D01*
X7152380Y-23133333D01*
X7104761Y-23038095D01*
X7057142Y-22990476D01*
%TO.C,D2*%
X43938095Y-8052380D02*
X43938095Y-7052380D01*
X43700000Y-7052380D01*
X43557142Y-7100000D01*
X43461904Y-7195238D01*
X43414285Y-7290476D01*
X43366666Y-7480952D01*
X43366666Y-7623809D01*
X43414285Y-7814285D01*
X43461904Y-7909523D01*
X43557142Y-8004761D01*
X43700000Y-8052380D01*
X43938095Y-8052380D01*
X42985714Y-7147619D02*
X42938095Y-7100000D01*
X42842857Y-7052380D01*
X42604761Y-7052380D01*
X42509523Y-7100000D01*
X42461904Y-7147619D01*
X42414285Y-7242857D01*
X42414285Y-7338095D01*
X42461904Y-7480952D01*
X43033333Y-8052380D01*
X42414285Y-8052380D01*
%TO.C,R12*%
X42452380Y-10057142D02*
X41976190Y-9723809D01*
X42452380Y-9485714D02*
X41452380Y-9485714D01*
X41452380Y-9866666D01*
X41500000Y-9961904D01*
X41547619Y-10009523D01*
X41642857Y-10057142D01*
X41785714Y-10057142D01*
X41880952Y-10009523D01*
X41928571Y-9961904D01*
X41976190Y-9866666D01*
X41976190Y-9485714D01*
X42452380Y-11009523D02*
X42452380Y-10438095D01*
X42452380Y-10723809D02*
X41452380Y-10723809D01*
X41595238Y-10628571D01*
X41690476Y-10533333D01*
X41738095Y-10438095D01*
X41547619Y-11390476D02*
X41500000Y-11438095D01*
X41452380Y-11533333D01*
X41452380Y-11771428D01*
X41500000Y-11866666D01*
X41547619Y-11914285D01*
X41642857Y-11961904D01*
X41738095Y-11961904D01*
X41880952Y-11914285D01*
X42452380Y-11342857D01*
X42452380Y-11961904D01*
%TO.C,J3*%
X10733333Y-43652380D02*
X10733333Y-44366666D01*
X10780952Y-44509523D01*
X10876190Y-44604761D01*
X11019047Y-44652380D01*
X11114285Y-44652380D01*
X10352380Y-43652380D02*
X9733333Y-43652380D01*
X10066666Y-44033333D01*
X9923809Y-44033333D01*
X9828571Y-44080952D01*
X9780952Y-44128571D01*
X9733333Y-44223809D01*
X9733333Y-44461904D01*
X9780952Y-44557142D01*
X9828571Y-44604761D01*
X9923809Y-44652380D01*
X10209523Y-44652380D01*
X10304761Y-44604761D01*
X10352380Y-44557142D01*
%TO.C,R18*%
X18942857Y-31052380D02*
X19276190Y-30576190D01*
X19514285Y-31052380D02*
X19514285Y-30052380D01*
X19133333Y-30052380D01*
X19038095Y-30100000D01*
X18990476Y-30147619D01*
X18942857Y-30242857D01*
X18942857Y-30385714D01*
X18990476Y-30480952D01*
X19038095Y-30528571D01*
X19133333Y-30576190D01*
X19514285Y-30576190D01*
X17990476Y-31052380D02*
X18561904Y-31052380D01*
X18276190Y-31052380D02*
X18276190Y-30052380D01*
X18371428Y-30195238D01*
X18466666Y-30290476D01*
X18561904Y-30338095D01*
X17419047Y-30480952D02*
X17514285Y-30433333D01*
X17561904Y-30385714D01*
X17609523Y-30290476D01*
X17609523Y-30242857D01*
X17561904Y-30147619D01*
X17514285Y-30100000D01*
X17419047Y-30052380D01*
X17228571Y-30052380D01*
X17133333Y-30100000D01*
X17085714Y-30147619D01*
X17038095Y-30242857D01*
X17038095Y-30290476D01*
X17085714Y-30385714D01*
X17133333Y-30433333D01*
X17228571Y-30480952D01*
X17419047Y-30480952D01*
X17514285Y-30528571D01*
X17561904Y-30576190D01*
X17609523Y-30671428D01*
X17609523Y-30861904D01*
X17561904Y-30957142D01*
X17514285Y-31004761D01*
X17419047Y-31052380D01*
X17228571Y-31052380D01*
X17133333Y-31004761D01*
X17085714Y-30957142D01*
X17038095Y-30861904D01*
X17038095Y-30671428D01*
X17085714Y-30576190D01*
X17133333Y-30528571D01*
X17228571Y-30480952D01*
%TO.C,J2*%
X7233333Y-4052380D02*
X7233333Y-4766666D01*
X7280952Y-4909523D01*
X7376190Y-5004761D01*
X7519047Y-5052380D01*
X7614285Y-5052380D01*
X6804761Y-4147619D02*
X6757142Y-4100000D01*
X6661904Y-4052380D01*
X6423809Y-4052380D01*
X6328571Y-4100000D01*
X6280952Y-4147619D01*
X6233333Y-4242857D01*
X6233333Y-4338095D01*
X6280952Y-4480952D01*
X6852380Y-5052380D01*
X6233333Y-5052380D01*
%TO.C,U7*%
X5361904Y-20652380D02*
X5361904Y-21461904D01*
X5314285Y-21557142D01*
X5266666Y-21604761D01*
X5171428Y-21652380D01*
X4980952Y-21652380D01*
X4885714Y-21604761D01*
X4838095Y-21557142D01*
X4790476Y-21461904D01*
X4790476Y-20652380D01*
X4409523Y-20652380D02*
X3742857Y-20652380D01*
X4171428Y-21652380D01*
%TO.C,C3*%
X41766666Y-22757142D02*
X41814285Y-22804761D01*
X41957142Y-22852380D01*
X42052380Y-22852380D01*
X42195238Y-22804761D01*
X42290476Y-22709523D01*
X42338095Y-22614285D01*
X42385714Y-22423809D01*
X42385714Y-22280952D01*
X42338095Y-22090476D01*
X42290476Y-21995238D01*
X42195238Y-21900000D01*
X42052380Y-21852380D01*
X41957142Y-21852380D01*
X41814285Y-21900000D01*
X41766666Y-21947619D01*
X41433333Y-21852380D02*
X40814285Y-21852380D01*
X41147619Y-22233333D01*
X41004761Y-22233333D01*
X40909523Y-22280952D01*
X40861904Y-22328571D01*
X40814285Y-22423809D01*
X40814285Y-22661904D01*
X40861904Y-22757142D01*
X40909523Y-22804761D01*
X41004761Y-22852380D01*
X41290476Y-22852380D01*
X41385714Y-22804761D01*
X41433333Y-22757142D01*
%TO.C,AE1*%
X2566666Y-41566666D02*
X2090476Y-41566666D01*
X2661904Y-41852380D02*
X2328571Y-40852380D01*
X1995238Y-41852380D01*
X1661904Y-41328571D02*
X1328571Y-41328571D01*
X1185714Y-41852380D02*
X1661904Y-41852380D01*
X1661904Y-40852380D01*
X1185714Y-40852380D01*
X233333Y-41852380D02*
X804761Y-41852380D01*
X519047Y-41852380D02*
X519047Y-40852380D01*
X614285Y-40995238D01*
X709523Y-41090476D01*
X804761Y-41138095D01*
%TO.C,R19*%
X19042857Y-29152380D02*
X19376190Y-28676190D01*
X19614285Y-29152380D02*
X19614285Y-28152380D01*
X19233333Y-28152380D01*
X19138095Y-28200000D01*
X19090476Y-28247619D01*
X19042857Y-28342857D01*
X19042857Y-28485714D01*
X19090476Y-28580952D01*
X19138095Y-28628571D01*
X19233333Y-28676190D01*
X19614285Y-28676190D01*
X18090476Y-29152380D02*
X18661904Y-29152380D01*
X18376190Y-29152380D02*
X18376190Y-28152380D01*
X18471428Y-28295238D01*
X18566666Y-28390476D01*
X18661904Y-28438095D01*
X17614285Y-29152380D02*
X17423809Y-29152380D01*
X17328571Y-29104761D01*
X17280952Y-29057142D01*
X17185714Y-28914285D01*
X17138095Y-28723809D01*
X17138095Y-28342857D01*
X17185714Y-28247619D01*
X17233333Y-28200000D01*
X17328571Y-28152380D01*
X17519047Y-28152380D01*
X17614285Y-28200000D01*
X17661904Y-28247619D01*
X17709523Y-28342857D01*
X17709523Y-28580952D01*
X17661904Y-28676190D01*
X17614285Y-28723809D01*
X17519047Y-28771428D01*
X17328571Y-28771428D01*
X17233333Y-28723809D01*
X17185714Y-28676190D01*
X17138095Y-28580952D01*
%TO.C,D4*%
X11052380Y-18461904D02*
X10052380Y-18461904D01*
X10052380Y-18700000D01*
X10100000Y-18842857D01*
X10195238Y-18938095D01*
X10290476Y-18985714D01*
X10480952Y-19033333D01*
X10623809Y-19033333D01*
X10814285Y-18985714D01*
X10909523Y-18938095D01*
X11004761Y-18842857D01*
X11052380Y-18700000D01*
X11052380Y-18461904D01*
X10385714Y-19890476D02*
X11052380Y-19890476D01*
X10004761Y-19652380D02*
X10719047Y-19414285D01*
X10719047Y-20033333D01*
%TO.C,JP1*%
X37633333Y-29852380D02*
X37633333Y-30566666D01*
X37680952Y-30709523D01*
X37776190Y-30804761D01*
X37919047Y-30852380D01*
X38014285Y-30852380D01*
X37157142Y-30852380D02*
X37157142Y-29852380D01*
X36776190Y-29852380D01*
X36680952Y-29900000D01*
X36633333Y-29947619D01*
X36585714Y-30042857D01*
X36585714Y-30185714D01*
X36633333Y-30280952D01*
X36680952Y-30328571D01*
X36776190Y-30376190D01*
X37157142Y-30376190D01*
X35633333Y-30852380D02*
X36204761Y-30852380D01*
X35919047Y-30852380D02*
X35919047Y-29852380D01*
X36014285Y-29995238D01*
X36109523Y-30090476D01*
X36204761Y-30138095D01*
%TO.C,C13*%
X19057142Y-11016562D02*
X19104761Y-10968943D01*
X19152380Y-10826086D01*
X19152380Y-10730848D01*
X19104761Y-10587991D01*
X19009523Y-10492753D01*
X18914285Y-10445134D01*
X18723809Y-10397515D01*
X18580952Y-10397515D01*
X18390476Y-10445134D01*
X18295238Y-10492753D01*
X18200000Y-10587991D01*
X18152380Y-10730848D01*
X18152380Y-10826086D01*
X18200000Y-10968943D01*
X18247619Y-11016562D01*
X19152380Y-11968943D02*
X19152380Y-11397515D01*
X19152380Y-11683229D02*
X18152380Y-11683229D01*
X18295238Y-11587991D01*
X18390476Y-11492753D01*
X18438095Y-11397515D01*
X18152380Y-12302277D02*
X18152380Y-12921324D01*
X18533333Y-12587991D01*
X18533333Y-12730848D01*
X18580952Y-12826086D01*
X18628571Y-12873705D01*
X18723809Y-12921324D01*
X18961904Y-12921324D01*
X19057142Y-12873705D01*
X19104761Y-12826086D01*
X19152380Y-12730848D01*
X19152380Y-12445134D01*
X19104761Y-12349896D01*
X19057142Y-12302277D01*
%TO.C,J4*%
X9033333Y-30452380D02*
X9033333Y-31166666D01*
X9080952Y-31309523D01*
X9176190Y-31404761D01*
X9319047Y-31452380D01*
X9414285Y-31452380D01*
X8128571Y-30785714D02*
X8128571Y-31452380D01*
X8366666Y-30404761D02*
X8604761Y-31119047D01*
X7985714Y-31119047D01*
%TO.C,R17*%
X18942857Y-32952380D02*
X19276190Y-32476190D01*
X19514285Y-32952380D02*
X19514285Y-31952380D01*
X19133333Y-31952380D01*
X19038095Y-32000000D01*
X18990476Y-32047619D01*
X18942857Y-32142857D01*
X18942857Y-32285714D01*
X18990476Y-32380952D01*
X19038095Y-32428571D01*
X19133333Y-32476190D01*
X19514285Y-32476190D01*
X17990476Y-32952380D02*
X18561904Y-32952380D01*
X18276190Y-32952380D02*
X18276190Y-31952380D01*
X18371428Y-32095238D01*
X18466666Y-32190476D01*
X18561904Y-32238095D01*
X17657142Y-31952380D02*
X16990476Y-31952380D01*
X17419047Y-32952380D01*
%TO.C,J1*%
X6933333Y-11452380D02*
X6933333Y-12166666D01*
X6980952Y-12309523D01*
X7076190Y-12404761D01*
X7219047Y-12452380D01*
X7314285Y-12452380D01*
X5933333Y-12452380D02*
X6504761Y-12452380D01*
X6219047Y-12452380D02*
X6219047Y-11452380D01*
X6314285Y-11595238D01*
X6409523Y-11690476D01*
X6504761Y-11738095D01*
%TO.C,C6*%
X23957142Y-28833333D02*
X24004761Y-28785714D01*
X24052380Y-28642857D01*
X24052380Y-28547619D01*
X24004761Y-28404761D01*
X23909523Y-28309523D01*
X23814285Y-28261904D01*
X23623809Y-28214285D01*
X23480952Y-28214285D01*
X23290476Y-28261904D01*
X23195238Y-28309523D01*
X23100000Y-28404761D01*
X23052380Y-28547619D01*
X23052380Y-28642857D01*
X23100000Y-28785714D01*
X23147619Y-28833333D01*
X23052380Y-29690476D02*
X23052380Y-29500000D01*
X23100000Y-29404761D01*
X23147619Y-29357142D01*
X23290476Y-29261904D01*
X23480952Y-29214285D01*
X23861904Y-29214285D01*
X23957142Y-29261904D01*
X24004761Y-29309523D01*
X24052380Y-29404761D01*
X24052380Y-29595238D01*
X24004761Y-29690476D01*
X23957142Y-29738095D01*
X23861904Y-29785714D01*
X23623809Y-29785714D01*
X23528571Y-29738095D01*
X23480952Y-29690476D01*
X23433333Y-29595238D01*
X23433333Y-29404761D01*
X23480952Y-29309523D01*
X23528571Y-29261904D01*
X23623809Y-29214285D01*
%TO.C,AE2*%
X42666666Y-37933333D02*
X42666666Y-38409523D01*
X42952380Y-37838095D02*
X41952380Y-38171428D01*
X42952380Y-38504761D01*
X42428571Y-38838095D02*
X42428571Y-39171428D01*
X42952380Y-39314285D02*
X42952380Y-38838095D01*
X41952380Y-38838095D01*
X41952380Y-39314285D01*
X42047619Y-39695238D02*
X42000000Y-39742857D01*
X41952380Y-39838095D01*
X41952380Y-40076190D01*
X42000000Y-40171428D01*
X42047619Y-40219047D01*
X42142857Y-40266666D01*
X42238095Y-40266666D01*
X42380952Y-40219047D01*
X42952380Y-39647619D01*
X42952380Y-40266666D01*
%TO.C,R1*%
X4552380Y-46033333D02*
X4076190Y-45700000D01*
X4552380Y-45461904D02*
X3552380Y-45461904D01*
X3552380Y-45842857D01*
X3600000Y-45938095D01*
X3647619Y-45985714D01*
X3742857Y-46033333D01*
X3885714Y-46033333D01*
X3980952Y-45985714D01*
X4028571Y-45938095D01*
X4076190Y-45842857D01*
X4076190Y-45461904D01*
X4552380Y-46985714D02*
X4552380Y-46414285D01*
X4552380Y-46700000D02*
X3552380Y-46700000D01*
X3695238Y-46604761D01*
X3790476Y-46509523D01*
X3838095Y-46414285D01*
%TO.C,Q2*%
X47995238Y-5647619D02*
X48090476Y-5600000D01*
X48185714Y-5504761D01*
X48328571Y-5361904D01*
X48423809Y-5314285D01*
X48519047Y-5314285D01*
X48471428Y-5552380D02*
X48566666Y-5504761D01*
X48661904Y-5409523D01*
X48709523Y-5219047D01*
X48709523Y-4885714D01*
X48661904Y-4695238D01*
X48566666Y-4600000D01*
X48471428Y-4552380D01*
X48280952Y-4552380D01*
X48185714Y-4600000D01*
X48090476Y-4695238D01*
X48042857Y-4885714D01*
X48042857Y-5219047D01*
X48090476Y-5409523D01*
X48185714Y-5504761D01*
X48280952Y-5552380D01*
X48471428Y-5552380D01*
X47661904Y-4647619D02*
X47614285Y-4600000D01*
X47519047Y-4552380D01*
X47280952Y-4552380D01*
X47185714Y-4600000D01*
X47138095Y-4647619D01*
X47090476Y-4742857D01*
X47090476Y-4838095D01*
X47138095Y-4980952D01*
X47709523Y-5552380D01*
X47090476Y-5552380D01*
%TO.C,L1*%
X4352380Y-43233333D02*
X4352380Y-42757142D01*
X3352380Y-42757142D01*
X4352380Y-44090476D02*
X4352380Y-43519047D01*
X4352380Y-43804761D02*
X3352380Y-43804761D01*
X3495238Y-43709523D01*
X3590476Y-43614285D01*
X3638095Y-43519047D01*
%TO.C,Q1*%
X47895238Y-2447619D02*
X47990476Y-2400000D01*
X48085714Y-2304761D01*
X48228571Y-2161904D01*
X48323809Y-2114285D01*
X48419047Y-2114285D01*
X48371428Y-2352380D02*
X48466666Y-2304761D01*
X48561904Y-2209523D01*
X48609523Y-2019047D01*
X48609523Y-1685714D01*
X48561904Y-1495238D01*
X48466666Y-1400000D01*
X48371428Y-1352380D01*
X48180952Y-1352380D01*
X48085714Y-1400000D01*
X47990476Y-1495238D01*
X47942857Y-1685714D01*
X47942857Y-2019047D01*
X47990476Y-2209523D01*
X48085714Y-2304761D01*
X48180952Y-2352380D01*
X48371428Y-2352380D01*
X46990476Y-2352380D02*
X47561904Y-2352380D01*
X47276190Y-2352380D02*
X47276190Y-1352380D01*
X47371428Y-1495238D01*
X47466666Y-1590476D01*
X47561904Y-1638095D01*
%TO.C,C12*%
X9242857Y-14957142D02*
X9290476Y-15004761D01*
X9433333Y-15052380D01*
X9528571Y-15052380D01*
X9671428Y-15004761D01*
X9766666Y-14909523D01*
X9814285Y-14814285D01*
X9861904Y-14623809D01*
X9861904Y-14480952D01*
X9814285Y-14290476D01*
X9766666Y-14195238D01*
X9671428Y-14100000D01*
X9528571Y-14052380D01*
X9433333Y-14052380D01*
X9290476Y-14100000D01*
X9242857Y-14147619D01*
X8290476Y-15052380D02*
X8861904Y-15052380D01*
X8576190Y-15052380D02*
X8576190Y-14052380D01*
X8671428Y-14195238D01*
X8766666Y-14290476D01*
X8861904Y-14338095D01*
X7909523Y-14147619D02*
X7861904Y-14100000D01*
X7766666Y-14052380D01*
X7528571Y-14052380D01*
X7433333Y-14100000D01*
X7385714Y-14147619D01*
X7338095Y-14242857D01*
X7338095Y-14338095D01*
X7385714Y-14480952D01*
X7957142Y-15052380D01*
X7338095Y-15052380D01*
%TO.C,R24*%
X8952380Y-21757142D02*
X8476190Y-21423809D01*
X8952380Y-21185714D02*
X7952380Y-21185714D01*
X7952380Y-21566666D01*
X8000000Y-21661904D01*
X8047619Y-21709523D01*
X8142857Y-21757142D01*
X8285714Y-21757142D01*
X8380952Y-21709523D01*
X8428571Y-21661904D01*
X8476190Y-21566666D01*
X8476190Y-21185714D01*
X8047619Y-22138095D02*
X8000000Y-22185714D01*
X7952380Y-22280952D01*
X7952380Y-22519047D01*
X8000000Y-22614285D01*
X8047619Y-22661904D01*
X8142857Y-22709523D01*
X8238095Y-22709523D01*
X8380952Y-22661904D01*
X8952380Y-22090476D01*
X8952380Y-22709523D01*
X8285714Y-23566666D02*
X8952380Y-23566666D01*
X7904761Y-23328571D02*
X8619047Y-23090476D01*
X8619047Y-23709523D01*
%TO.C,R20*%
X19042857Y-27252380D02*
X19376190Y-26776190D01*
X19614285Y-27252380D02*
X19614285Y-26252380D01*
X19233333Y-26252380D01*
X19138095Y-26300000D01*
X19090476Y-26347619D01*
X19042857Y-26442857D01*
X19042857Y-26585714D01*
X19090476Y-26680952D01*
X19138095Y-26728571D01*
X19233333Y-26776190D01*
X19614285Y-26776190D01*
X18661904Y-26347619D02*
X18614285Y-26300000D01*
X18519047Y-26252380D01*
X18280952Y-26252380D01*
X18185714Y-26300000D01*
X18138095Y-26347619D01*
X18090476Y-26442857D01*
X18090476Y-26538095D01*
X18138095Y-26680952D01*
X18709523Y-27252380D01*
X18090476Y-27252380D01*
X17471428Y-26252380D02*
X17376190Y-26252380D01*
X17280952Y-26300000D01*
X17233333Y-26347619D01*
X17185714Y-26442857D01*
X17138095Y-26633333D01*
X17138095Y-26871428D01*
X17185714Y-27061904D01*
X17233333Y-27157142D01*
X17280952Y-27204761D01*
X17376190Y-27252380D01*
X17471428Y-27252380D01*
X17566666Y-27204761D01*
X17614285Y-27157142D01*
X17661904Y-27061904D01*
X17709523Y-26871428D01*
X17709523Y-26633333D01*
X17661904Y-26442857D01*
X17614285Y-26347619D01*
X17566666Y-26300000D01*
X17471428Y-26252380D01*
%TO.C,USBC1*%
X47552380Y-11561904D02*
X48361904Y-11561904D01*
X48457142Y-11609523D01*
X48504761Y-11657142D01*
X48552380Y-11752380D01*
X48552380Y-11942857D01*
X48504761Y-12038095D01*
X48457142Y-12085714D01*
X48361904Y-12133333D01*
X47552380Y-12133333D01*
X48504761Y-12561904D02*
X48552380Y-12704761D01*
X48552380Y-12942857D01*
X48504761Y-13038095D01*
X48457142Y-13085714D01*
X48361904Y-13133333D01*
X48266666Y-13133333D01*
X48171428Y-13085714D01*
X48123809Y-13038095D01*
X48076190Y-12942857D01*
X48028571Y-12752380D01*
X47980952Y-12657142D01*
X47933333Y-12609523D01*
X47838095Y-12561904D01*
X47742857Y-12561904D01*
X47647619Y-12609523D01*
X47600000Y-12657142D01*
X47552380Y-12752380D01*
X47552380Y-12990476D01*
X47600000Y-13133333D01*
X48028571Y-13895238D02*
X48076190Y-14038095D01*
X48123809Y-14085714D01*
X48219047Y-14133333D01*
X48361904Y-14133333D01*
X48457142Y-14085714D01*
X48504761Y-14038095D01*
X48552380Y-13942857D01*
X48552380Y-13561904D01*
X47552380Y-13561904D01*
X47552380Y-13895238D01*
X47600000Y-13990476D01*
X47647619Y-14038095D01*
X47742857Y-14085714D01*
X47838095Y-14085714D01*
X47933333Y-14038095D01*
X47980952Y-13990476D01*
X48028571Y-13895238D01*
X48028571Y-13561904D01*
X48457142Y-15133333D02*
X48504761Y-15085714D01*
X48552380Y-14942857D01*
X48552380Y-14847619D01*
X48504761Y-14704761D01*
X48409523Y-14609523D01*
X48314285Y-14561904D01*
X48123809Y-14514285D01*
X47980952Y-14514285D01*
X47790476Y-14561904D01*
X47695238Y-14609523D01*
X47600000Y-14704761D01*
X47552380Y-14847619D01*
X47552380Y-14942857D01*
X47600000Y-15085714D01*
X47647619Y-15133333D01*
X48552380Y-16085714D02*
X48552380Y-15514285D01*
X48552380Y-15800000D02*
X47552380Y-15800000D01*
X47695238Y-15704761D01*
X47790476Y-15609523D01*
X47838095Y-15514285D01*
%TO.C,U3*%
X44961904Y-3452380D02*
X44961904Y-4261904D01*
X44914285Y-4357142D01*
X44866666Y-4404761D01*
X44771428Y-4452380D01*
X44580952Y-4452380D01*
X44485714Y-4404761D01*
X44438095Y-4357142D01*
X44390476Y-4261904D01*
X44390476Y-3452380D01*
X44009523Y-3452380D02*
X43390476Y-3452380D01*
X43723809Y-3833333D01*
X43580952Y-3833333D01*
X43485714Y-3880952D01*
X43438095Y-3928571D01*
X43390476Y-4023809D01*
X43390476Y-4261904D01*
X43438095Y-4357142D01*
X43485714Y-4404761D01*
X43580952Y-4452380D01*
X43866666Y-4452380D01*
X43961904Y-4404761D01*
X44009523Y-4357142D01*
%TO.C,C8*%
X12166666Y-14857142D02*
X12214285Y-14904761D01*
X12357142Y-14952380D01*
X12452380Y-14952380D01*
X12595238Y-14904761D01*
X12690476Y-14809523D01*
X12738095Y-14714285D01*
X12785714Y-14523809D01*
X12785714Y-14380952D01*
X12738095Y-14190476D01*
X12690476Y-14095238D01*
X12595238Y-14000000D01*
X12452380Y-13952380D01*
X12357142Y-13952380D01*
X12214285Y-14000000D01*
X12166666Y-14047619D01*
X11595238Y-14380952D02*
X11690476Y-14333333D01*
X11738095Y-14285714D01*
X11785714Y-14190476D01*
X11785714Y-14142857D01*
X11738095Y-14047619D01*
X11690476Y-14000000D01*
X11595238Y-13952380D01*
X11404761Y-13952380D01*
X11309523Y-14000000D01*
X11261904Y-14047619D01*
X11214285Y-14142857D01*
X11214285Y-14190476D01*
X11261904Y-14285714D01*
X11309523Y-14333333D01*
X11404761Y-14380952D01*
X11595238Y-14380952D01*
X11690476Y-14428571D01*
X11738095Y-14476190D01*
X11785714Y-14571428D01*
X11785714Y-14761904D01*
X11738095Y-14857142D01*
X11690476Y-14904761D01*
X11595238Y-14952380D01*
X11404761Y-14952380D01*
X11309523Y-14904761D01*
X11261904Y-14857142D01*
X11214285Y-14761904D01*
X11214285Y-14571428D01*
X11261904Y-14476190D01*
X11309523Y-14428571D01*
X11404761Y-14380952D01*
%TO.C,C7*%
X21266666Y-28257142D02*
X21314285Y-28304761D01*
X21457142Y-28352380D01*
X21552380Y-28352380D01*
X21695238Y-28304761D01*
X21790476Y-28209523D01*
X21838095Y-28114285D01*
X21885714Y-27923809D01*
X21885714Y-27780952D01*
X21838095Y-27590476D01*
X21790476Y-27495238D01*
X21695238Y-27400000D01*
X21552380Y-27352380D01*
X21457142Y-27352380D01*
X21314285Y-27400000D01*
X21266666Y-27447619D01*
X20933333Y-27352380D02*
X20266666Y-27352380D01*
X20695238Y-28352380D01*
%TD*%
%LPC*%
D11*
%TO.C,BT1*%
X3700000Y-48800000D03*
D12*
X1700000Y-48800000D03*
%TD*%
D13*
%TO.C,J2*%
X3100000Y-2875000D03*
D14*
X5600000Y-2875000D03*
X8100000Y-2875000D03*
X10600000Y-2875000D03*
%TD*%
D13*
%TO.C,J1*%
X3100000Y-9700000D03*
D14*
X5600000Y-9700000D03*
X8100000Y-9700000D03*
X10600000Y-9700000D03*
%TD*%
D15*
%TO.C,USBC1*%
X44592500Y-10805000D03*
X44592500Y-16585000D03*
D16*
X44092500Y-18015000D03*
D17*
X48272500Y-18015000D03*
X48272500Y-9375000D03*
D16*
X44092500Y-9375000D03*
%TD*%
M02*
