%TF.GenerationSoftware,KiCad,Pcbnew,(6.0.0)*%
%TF.CreationDate,2022-09-29T23:41:46+02:00*%
%TF.ProjectId,bobbycar-lora-can-ethernet,626f6262-7963-4617-922d-6c6f72612d63,rev?*%
%TF.SameCoordinates,Original*%
%TF.FileFunction,Legend,Top*%
%TF.FilePolarity,Positive*%
%FSLAX46Y46*%
G04 Gerber Fmt 4.6, Leading zero omitted, Abs format (unit mm)*
G04 Created by KiCad (PCBNEW (6.0.0)) date 2022-09-29 23:41:46*
%MOMM*%
%LPD*%
G01*
G04 APERTURE LIST*
G04 Aperture macros list*
%AMRoundRect*
0 Rectangle with rounded corners*
0 $1 Rounding radius*
0 $2 $3 $4 $5 $6 $7 $8 $9 X,Y pos of 4 corners*
0 Add a 4 corners polygon primitive as box body*
4,1,4,$2,$3,$4,$5,$6,$7,$8,$9,$2,$3,0*
0 Add four circle primitives for the rounded corners*
1,1,$1+$1,$2,$3*
1,1,$1+$1,$4,$5*
1,1,$1+$1,$6,$7*
1,1,$1+$1,$8,$9*
0 Add four rect primitives between the rounded corners*
20,1,$1+$1,$2,$3,$4,$5,0*
20,1,$1+$1,$4,$5,$6,$7,0*
20,1,$1+$1,$6,$7,$8,$9,0*
20,1,$1+$1,$8,$9,$2,$3,0*%
%AMFreePoly0*
4,1,22,0.500000,-0.750000,0.000000,-0.750000,0.000000,-0.745033,-0.079941,-0.743568,-0.215256,-0.701293,-0.333266,-0.622738,-0.424486,-0.514219,-0.481581,-0.384460,-0.499164,-0.250000,-0.500000,-0.250000,-0.500000,0.250000,-0.499164,0.250000,-0.499963,0.256109,-0.478152,0.396186,-0.417904,0.524511,-0.324060,0.630769,-0.204165,0.706417,-0.067858,0.745374,0.000000,0.744959,0.000000,0.750000,
0.500000,0.750000,0.500000,-0.750000,0.500000,-0.750000,$1*%
%AMFreePoly1*
4,1,20,0.000000,0.744959,0.073905,0.744508,0.209726,0.703889,0.328688,0.626782,0.421226,0.519385,0.479903,0.390333,0.500000,0.250000,0.500000,-0.250000,0.499851,-0.262216,0.476331,-0.402017,0.414519,-0.529596,0.319384,-0.634700,0.198574,-0.708877,0.061801,-0.746166,0.000000,-0.745033,0.000000,-0.750000,-0.500000,-0.750000,-0.500000,0.750000,0.000000,0.750000,0.000000,0.744959,
0.000000,0.744959,$1*%
G04 Aperture macros list end*
%ADD10C,0.762000*%
%ADD11C,0.150000*%
%ADD12C,0.120000*%
%ADD13C,0.250000*%
%ADD14R,1.900000X1.600000*%
%ADD15RoundRect,0.250000X0.475000X-0.250000X0.475000X0.250000X-0.475000X0.250000X-0.475000X-0.250000X0*%
%ADD16R,0.400000X0.650000*%
%ADD17RoundRect,0.225000X-0.250000X0.225000X-0.250000X-0.225000X0.250000X-0.225000X0.250000X0.225000X0*%
%ADD18R,0.600000X0.450000*%
%ADD19RoundRect,0.135000X-0.185000X0.135000X-0.185000X-0.135000X0.185000X-0.135000X0.185000X0.135000X0*%
%ADD20RoundRect,0.135000X0.135000X0.185000X-0.135000X0.185000X-0.135000X-0.185000X0.135000X-0.185000X0*%
%ADD21RoundRect,0.150000X-0.825000X-0.150000X0.825000X-0.150000X0.825000X0.150000X-0.825000X0.150000X0*%
%ADD22R,1.350000X1.350000*%
%ADD23O,1.350000X1.350000*%
%ADD24R,1.500000X2.000000*%
%ADD25R,1.200000X0.900000*%
%ADD26RoundRect,0.250000X-0.475000X0.250000X-0.475000X-0.250000X0.475000X-0.250000X0.475000X0.250000X0*%
%ADD27RoundRect,0.218750X0.218750X0.381250X-0.218750X0.381250X-0.218750X-0.381250X0.218750X-0.381250X0*%
%ADD28RoundRect,0.135000X-0.135000X-0.185000X0.135000X-0.185000X0.135000X0.185000X-0.135000X0.185000X0*%
%ADD29R,2.000000X0.900000*%
%ADD30R,0.900000X2.000000*%
%ADD31R,5.000000X5.000000*%
%ADD32RoundRect,0.150000X0.150000X-0.825000X0.150000X0.825000X-0.150000X0.825000X-0.150000X-0.825000X0*%
%ADD33RoundRect,0.135000X0.185000X-0.135000X0.185000X0.135000X-0.185000X0.135000X-0.185000X-0.135000X0*%
%ADD34R,1.800000X0.900000*%
%ADD35RoundRect,0.250000X-0.600000X-0.725000X0.600000X-0.725000X0.600000X0.725000X-0.600000X0.725000X0*%
%ADD36O,1.700000X1.950000*%
%ADD37RoundRect,0.150000X-0.512500X-0.150000X0.512500X-0.150000X0.512500X0.150000X-0.512500X0.150000X0*%
%ADD38R,1.050000X1.000000*%
%ADD39R,2.200000X1.050000*%
%ADD40R,1.800000X2.500000*%
%ADD41FreePoly0,0.000000*%
%ADD42FreePoly1,0.000000*%
%ADD43RoundRect,0.225000X0.250000X-0.225000X0.250000X0.225000X-0.250000X0.225000X-0.250000X-0.225000X0*%
%ADD44R,1.200000X0.700000*%
%ADD45R,0.800000X1.000000*%
%ADD46R,2.800000X1.000000*%
%ADD47R,1.900000X1.300000*%
%ADD48R,1.200000X1.000000*%
%ADD49RoundRect,0.150000X-0.587500X-0.150000X0.587500X-0.150000X0.587500X0.150000X-0.587500X0.150000X0*%
%ADD50RoundRect,0.218750X-0.256250X0.218750X-0.256250X-0.218750X0.256250X-0.218750X0.256250X0.218750X0*%
%ADD51RoundRect,0.250000X-0.250000X-0.475000X0.250000X-0.475000X0.250000X0.475000X-0.250000X0.475000X0*%
%ADD52C,0.650000*%
%ADD53O,2.100000X1.000000*%
%ADD54O,1.800000X1.000000*%
%ADD55R,1.150000X0.600000*%
%ADD56R,1.150000X0.300000*%
%ADD57RoundRect,0.100000X-0.100000X0.712500X-0.100000X-0.712500X0.100000X-0.712500X0.100000X0.712500X0*%
%ADD58RoundRect,0.225000X-0.225000X-0.250000X0.225000X-0.250000X0.225000X0.250000X-0.225000X0.250000X0*%
G04 APERTURE END LIST*
D10*
X14160555Y-19300000D02*
G75*
G03*
X14160555Y-19300000I-360555J0D01*
G01*
X45960555Y-20100000D02*
G75*
G03*
X45960555Y-20100000I-360555J0D01*
G01*
X33660555Y-36200000D02*
G75*
G03*
X33660555Y-36200000I-360555J0D01*
G01*
X12960555Y-47039445D02*
G75*
G03*
X12960555Y-47039445I-360555J0D01*
G01*
X4760555Y-20100000D02*
G75*
G03*
X4760555Y-20100000I-360555J0D01*
G01*
X45460555Y-2800000D02*
G75*
G03*
X45460555Y-2800000I-360555J0D01*
G01*
X24360555Y-8900000D02*
G75*
G03*
X24360555Y-8900000I-360555J0D01*
G01*
D11*
X35652380Y-34114285D02*
X35652380Y-34685714D01*
X35652380Y-34400000D02*
X34652380Y-34400000D01*
X34795238Y-34495238D01*
X34890476Y-34590476D01*
X34938095Y-34685714D01*
X8109523Y-48852380D02*
X7538095Y-48852380D01*
X7823809Y-48852380D02*
X7823809Y-47852380D01*
X7728571Y-47995238D01*
X7633333Y-48090476D01*
X7538095Y-48138095D01*
X8680952Y-48280952D02*
X8585714Y-48233333D01*
X8538095Y-48185714D01*
X8490476Y-48090476D01*
X8490476Y-48042857D01*
X8538095Y-47947619D01*
X8585714Y-47900000D01*
X8680952Y-47852380D01*
X8871428Y-47852380D01*
X8966666Y-47900000D01*
X9014285Y-47947619D01*
X9061904Y-48042857D01*
X9061904Y-48090476D01*
X9014285Y-48185714D01*
X8966666Y-48233333D01*
X8871428Y-48280952D01*
X8680952Y-48280952D01*
X8585714Y-48328571D01*
X8538095Y-48376190D01*
X8490476Y-48471428D01*
X8490476Y-48661904D01*
X8538095Y-48757142D01*
X8585714Y-48804761D01*
X8680952Y-48852380D01*
X8871428Y-48852380D01*
X8966666Y-48804761D01*
X9014285Y-48757142D01*
X9061904Y-48661904D01*
X9061904Y-48471428D01*
X9014285Y-48376190D01*
X8966666Y-48328571D01*
X8871428Y-48280952D01*
X14385714Y-48952380D02*
X13814285Y-48952380D01*
X14100000Y-48952380D02*
X14100000Y-47952380D01*
X14004761Y-48095238D01*
X13909523Y-48190476D01*
X13814285Y-48238095D01*
X35652380Y-46290476D02*
X35652380Y-46861904D01*
X35652380Y-46576190D02*
X34652380Y-46576190D01*
X34795238Y-46671428D01*
X34890476Y-46766666D01*
X34938095Y-46861904D01*
X34652380Y-45433333D02*
X34652380Y-45623809D01*
X34700000Y-45719047D01*
X34747619Y-45766666D01*
X34890476Y-45861904D01*
X35080952Y-45909523D01*
X35461904Y-45909523D01*
X35557142Y-45861904D01*
X35604761Y-45814285D01*
X35652380Y-45719047D01*
X35652380Y-45528571D01*
X35604761Y-45433333D01*
X35557142Y-45385714D01*
X35461904Y-45338095D01*
X35223809Y-45338095D01*
X35128571Y-45385714D01*
X35080952Y-45433333D01*
X35033333Y-45528571D01*
X35033333Y-45719047D01*
X35080952Y-45814285D01*
X35128571Y-45861904D01*
X35223809Y-45909523D01*
%TO.C,C10*%
X13277142Y-9242857D02*
X13324761Y-9290476D01*
X13372380Y-9433333D01*
X13372380Y-9528571D01*
X13324761Y-9671428D01*
X13229523Y-9766666D01*
X13134285Y-9814285D01*
X12943809Y-9861904D01*
X12800952Y-9861904D01*
X12610476Y-9814285D01*
X12515238Y-9766666D01*
X12420000Y-9671428D01*
X12372380Y-9528571D01*
X12372380Y-9433333D01*
X12420000Y-9290476D01*
X12467619Y-9242857D01*
X13372380Y-8290476D02*
X13372380Y-8861904D01*
X13372380Y-8576190D02*
X12372380Y-8576190D01*
X12515238Y-8671428D01*
X12610476Y-8766666D01*
X12658095Y-8861904D01*
X12372380Y-7671428D02*
X12372380Y-7576190D01*
X12420000Y-7480952D01*
X12467619Y-7433333D01*
X12562857Y-7385714D01*
X12753333Y-7338095D01*
X12991428Y-7338095D01*
X13181904Y-7385714D01*
X13277142Y-7433333D01*
X13324761Y-7480952D01*
X13372380Y-7576190D01*
X13372380Y-7671428D01*
X13324761Y-7766666D01*
X13277142Y-7814285D01*
X13181904Y-7861904D01*
X12991428Y-7909523D01*
X12753333Y-7909523D01*
X12562857Y-7861904D01*
X12467619Y-7814285D01*
X12420000Y-7766666D01*
X12372380Y-7671428D01*
%TO.C,D6*%
X13752380Y-13938095D02*
X12752380Y-13938095D01*
X12752380Y-13700000D01*
X12800000Y-13557142D01*
X12895238Y-13461904D01*
X12990476Y-13414285D01*
X13180952Y-13366666D01*
X13323809Y-13366666D01*
X13514285Y-13414285D01*
X13609523Y-13461904D01*
X13704761Y-13557142D01*
X13752380Y-13700000D01*
X13752380Y-13938095D01*
X12752380Y-12509523D02*
X12752380Y-12700000D01*
X12800000Y-12795238D01*
X12847619Y-12842857D01*
X12990476Y-12938095D01*
X13180952Y-12985714D01*
X13561904Y-12985714D01*
X13657142Y-12938095D01*
X13704761Y-12890476D01*
X13752380Y-12795238D01*
X13752380Y-12604761D01*
X13704761Y-12509523D01*
X13657142Y-12461904D01*
X13561904Y-12414285D01*
X13323809Y-12414285D01*
X13228571Y-12461904D01*
X13180952Y-12509523D01*
X13133333Y-12604761D01*
X13133333Y-12795238D01*
X13180952Y-12890476D01*
X13228571Y-12938095D01*
X13323809Y-12985714D01*
D12*
%TO.C,L3*%
X550000Y-19200000D02*
X6250000Y-19200000D01*
X550000Y-15300000D02*
X550000Y-13800000D01*
X6250000Y-19200000D02*
X6250000Y-17700000D01*
X550000Y-13800000D02*
X6250000Y-13800000D01*
X6250000Y-13800000D02*
X6250000Y-15300000D01*
X550000Y-17700000D02*
X550000Y-19200000D01*
%TO.C,C10*%
X13865000Y-8861252D02*
X13865000Y-8338748D01*
X15335000Y-8861252D02*
X15335000Y-8338748D01*
%TO.C,D6*%
X14140000Y-12500000D02*
X14140000Y-14400000D01*
X16460000Y-13900000D02*
X16460000Y-12500000D01*
%TO.C,C11*%
X6990000Y-17859420D02*
X6990000Y-18140580D01*
X8010000Y-17859420D02*
X8010000Y-18140580D01*
%TO.C,D1*%
X3300000Y-47150000D02*
X750000Y-47150000D01*
X3300000Y-47150000D02*
X3300000Y-45450000D01*
X3300000Y-45450000D02*
X750000Y-45450000D01*
%TO.C,R14*%
X41220000Y-24846359D02*
X41220000Y-25153641D01*
X41980000Y-24846359D02*
X41980000Y-25153641D01*
%TO.C,R9*%
X46943641Y-7220000D02*
X46636359Y-7220000D01*
X46943641Y-7980000D02*
X46636359Y-7980000D01*
%TO.C,U5*%
X46200000Y-18940000D02*
X48150000Y-18940000D01*
X46200000Y-29060000D02*
X44250000Y-29060000D01*
X46200000Y-29060000D02*
X48150000Y-29060000D01*
X46200000Y-18940000D02*
X42750000Y-18940000D01*
%TO.C,C9*%
X365000Y-21411252D02*
X365000Y-20888748D01*
X1835000Y-21411252D02*
X1835000Y-20888748D01*
%TO.C,BT1*%
X2700000Y-47740000D02*
X640000Y-47740000D01*
X2700000Y-49860000D02*
X640000Y-49860000D01*
X2700000Y-47740000D02*
X2700000Y-49860000D01*
X4760000Y-48800000D02*
X4760000Y-49860000D01*
X640000Y-47740000D02*
X640000Y-49860000D01*
X4760000Y-49860000D02*
X3700000Y-49860000D01*
D11*
%TO.C,U2*%
X36300000Y-32250000D02*
X37050000Y-32250000D01*
X37050000Y-48750000D02*
X36300000Y-48750000D01*
X20300000Y-32250000D02*
X19550000Y-32250000D01*
X19550000Y-32250000D02*
X19550000Y-48750000D01*
X19550000Y-48750000D02*
X20300000Y-48750000D01*
X37050000Y-32250000D02*
X37050000Y-48750000D01*
D12*
%TO.C,R21*%
X18120000Y-24756359D02*
X18120000Y-25063641D01*
X18880000Y-24756359D02*
X18880000Y-25063641D01*
%TO.C,D3*%
X13800000Y-6150000D02*
X15800000Y-6150000D01*
X13800000Y-6150000D02*
X13800000Y-2250000D01*
X15800000Y-6150000D02*
X15800000Y-2250000D01*
%TO.C,C4*%
X18935000Y-8238748D02*
X18935000Y-8761252D01*
X17465000Y-8238748D02*
X17465000Y-8761252D01*
%TO.C,L2*%
X21199622Y-29440000D02*
X20400378Y-29440000D01*
X21199622Y-30560000D02*
X20400378Y-30560000D01*
%TO.C,R10*%
X48636359Y-7220000D02*
X48943641Y-7220000D01*
X48636359Y-7980000D02*
X48943641Y-7980000D01*
%TO.C,U1*%
X20880000Y-435000D02*
X39120000Y-435000D01*
X20880000Y-6855000D02*
X20500000Y-6855000D01*
X39120000Y-26180000D02*
X38120000Y-26180000D01*
X20880000Y-435000D02*
X20880000Y-6855000D01*
X39120000Y-25400000D02*
X39120000Y-26180000D01*
X39120000Y-435000D02*
X39120000Y-6855000D01*
X20880000Y-25400000D02*
X20880000Y-26180000D01*
X20880000Y-26180000D02*
X21880000Y-26180000D01*
%TO.C,U6*%
X12840000Y-18900000D02*
X12840000Y-22350000D01*
X17960000Y-18900000D02*
X17960000Y-16950000D01*
X17960000Y-18900000D02*
X17960000Y-20850000D01*
X12840000Y-18900000D02*
X12840000Y-16950000D01*
%TO.C,C5*%
X15890000Y-8559420D02*
X15890000Y-8840580D01*
X16910000Y-8559420D02*
X16910000Y-8840580D01*
%TO.C,R25*%
X7546359Y-19720000D02*
X7853641Y-19720000D01*
X7546359Y-20480000D02*
X7853641Y-20480000D01*
%TO.C,R16*%
X18120000Y-34246359D02*
X18120000Y-34553641D01*
X18880000Y-34246359D02*
X18880000Y-34553641D01*
%TO.C,R8*%
X41620000Y-15446359D02*
X41620000Y-15753641D01*
X42380000Y-15446359D02*
X42380000Y-15753641D01*
%TO.C,R13*%
X41220000Y-26846359D02*
X41220000Y-27153641D01*
X41980000Y-26846359D02*
X41980000Y-27153641D01*
%TO.C,C1*%
X18835000Y-41238748D02*
X18835000Y-41761252D01*
X17365000Y-41238748D02*
X17365000Y-41761252D01*
%TO.C,R15*%
X6820000Y-21753641D02*
X6820000Y-21446359D01*
X7580000Y-21753641D02*
X7580000Y-21446359D01*
%TO.C,D2*%
X42600000Y-8550000D02*
X45150000Y-8550000D01*
X42600000Y-6850000D02*
X45150000Y-6850000D01*
X42600000Y-6850000D02*
X42600000Y-8550000D01*
%TO.C,R12*%
X42580000Y-10846359D02*
X42580000Y-11153641D01*
X41820000Y-10846359D02*
X41820000Y-11153641D01*
D11*
%TO.C,J3*%
X4900000Y-38000000D02*
X16900000Y-38000000D01*
X16900000Y-38000000D02*
X16900000Y-50000000D01*
X16900000Y-50000000D02*
X4900000Y-50000000D01*
X4900000Y-50000000D02*
X4900000Y-38000000D01*
D12*
%TO.C,R18*%
X18120000Y-30446359D02*
X18120000Y-30753641D01*
X18880000Y-30446359D02*
X18880000Y-30753641D01*
%TO.C,J2*%
X12400000Y-5625000D02*
X6850000Y-5625000D01*
X13160000Y-6385000D02*
X13160000Y-415000D01*
X3850000Y-1175000D02*
X9850000Y-1175000D01*
X2350000Y-425000D02*
X550000Y-425000D01*
X550000Y-425000D02*
X550000Y-1175000D01*
X13150000Y-2675000D02*
X12400000Y-2675000D01*
X13160000Y-415000D02*
X540000Y-415000D01*
X9850000Y-425000D02*
X3850000Y-425000D01*
X1300000Y-2675000D02*
X1300000Y-5625000D01*
X9850000Y-1175000D02*
X9850000Y-425000D01*
X2350000Y-1175000D02*
X2350000Y-425000D01*
X1300000Y-5625000D02*
X6850000Y-5625000D01*
X3850000Y-425000D02*
X3850000Y-1175000D01*
X13150000Y-425000D02*
X11350000Y-425000D01*
X250000Y-125000D02*
X250000Y-1375000D01*
X540000Y-6385000D02*
X13160000Y-6385000D01*
X11350000Y-1175000D02*
X13150000Y-1175000D01*
X13150000Y-1175000D02*
X13150000Y-425000D01*
X540000Y-415000D02*
X540000Y-6385000D01*
X11350000Y-425000D02*
X11350000Y-1175000D01*
X550000Y-2675000D02*
X1300000Y-2675000D01*
X550000Y-1175000D02*
X2350000Y-1175000D01*
X1500000Y-125000D02*
X250000Y-125000D01*
X12400000Y-2675000D02*
X12400000Y-5625000D01*
%TO.C,U7*%
X4600000Y-19540000D02*
X5400000Y-19540000D01*
X4600000Y-19540000D02*
X2800000Y-19540000D01*
X4600000Y-22660000D02*
X3800000Y-22660000D01*
X4600000Y-22660000D02*
X5400000Y-22660000D01*
%TO.C,C3*%
X42210000Y-22234420D02*
X42210000Y-22515580D01*
X41190000Y-22234420D02*
X41190000Y-22515580D01*
%TO.C,AE1*%
X2785000Y-42700000D02*
X2785000Y-42060000D01*
X2785000Y-42060000D02*
X3415000Y-42060000D01*
X65000Y-42650000D02*
X65000Y-39950000D01*
X2785000Y-39900000D02*
X2785000Y-40540000D01*
%TO.C,R19*%
X18120000Y-28546359D02*
X18120000Y-28853641D01*
X18880000Y-28546359D02*
X18880000Y-28853641D01*
%TO.C,D4*%
X12250000Y-22600000D02*
X12250000Y-17200000D01*
X8950000Y-22600000D02*
X8950000Y-17200000D01*
X8950000Y-22600000D02*
X12250000Y-22600000D01*
%TO.C,JP1*%
X37650000Y-31300000D02*
X36250000Y-31300000D01*
X38350000Y-30000000D02*
X38350000Y-30600000D01*
X36250000Y-29300000D02*
X37650000Y-29300000D01*
X35550000Y-30600000D02*
X35550000Y-30000000D01*
X36250000Y-29300000D02*
G75*
G03*
X35550000Y-30000000I-1J-699999D01*
G01*
X37650000Y-31300000D02*
G75*
G03*
X38350000Y-30600000I1J699999D01*
G01*
X38350000Y-30000000D02*
G75*
G03*
X37650000Y-29300000I-699999J1D01*
G01*
X35550000Y-30600000D02*
G75*
G03*
X36250000Y-31300000I699999J-1D01*
G01*
%TO.C,C13*%
X19210000Y-11940580D02*
X19210000Y-11659420D01*
X18190000Y-11940580D02*
X18190000Y-11659420D01*
%TO.C,J4*%
X16950000Y-23895000D02*
X13340000Y-23895000D01*
X680000Y-24925000D02*
X680000Y-26785000D01*
X680000Y-33875000D02*
X1030000Y-33365000D01*
X680000Y-26785000D02*
X880000Y-26995000D01*
X11640000Y-23895000D02*
X6940000Y-23895000D01*
X680000Y-24925000D02*
X880000Y-24725000D01*
X880000Y-36385000D02*
X880000Y-36645000D01*
X680000Y-36185000D02*
X680000Y-33875000D01*
X5640000Y-23895000D02*
X3840000Y-23895000D01*
X16950000Y-37865000D02*
X2940000Y-37865000D01*
X1030000Y-26995000D02*
X880000Y-26995000D01*
X680000Y-36185000D02*
X880000Y-36385000D01*
X16950000Y-35945000D02*
X16950000Y-37865000D01*
X1030000Y-26995000D02*
X1030000Y-33365000D01*
X16950000Y-24345000D02*
X16950000Y-23895000D01*
%TO.C,R17*%
X18120000Y-32653641D02*
X18120000Y-32346359D01*
X18880000Y-32653641D02*
X18880000Y-32346359D01*
%TO.C,J1*%
X540000Y-13210000D02*
X13160000Y-13210000D01*
X2350000Y-7250000D02*
X550000Y-7250000D01*
X12400000Y-12450000D02*
X6850000Y-12450000D01*
X9850000Y-7250000D02*
X3850000Y-7250000D01*
X13150000Y-9500000D02*
X12400000Y-9500000D01*
X1300000Y-12450000D02*
X6850000Y-12450000D01*
X13160000Y-13210000D02*
X13160000Y-7240000D01*
X540000Y-7240000D02*
X540000Y-13210000D01*
X12400000Y-9500000D02*
X12400000Y-12450000D01*
X1300000Y-9500000D02*
X1300000Y-12450000D01*
X9850000Y-8000000D02*
X9850000Y-7250000D01*
X13150000Y-8000000D02*
X13150000Y-7250000D01*
X13150000Y-7250000D02*
X11350000Y-7250000D01*
X550000Y-9500000D02*
X1300000Y-9500000D01*
X1500000Y-6950000D02*
X250000Y-6950000D01*
X250000Y-6950000D02*
X250000Y-8200000D01*
X3850000Y-7250000D02*
X3850000Y-8000000D01*
X11350000Y-8000000D02*
X13150000Y-8000000D01*
X13160000Y-7240000D02*
X540000Y-7240000D01*
X550000Y-8000000D02*
X2350000Y-8000000D01*
X3850000Y-8000000D02*
X9850000Y-8000000D01*
X550000Y-7250000D02*
X550000Y-8000000D01*
X11350000Y-7250000D02*
X11350000Y-8000000D01*
X2350000Y-8000000D02*
X2350000Y-7250000D01*
%TO.C,C6*%
X23910000Y-29340580D02*
X23910000Y-29059420D01*
X22890000Y-29340580D02*
X22890000Y-29059420D01*
%TO.C,R1*%
X3620000Y-46146359D02*
X3620000Y-46453641D01*
X4380000Y-46146359D02*
X4380000Y-46453641D01*
%TO.C,Q2*%
X48000000Y-6760000D02*
X47350000Y-6760000D01*
X48000000Y-3640000D02*
X48650000Y-3640000D01*
X48000000Y-3640000D02*
X46325000Y-3640000D01*
X48000000Y-6760000D02*
X48650000Y-6760000D01*
%TO.C,L1*%
X3390000Y-43637221D02*
X3390000Y-43962779D01*
X4410000Y-43637221D02*
X4410000Y-43962779D01*
%TO.C,Q1*%
X48000000Y-3360000D02*
X47350000Y-3360000D01*
X48000000Y-240000D02*
X46325000Y-240000D01*
X48000000Y-240000D02*
X48650000Y-240000D01*
X48000000Y-3360000D02*
X48650000Y-3360000D01*
%TO.C,C12*%
X8338748Y-13865000D02*
X8861252Y-13865000D01*
X8338748Y-15335000D02*
X8861252Y-15335000D01*
%TO.C,R24*%
X8580000Y-21446359D02*
X8580000Y-21753641D01*
X7820000Y-21446359D02*
X7820000Y-21753641D01*
%TO.C,R20*%
X18120000Y-26646359D02*
X18120000Y-26953641D01*
X18880000Y-26646359D02*
X18880000Y-26953641D01*
D13*
%TO.C,USBC1*%
X49452500Y-18265000D02*
X50982500Y-18265000D01*
X45452500Y-9125000D02*
X47102500Y-9125000D01*
X50982500Y-9125000D02*
X49452500Y-9125000D01*
X50982500Y-18265000D02*
X50982500Y-9125000D01*
X45452500Y-18265000D02*
X47102500Y-18265000D01*
D12*
%TO.C,U3*%
X45810000Y-3600000D02*
X45810000Y-675000D01*
X42590000Y-3600000D02*
X42590000Y-5100000D01*
X42590000Y-3600000D02*
X42590000Y-2100000D01*
X45810000Y-3600000D02*
X45810000Y-5100000D01*
%TO.C,C8*%
X11859420Y-13890000D02*
X12140580Y-13890000D01*
X11859420Y-14910000D02*
X12140580Y-14910000D01*
%TO.C,C7*%
X20638748Y-27165000D02*
X21161252Y-27165000D01*
X20638748Y-28635000D02*
X21161252Y-28635000D01*
%TD*%
%LPC*%
D14*
%TO.C,L3*%
X5450000Y-16500000D03*
X1350000Y-16500000D03*
%TD*%
D15*
%TO.C,C10*%
X14600000Y-9550000D03*
X14600000Y-7650000D03*
%TD*%
D16*
%TO.C,D6*%
X14650000Y-14150000D03*
X15950000Y-14150000D03*
X15300000Y-12250000D03*
X15300000Y-14150000D03*
X15950000Y-12250000D03*
X14650000Y-12250000D03*
%TD*%
D17*
%TO.C,C11*%
X7500000Y-17225000D03*
X7500000Y-18775000D03*
%TD*%
D18*
%TO.C,D1*%
X2850000Y-46300000D03*
X750000Y-46300000D03*
%TD*%
D19*
%TO.C,R14*%
X41600000Y-24490000D03*
X41600000Y-25510000D03*
%TD*%
D20*
%TO.C,R9*%
X47300000Y-7600000D03*
X46280000Y-7600000D03*
%TD*%
D21*
%TO.C,U5*%
X43725000Y-19555000D03*
X43725000Y-20825000D03*
X43725000Y-22095000D03*
X43725000Y-23365000D03*
X43725000Y-24635000D03*
X43725000Y-25905000D03*
X43725000Y-27175000D03*
X43725000Y-28445000D03*
X48675000Y-28445000D03*
X48675000Y-27175000D03*
X48675000Y-25905000D03*
X48675000Y-24635000D03*
X48675000Y-23365000D03*
X48675000Y-22095000D03*
X48675000Y-20825000D03*
X48675000Y-19555000D03*
%TD*%
D15*
%TO.C,C9*%
X1100000Y-22100000D03*
X1100000Y-20200000D03*
%TD*%
D22*
%TO.C,BT1*%
X3700000Y-48800000D03*
D23*
X1700000Y-48800000D03*
%TD*%
D24*
%TO.C,U2*%
X35300000Y-32500000D03*
X33300000Y-32500000D03*
X31300000Y-32500000D03*
X29300000Y-32500000D03*
X27300000Y-32500000D03*
X25300000Y-32500000D03*
X23300000Y-32500000D03*
X21300000Y-32500000D03*
X21300000Y-48500000D03*
X23300000Y-48500000D03*
X25300000Y-48500000D03*
X27300000Y-48500000D03*
X29300000Y-48500000D03*
X31300000Y-48500000D03*
X33300000Y-48500000D03*
X35300000Y-48500000D03*
%TD*%
D19*
%TO.C,R21*%
X18500000Y-24400000D03*
X18500000Y-25420000D03*
%TD*%
D25*
%TO.C,D3*%
X14800000Y-5550000D03*
X14800000Y-2250000D03*
%TD*%
D26*
%TO.C,C4*%
X18200000Y-7550000D03*
X18200000Y-9450000D03*
%TD*%
D27*
%TO.C,L2*%
X21862500Y-30000000D03*
X19737500Y-30000000D03*
%TD*%
D28*
%TO.C,R10*%
X48280000Y-7600000D03*
X49300000Y-7600000D03*
%TD*%
D29*
%TO.C,U1*%
X21500000Y-8045000D03*
X21500000Y-9315000D03*
X21500000Y-10585000D03*
X21500000Y-11855000D03*
X21500000Y-13125000D03*
X21500000Y-14395000D03*
X21500000Y-15665000D03*
X21500000Y-16935000D03*
X21500000Y-18205000D03*
X21500000Y-19475000D03*
X21500000Y-20745000D03*
X21500000Y-22015000D03*
X21500000Y-23285000D03*
X21500000Y-24555000D03*
D30*
X24285000Y-25555000D03*
X25555000Y-25555000D03*
X26825000Y-25555000D03*
X28095000Y-25555000D03*
X29365000Y-25555000D03*
X30635000Y-25555000D03*
X31905000Y-25555000D03*
X33175000Y-25555000D03*
X34445000Y-25555000D03*
X35715000Y-25555000D03*
D29*
X38500000Y-24555000D03*
X38500000Y-23285000D03*
X38500000Y-22015000D03*
X38500000Y-20745000D03*
X38500000Y-19475000D03*
X38500000Y-18205000D03*
X38500000Y-16935000D03*
X38500000Y-15665000D03*
X38500000Y-14395000D03*
X38500000Y-13125000D03*
X38500000Y-11855000D03*
X38500000Y-10585000D03*
X38500000Y-9315000D03*
X38500000Y-8045000D03*
D31*
X29000000Y-15545000D03*
%TD*%
D32*
%TO.C,U6*%
X13495000Y-21375000D03*
X14765000Y-21375000D03*
X16035000Y-21375000D03*
X17305000Y-21375000D03*
X17305000Y-16425000D03*
X16035000Y-16425000D03*
X14765000Y-16425000D03*
X13495000Y-16425000D03*
%TD*%
D17*
%TO.C,C5*%
X16400000Y-7925000D03*
X16400000Y-9475000D03*
%TD*%
D28*
%TO.C,R25*%
X7190000Y-20100000D03*
X8210000Y-20100000D03*
%TD*%
D19*
%TO.C,R16*%
X18500000Y-33890000D03*
X18500000Y-34910000D03*
%TD*%
%TO.C,R8*%
X42000000Y-15090000D03*
X42000000Y-16110000D03*
%TD*%
%TO.C,R13*%
X41600000Y-26490000D03*
X41600000Y-27510000D03*
%TD*%
D26*
%TO.C,C1*%
X18100000Y-40550000D03*
X18100000Y-42450000D03*
%TD*%
D33*
%TO.C,R15*%
X7200000Y-22110000D03*
X7200000Y-21090000D03*
%TD*%
D18*
%TO.C,D2*%
X43050000Y-7700000D03*
X45150000Y-7700000D03*
%TD*%
D19*
%TO.C,R12*%
X42200000Y-10490000D03*
X42200000Y-11510000D03*
%TD*%
D34*
%TO.C,J3*%
X15750000Y-48400000D03*
X15750000Y-47300000D03*
X15750000Y-46200000D03*
X15750000Y-45100000D03*
X15750000Y-44000000D03*
X15750000Y-42900000D03*
X15750000Y-41800000D03*
X15750000Y-40700000D03*
X15750000Y-39600000D03*
X6050000Y-39600000D03*
X6050000Y-40700000D03*
X6050000Y-41800000D03*
X6050000Y-42900000D03*
X6050000Y-44000000D03*
X6050000Y-45100000D03*
X6050000Y-46200000D03*
X6050000Y-47300000D03*
X6050000Y-48400000D03*
%TD*%
D19*
%TO.C,R18*%
X18500000Y-30090000D03*
X18500000Y-31110000D03*
%TD*%
D35*
%TO.C,J2*%
X3100000Y-2875000D03*
D36*
X5600000Y-2875000D03*
X8100000Y-2875000D03*
X10600000Y-2875000D03*
%TD*%
D37*
%TO.C,U7*%
X3462500Y-20150000D03*
X3462500Y-21100000D03*
X3462500Y-22050000D03*
X5737500Y-22050000D03*
X5737500Y-21100000D03*
X5737500Y-20150000D03*
%TD*%
D17*
%TO.C,C3*%
X41700000Y-21600000D03*
X41700000Y-23150000D03*
%TD*%
D38*
%TO.C,AE1*%
X2950000Y-41300000D03*
D39*
X1425000Y-39825000D03*
X1425000Y-42775000D03*
%TD*%
D19*
%TO.C,R19*%
X18500000Y-28190000D03*
X18500000Y-29210000D03*
%TD*%
D40*
%TO.C,D4*%
X10600000Y-21200000D03*
X10600000Y-17200000D03*
%TD*%
D41*
%TO.C,JP1*%
X36300000Y-30300000D03*
D42*
X37600000Y-30300000D03*
%TD*%
D43*
%TO.C,C13*%
X18700000Y-12575000D03*
X18700000Y-11025000D03*
%TD*%
D44*
%TO.C,J4*%
X16790000Y-33645000D03*
X16790000Y-32545000D03*
X16790000Y-31445000D03*
X16790000Y-30345000D03*
X16790000Y-29245000D03*
X16790000Y-28145000D03*
X16790000Y-27045000D03*
X16790000Y-25945000D03*
X16790000Y-24995000D03*
D45*
X6290000Y-24045000D03*
D46*
X2140000Y-24045000D03*
D47*
X1690000Y-37545000D03*
D48*
X12490000Y-24045000D03*
X16790000Y-35195000D03*
%TD*%
D33*
%TO.C,R17*%
X18500000Y-33010000D03*
X18500000Y-31990000D03*
%TD*%
D35*
%TO.C,J1*%
X3100000Y-9700000D03*
D36*
X5600000Y-9700000D03*
X8100000Y-9700000D03*
X10600000Y-9700000D03*
%TD*%
D43*
%TO.C,C6*%
X23400000Y-29975000D03*
X23400000Y-28425000D03*
%TD*%
D19*
%TO.C,R1*%
X4000000Y-45790000D03*
X4000000Y-46810000D03*
%TD*%
D49*
%TO.C,Q2*%
X47062500Y-4250000D03*
X47062500Y-6150000D03*
X48937500Y-5200000D03*
%TD*%
D50*
%TO.C,L1*%
X3900000Y-43012500D03*
X3900000Y-44587500D03*
%TD*%
D49*
%TO.C,Q1*%
X47062500Y-850000D03*
X47062500Y-2750000D03*
X48937500Y-1800000D03*
%TD*%
D51*
%TO.C,C12*%
X7650000Y-14600000D03*
X9550000Y-14600000D03*
%TD*%
D19*
%TO.C,R24*%
X8200000Y-21090000D03*
X8200000Y-22110000D03*
%TD*%
%TO.C,R20*%
X18500000Y-26290000D03*
X18500000Y-27310000D03*
%TD*%
D52*
%TO.C,USBC1*%
X44592500Y-10805000D03*
X44592500Y-16585000D03*
D53*
X44092500Y-18015000D03*
D54*
X48272500Y-18015000D03*
X48272500Y-9375000D03*
D53*
X44092500Y-9375000D03*
D55*
X43532500Y-16895000D03*
X43532500Y-16095000D03*
D56*
X43532500Y-14945000D03*
X43532500Y-13945000D03*
X43532500Y-13445000D03*
X43532500Y-12445000D03*
D55*
X43532500Y-10495000D03*
X43532500Y-11295000D03*
D56*
X43532500Y-11945000D03*
X43532500Y-12945000D03*
X43532500Y-14445000D03*
X43532500Y-15445000D03*
%TD*%
D57*
%TO.C,U3*%
X45175000Y-1487500D03*
X44525000Y-1487500D03*
X43875000Y-1487500D03*
X43225000Y-1487500D03*
X43225000Y-5712500D03*
X43875000Y-5712500D03*
X44525000Y-5712500D03*
X45175000Y-5712500D03*
%TD*%
D58*
%TO.C,C8*%
X11225000Y-14400000D03*
X12775000Y-14400000D03*
%TD*%
D51*
%TO.C,C7*%
X19950000Y-27900000D03*
X21850000Y-27900000D03*
%TD*%
M02*
